<svg viewBox="0 0 128.082 90.9489" fill="none" xmlns="http://www.w3.org/2000/svg">
<path id="&#226;&#128;&#156;" d="M124.791 0.000479877C125.524 1.60739 126.136 3.24984 126.581 4.99931C126.683 5.3979 126.508 5.41191 126.532 5.58135C126.576 5.89283 126.907 6.33503 126.929 6.40473C127.066 6.83659 126.728 6.75674 126.735 6.8184C126.821 7.50366 127.088 7.21526 127.313 7.82604C127.376 7.99597 127.437 8.17776 127.498 8.36813L128.082 10.1403L126.258 10.758C125.562 10.9856 124.757 11.2065 124.002 11.4454C123.664 11.552 123.738 11.2856 123.02 11.5498C122.51 11.7359 121.026 12.5284 120.214 12.529C120.174 12.432 120.226 12.2902 120.228 12.1747C119.341 12.96 118.972 13.0718 117.479 13.5262C117.245 13.5979 117.088 13.8502 116.662 13.9449C116.24 14.0395 116.113 13.7902 115.31 14.1154C115.023 14.2327 114.92 14.4844 114.488 14.6705C113.254 15.1955 110.807 16.0017 109.806 16.4652C107.828 17.3723 106.931 18.1954 105.186 18.9997C105.052 19.0627 105.236 18.7201 104.996 18.8455C104.754 18.9718 104.641 19.3573 104.586 19.3958C103.99 19.803 102.48 20.247 102.159 20.5003C101.389 21.1056 102.264 20.7055 101.156 21.4679C100.254 22.0937 98.9055 22.6958 97.8815 23.3182L97.897 23.3064C97.7267 23.413 97.5666 23.5185 97.4198 23.6228C96.2213 24.4864 96.2395 25.1952 95.0591 25.5378C92.2968 28.2107 90.0255 31.4596 89.2961 35.0861C89.1893 35.0527 89.0829 35.0174 88.9767 34.9813C88.9892 35.2893 89.0123 35.5938 89.0445 35.8949C88.969 35.8389 88.8934 35.7843 88.8193 35.7269C88.8718 36.4972 88.946 37.1978 89.0125 37.928C89.071 38.571 89.1155 39.232 89.1658 39.9741C89.168 40.0056 88.9374 39.9506 88.9349 39.9771C88.9377 40.3494 89.1722 40.7255 89.195 41.0439C89.2295 41.8131 89.1935 43.2275 89.5772 42.4912C89.9848 44.2552 91.2493 45.975 92.3376 47.2808C92.3473 47.2927 92.3567 47.3045 92.3659 47.3162L92.3372 47.2866C92.8247 47.8542 92.7627 48.2581 93.018 48.5286C93.2792 48.8029 93.346 48.4509 93.4515 48.5341C94.0806 49.0373 95.0617 49.9189 94.9485 50.2647C95.1598 50.2695 95.3785 50.2777 95.5912 50.2809C95.2678 50.5095 97.2874 51.9835 97.8055 52.3812C97.8989 52.4561 97.8112 52.5957 97.8837 52.6497C98.6954 53.2476 99.0478 53.1879 99.7909 53.6266C100.053 53.7791 99.5032 53.7397 100.206 54.0918C100.263 54.1199 100.372 53.9218 101 54.3286L100.959 54.3014C101.007 54.3296 101.057 54.361 101.111 54.3958C102.403 55.2142 104.848 56.8671 106.149 58.1668C106.256 58.2716 105.728 58.1919 106.289 58.5854C106.49 58.7297 106.534 58.4981 106.986 58.8962C107.985 59.7786 108.926 60.7957 109.849 61.8247C110.582 62.6401 111.239 63.5206 111.849 64.4172C111.603 64.4483 110.95 63.8243 111.727 64.8932C111.848 65.0677 111.952 64.8333 112.003 64.914C112.419 65.5783 112.557 66.2528 112.906 67.0124C113.008 67.2379 113.179 67.2463 113.307 67.5335C113.493 67.9593 113.328 68.2136 113.541 68.7038C113.863 69.474 114.109 69.5878 113.823 70.6516C113.933 71.5339 113.986 72.4161 113.993 73.2961C114.141 77.9633 111.976 82.8221 108.329 85.725L108.352 85.7037C108.206 85.8329 108.058 85.9586 107.907 86.0822C106.733 87.2651 105.483 88.2488 103.903 89.0347C103.433 89.2609 103.235 89.0415 102.507 89.4201C102.352 89.5127 101.185 90.2125 100.846 89.69C100.515 89.8325 100.296 89.8885 100.003 89.9879C100.25 90.0191 100.505 90.0451 100.747 90.0703C99.4547 90.3126 98.4404 90.6853 97.294 90.9045C96.4504 91.0555 97.032 90.7519 96.5147 90.8188C96.0005 90.8785 95.7585 90.9487 95.1095 90.6659C94.8876 90.8243 94.6973 90.8636 94.4701 90.857C94.1856 90.8482 93.8552 90.7694 93.3356 90.7436C93.2367 90.7395 92.6465 90.8459 92.1621 90.7764C91.8123 90.7257 91.7333 90.5046 91.179 90.4713C91.0913 90.4717 89.8854 90.5632 89.5075 90.507C88.917 90.4381 88.0749 89.9457 87.9701 89.9114C86.4083 89.4351 85.7065 89.449 84.8061 88.5932C84.489 88.7511 83.5251 88.493 82.8389 88.0961C81.9448 87.6128 80.5998 86.0815 80.0585 86.385C79.2801 85.5028 79.2842 85.714 78.2343 84.8534C77.2493 84.0889 75.1596 81.6034 74.5396 80.8473C74.4761 80.776 74.4195 80.7165 74.3687 80.6672L74.346 80.6387C73.8913 80.1637 73.8961 80.6075 73.6518 80.3455C73.2119 79.866 73.6088 80.0089 73.3495 79.6529C72.6214 78.6416 72.0028 77.7518 71.3195 76.7666C71.4317 76.6286 71.5428 76.4866 71.6551 76.3479C71.577 76.3219 71.499 76.2959 71.4209 76.2693C71.2983 76.046 71.1594 75.7968 71.0537 75.586C71.3587 77.6935 70.1713 73.8564 69.793 72.7639C69.4164 71.8559 68.5215 70.4287 68.1304 69.4002C68.0345 69.1527 68.2597 69.2737 68.2397 69.2231C68.0063 68.6284 67.8583 68.5695 67.6506 67.7337C67.5432 67.292 67.6504 66.7883 67.5564 66.3599C66.8668 63.2115 66.3002 60.1292 66.1977 56.9304C66.1826 56.4436 66.3949 56.0218 66.4469 55.6121C66.4534 55.5611 66.4574 55.5104 66.4582 55.4599C66.4695 54.8071 66.2539 54.3928 66.2723 53.7756C66.2897 53.1631 66.6114 52.297 66.6038 51.8828C66.5966 51.4655 66.2797 52.1544 66.4136 51.4005C66.4769 51.0554 66.6155 51.6861 66.6593 51.2577C66.7915 49.9253 66.8167 47.9995 67.3267 46.6351C67.2578 46.686 67.1903 46.761 67.1215 46.8269C67.4325 45.3261 67.8846 44.0439 68.3509 42.5408C68.5125 42.0155 68.6584 41.0162 68.8423 40.5035C69.0243 39.9909 69.2837 39.8235 69.4425 39.4211C69.5088 39.2559 69.3297 39.2613 69.3762 39.1507C69.9693 37.7701 70.567 37.1392 71.2204 35.7268C73.5246 30.79 76.8706 26.1896 80.7241 22.2228C80.9126 22.0281 81.1027 21.8343 81.2944 21.6413C81.4584 21.4765 81.424 21.2108 81.6484 20.954C81.9962 20.5577 82.1464 20.6801 82.2018 20.6372C82.5663 20.3572 82.3096 20.3528 82.7632 19.9405C83.7634 19.0257 85.5297 17.7444 86.5814 16.9099C88.9956 14.9821 91.0421 13.3623 93.5679 11.679C93.7496 11.5579 93.7582 11.8521 94.0814 11.6561C96.3721 10.2976 96.7321 9.79347 99.6915 8.28614C102.641 6.76542 108.379 4.31824 111.995 2.97767C111.995 2.97822 111.995 2.97878 111.996 2.97933C112.96 2.09469 114.475 1.65051 115.824 1.54496C109.171 5.18942 102.425 7.56422 95.5384 11.712C90.5145 14.7544 85.7751 18.7656 81.6604 23.1647C79.8666 25.0778 78.1941 27.0618 76.6307 29.0884C76.1493 29.7152 75.7429 29.8232 75.405 30.4054C75.3481 30.5042 75.6851 30.3805 75.5041 30.6791C73.0237 34.7388 70.4 39.1792 69.2917 43.7761C68.9981 45.009 69.1796 45.2569 69.0037 46.3478C68.9371 46.1352 68.8529 45.9865 68.7827 45.7962C67.8522 48.9617 67.4946 52.2887 67.5002 55.6121C67.5026 57.4275 67.599 59.2438 67.7776 61.0613C67.8005 61.2939 67.5797 61.349 67.6001 61.5943C67.641 62.0867 67.9502 62.518 68.0223 62.9409C68.1174 63.49 67.9568 63.6163 68.0574 64.1231C68.1082 64.3692 68.2624 64.2663 68.337 64.808C68.3437 64.8536 68.1704 64.9167 68.2669 65.2712C68.5197 66.2432 69.1815 68.1761 69.4813 68.9431C69.8471 69.927 69.885 70.8105 70.0112 71.1923C70.3583 72.2186 70.6113 72.0907 70.9737 72.9231C72.1036 75.4655 73.4615 77.8545 75.0832 80.0716C77.3259 82.935 80.052 85.5249 83.465 87.2921C83.8392 87.4994 85.3775 87.8693 86.0955 88.1344C86.331 88.2396 87.5937 88.7374 87.7918 88.7898C88.5767 89.0404 89.2361 89.3734 89.6821 89.4993C90.5475 89.7482 91.5767 89.5765 92.0526 89.5888C92.7517 89.617 93.8944 89.6812 94.4701 89.6879C94.5894 89.6904 94.6837 89.6919 94.7443 89.6926C95.5974 89.6962 95.3284 90.0642 95.9438 89.952C96.1242 89.9155 95.921 89.6538 96.556 89.6078C97.0881 89.5657 97.3247 89.7489 97.6976 89.7416C98.0711 89.7354 98.6883 89.3087 98.9096 89.2738C100.082 89.0913 100.655 89.1733 101.908 88.763C103.046 88.599 107.27 85.7809 107.403 85.3063C107.521 85.1552 107.602 85.0401 107.654 84.9572C107.796 84.7406 107.733 84.7496 107.572 84.8689C107.219 85.1638 106.288 85.987 106.19 86.0382C105.393 86.5306 105.444 86.3394 104.78 87.0379C103.754 86.8354 101.539 89.0359 100.526 88.3088C99.9571 89.0973 99.2331 88.9427 98.4312 88.951C97.3132 88.9473 98.1994 89.1799 97.3917 89.2846C97.0711 89.3262 96.1271 89.1281 95.6547 89.1825C95.2141 89.2359 95.0136 89.4264 94.4701 89.4644C94.4266 89.4674 94.381 89.4692 94.3331 89.4698C93.1786 89.4839 92.2474 89.3155 91.33 88.9456C91.1424 89.0351 90.9644 89.124 90.7741 89.2094C90.1305 88.992 89.4966 88.748 88.8839 88.479C88.9637 88.5988 89.0453 88.7191 89.1278 88.8379C88.9345 88.8094 88.74 88.7772 88.5472 88.7428C87.9525 88.4414 87.4008 88.1358 86.8303 87.7785C84.9532 87.6954 85.6094 87.4004 84.7395 86.9387C83.8788 86.4534 83.2214 86.4643 82.5507 86.0711C81.6583 85.533 81.2359 85.2978 80.4027 84.6525C79.9182 84.2773 79.3219 83.3702 79.6664 84.299C78.1474 83.1629 76.2166 81.3765 75.2866 79.9118C75.2789 79.8985 75.2697 79.8831 75.2605 79.8677C75.0555 79.5214 75.3449 79.7234 75.4583 79.7831C75.4833 79.7907 75.5013 79.7963 75.4929 79.7796C75.4884 79.7707 75.4837 79.7621 75.4789 79.7535L75.4857 79.762C75.2937 79.3877 74.8873 79.2499 74.6638 78.8763C74.2781 78.2454 73.6691 76.9416 73.4214 76.4238C73.0505 75.6887 72.1495 74.6981 72.0687 74.5851C71.608 73.9785 71.7742 73.674 71.6542 73.4672C70.9807 72.2789 70.7717 72.0256 71.1492 71.4163C70.7804 71.194 69.8711 69.9372 70.1673 69.46C69.7996 69.5745 69.481 68.3771 69.1941 67.6678C69.2635 67.5021 69.3324 67.3346 69.4049 67.1714C68.3149 65.8137 68.2164 62.5659 68.1269 60.4991C68.1237 60.4471 67.8289 60.3813 67.8656 60.0605C67.8692 60.0402 67.9999 60.0609 67.9991 59.8506C67.9751 59.1512 68.1939 56.5071 68.2095 56.2075C68.2093 55.9734 68.2009 55.7791 68.1871 55.6121C68.137 54.9878 68.005 54.7542 68.0034 54.2159C68.0065 53.3198 68.2061 53.1997 68.2334 52.3526C68.2488 51.9565 68.023 51.5726 68.1206 50.9507C68.1792 50.5818 68.3818 50.5671 68.4309 50.2782C68.6099 49.2513 68.6014 48.4711 69.019 47.6085C68.4375 47.2575 68.9791 46.9048 69.1188 46.4688C69.6761 44.6954 70.0593 42.4065 70.6604 40.9228C72.5241 36.3001 75.0755 32.6695 78.0815 28.9444C78.5752 28.3408 78.4448 27.9953 78.9897 27.3744C79.2356 27.0972 79.656 26.9589 80.0587 26.5089C80.3799 26.1506 80.7639 25.5553 81.1813 25.1166C81.2925 24.9994 81.4587 25.1381 81.6242 24.968C81.9268 24.6575 82.2236 24.3463 82.5217 24.0311C83.4497 23.0497 84.3602 22.0553 85.35 21.0845C85.8334 20.6107 86.342 20.5592 85.9312 20.253C86.2073 20.1794 86.4683 20.0998 86.7322 20.0379C87.2519 19.2013 88.0491 18.9789 89.0006 18.1518C89.1023 18.0609 89.6568 17.213 90.2445 17.0958C90.171 16.9296 90.0145 16.8568 89.9326 16.7175C90.3246 16.3472 91.1225 16.0348 91.4296 15.8485C91.7382 15.66 91.8092 15.3326 91.8986 15.2689C92.2405 15.0297 92.3286 15.3372 92.358 15.3233C94.1253 14.4946 93.8633 14.4843 94.6105 13.4725C94.7959 13.2144 96.6679 12.4705 96.838 11.9619C96.9274 12.0793 96.8973 12.2464 96.9409 12.3831C97.4701 12.1166 98.016 11.8483 98.5526 11.5907C98.3734 11.5298 98.1722 11.4813 98.0016 11.4152C99.1236 10.9211 99.8636 10.145 100.76 9.68717C101.271 9.42794 101.353 9.73695 101.621 9.52229C101.674 9.48015 101.478 9.34418 101.645 9.23965C103.006 8.39484 103.737 8.28497 105.199 7.64345C105.887 7.34461 106.321 6.72391 107.412 6.51535C107.511 6.49669 108.609 6.38547 109.019 5.68434C109.269 5.74466 109.469 5.74802 109.661 5.80714C110.605 4.6332 110.534 5.42219 112.251 4.91703C113.135 4.65081 115.986 3.44539 116.912 3.04393C117.458 2.80053 117.355 2.53698 117.452 2.49077C118.034 2.21808 118.126 2.47735 118.667 2.24431C119.209 2.01124 119.822 1.47791 120.406 1.31674C120.855 1.19302 120.611 1.63121 121.229 1.30597C121.356 1.23801 120.882 1.0857 121.605 0.973106C121.718 0.954504 122.915 0.905562 123.163 0.900743C122.63 1.25385 121.03 2.01404 120.427 2.29332C110.496 6.49208 91.5033 15.5772 83.0714 24.584C82.5666 25.0753 82.0946 25.5512 81.6495 26.0141C80.8943 26.8024 80.1997 27.1457 79.7157 27.6736C79.2344 28.2045 79.8317 27.9168 79.401 28.4001C78.9746 28.8818 78.5278 29.1348 78.1459 29.6045C75.5654 32.7774 73.3788 36.3216 71.8566 40.0885C71.4621 41.0668 71.397 41.9343 71.1128 42.8421C71.0031 43.1959 70.7261 43.1247 70.653 43.38C69.8707 46.1378 69.6629 48.7903 69.3775 51.6028C69.2592 52.7717 68.9586 54.0369 68.9271 55.2133C68.9233 55.3455 68.9236 55.4786 68.9269 55.6121C68.9478 56.4598 69.0928 57.3063 69.1315 58.0562C69.1566 58.5265 68.9555 58.7894 68.9493 58.9611C68.9333 59.5609 69.1853 59.3336 69.2086 59.6359C69.2766 60.4686 69 60.9182 69.1208 61.6977C69.1701 62.0039 69.3674 61.9386 69.4606 62.3748C69.5821 62.9303 69.3646 62.7508 69.4205 63.1519C69.4237 63.1762 69.5554 63.0741 69.5959 63.2854C69.853 64.6438 70.3363 66.2925 70.6899 67.5629C71.4077 70.1905 72.1808 72.8043 73.3771 75.0758C73.681 75.647 73.7647 75.4009 73.8741 75.5736C74.4088 76.3965 74.4021 76.818 75.0468 77.6307C75.1548 77.7669 75.7614 78.1812 76.1009 78.7439C76.1731 78.8641 76.2347 79.0018 76.2931 79.141L76.2654 79.1062C76.363 79.3184 76.452 79.5327 76.5535 79.6872C76.7219 79.9422 76.9384 79.8214 77.1781 80.0903C77.6229 80.5779 77.3631 80.5547 78.0436 81.2143C78.3181 81.4831 79.3819 82.1979 80.1124 82.8238C81.2949 83.8606 82.793 85.1583 84.4657 85.9925C85.0389 86.2811 85.8819 86.3945 86.7975 86.7257C87.9111 87.1569 90.046 87.7387 91.2761 87.881C91.8997 87.9637 91.921 88.2218 91.995 88.2418C92.4748 88.3609 92.3058 88.0512 92.6277 88.0887C93.0705 88.1377 93.4791 88.3723 93.8912 88.396C94.1527 88.4106 94.1968 88.1945 94.2531 88.1936C94.3256 88.1917 94.3979 88.1896 94.4701 88.1874C96.4709 88.1186 98.2465 87.9482 100.128 87.4247C102.557 86.7461 104.777 85.5146 106.558 83.7859L106.59 83.7569C109.618 81.0702 111.256 77.2911 111.161 73.2961C111.147 69.681 110.131 66.2142 107.805 63.7339C107.327 63.2155 106.837 62.7084 106.336 62.2129C105.663 61.5557 105.819 61.3328 105.171 60.8084C104.516 60.2833 103.534 60.2293 103.405 59.2988C103.307 59.3872 103.25 59.4615 103.159 59.5409C102.033 58.4282 100.655 57.6286 99.3327 56.8297L99.2728 56.7894C99.1519 56.7092 99.0324 56.6285 98.9136 56.5466C97.8303 55.7987 96.9058 55.0818 95.9557 54.319C95.1156 53.6375 95.3348 53.5198 94.4227 53.1543C93.0355 51.9066 91.6669 50.6233 90.3624 49.2731L90.3189 49.2282C88.2637 46.9834 86.9215 44.0284 86.6335 41.1C86.0535 40.1869 86.1265 39.1759 86.2252 37.928C86.2411 37.7257 86.2589 37.5168 86.277 37.2988C86.2958 37.1011 86.1023 37.3067 86.1557 36.7155C86.2391 35.9725 86.5322 35.6222 86.7693 34.417C86.792 34.0984 87.2252 31.6654 87.7858 30.9283C88.2901 30.1763 88.9909 29.1094 89.6132 28.4441C89.4454 28.4871 89.2649 28.5614 89.0898 28.6243C89.3153 28.2279 89.5545 27.8386 89.8044 27.456C89.9563 27.4844 90.1079 27.5139 90.2583 27.5468C90.3031 27.2595 90.3562 26.9711 90.4123 26.6801C91.3334 26.6811 90.7687 26.9851 91.4367 25.91C91.7803 25.3746 92.2064 25.0968 92.6012 24.5862C92.742 24.4039 92.6962 24.1495 92.861 23.9489C93.2625 23.4663 93.2038 23.9295 93.4816 23.6619C93.7579 23.397 93.9538 22.7799 94.5745 22.4325C94.4043 23.3275 95.8518 21.8517 95.6649 21.4504C95.8315 21.3162 95.9853 21.2123 96.1605 21.0705L96.1784 21.0568C96.2054 21.0356 96.233 21.0135 96.2612 20.9903C96.7323 22.034 97.2792 20.6377 97.6196 20.2183C97.9492 19.8015 98.1057 20.0613 98.1971 19.984C98.4633 19.7632 98.1857 19.8009 98.3823 19.6628C99.6945 18.749 101.068 18.1232 102.433 17.364C102.63 17.2546 102.372 17.2053 102.609 17.0902C102.845 16.9766 103.147 17.0016 103.482 16.8042C103.571 16.752 103.528 16.6054 103.67 16.528C106.663 14.9132 109.632 13.6759 112.808 12.3697C113.096 12.2517 113.221 11.9119 113.781 11.6938C114.346 11.4739 115.281 11.3601 115.981 11.1095C116.167 11.0429 116.14 10.8162 116.386 10.7281C117.226 10.4286 118.012 10.3274 118.891 10.039C120.378 9.55081 121.882 8.88634 123.429 8.50982C123.721 8.43822 123.733 8.62837 124.163 8.54174C124.899 8.39505 124.549 8.22687 124.682 8.14566C124.957 7.97892 125.162 8.03445 125.384 8.03856L124.772 9.21928C124.775 9.09125 124.762 8.95742 124.677 8.80016C124.642 8.73483 124.471 8.89725 124.448 8.83582C124.111 7.87964 124.569 7.68077 123.994 6.73203C123.981 5.73256 124.551 7.23076 124.745 7.34238C125.216 7.61553 125.314 6.4739 125.26 5.83561C125.214 5.28595 124.996 5.35814 124.932 5.15355C124.594 4.07128 124.049 2.4722 123.896 1.61628C123.802 1.09796 124.174 1.96863 124.167 1.69129C124.16 1.41624 123.944 1.30411 124.043 0.988779C124.142 0.673367 124.507 -0.0208017 124.791 0.000479877ZM110.808 63.8319C110.31 63.5517 109.735 63.0739 109.078 62.5449C107.418 61.1859 105.336 59.2337 103.967 58.0985C102.411 56.7783 101.304 55.2279 101.094 56.3C102.908 57.5465 104.389 58.5557 106.111 60.1309C106.293 60.2916 107.285 61.3459 107.624 61.7157C107.817 61.9217 107.705 62.0454 107.974 62.3173C108.033 62.3754 108.511 62.5574 108.623 62.6858C108.662 62.7297 108.706 62.7842 108.754 62.8471C109.199 63.3925 109.782 64.6579 109.885 64.8302C110.247 65.3544 110.338 65.0158 110.522 65.2348C111.119 65.9984 110.811 66.2638 111.277 67.0755C111.356 67.2194 111.879 67.6333 112.026 68.3363C112.087 68.6198 112.03 69.1364 112.081 69.347C112.373 70.4971 112.728 71.8268 112.702 72.9404C112.7 73.0852 112.689 73.2016 112.674 73.2961C112.592 73.7892 112.403 73.6763 112.359 74.0704C112.306 74.5358 112.554 75.1318 112.528 75.4614C112.491 75.9875 112.197 76.5777 112.164 76.7332C111.541 79.8307 110.126 82.4648 107.878 84.6381C109.52 83.2935 110.93 81.6207 111.912 79.6905C112.13 78.4583 112.135 79.1222 112.486 78.384C112.744 77.7886 112.349 77.5188 112.576 76.7316C112.576 76.7323 112.576 76.733 112.576 76.7336C112.692 76.3316 113.169 75.4541 113.095 74.5232C113.089 74.4906 112.868 74.3927 112.879 73.7196C112.88 73.5852 112.88 73.4437 112.877 73.2961C112.86 71.7917 112.541 69.7489 112.151 68.2546C112.027 67.7729 112.3 67.7959 112.135 67.2161C112.009 66.7924 111.613 66.4081 111.365 65.7775C111.051 64.9934 111.157 64.4122 110.371 64.2269C110.508 64.0766 110.682 63.9893 110.808 63.8319ZM91.4663 27.9669C91.5488 27.8722 93.0233 27.0539 92.221 26.9898C90.6185 28.4441 89.45 30.506 88.5137 32.5811C89.3929 32.0867 89.6506 30.8309 90.455 29.4663C90.4554 29.4657 90.4557 29.4652 90.4561 29.4646C90.4937 29.4013 90.473 29.7519 90.6713 29.3825C90.7638 29.2064 90.9858 28.4031 91.4663 27.9669ZM58.5935 0.000479043C59.327 1.60763 59.9389 3.25032 60.3842 5.00003C60.4858 5.39868 60.311 5.41268 60.335 5.58214C60.3787 5.89367 60.7101 6.33594 60.7318 6.40565C60.8691 6.83757 60.5307 6.7577 60.5378 6.81937C60.6245 7.50473 60.8916 7.21629 61.1166 7.82716C61.1791 7.99676 61.2403 8.17817 61.3008 8.36813L61.8848 10.1403L60.0605 10.758C59.3644 10.9858 58.5586 11.2068 57.8034 11.4459C57.4653 11.5525 57.5395 11.2861 56.8215 11.5503C56.3107 11.7365 54.8272 12.5291 54.0147 12.5297C53.9748 12.4327 54.027 12.291 54.0289 12.1754C53.1422 12.9607 52.7726 13.0727 51.2791 13.5271C51.045 13.5989 50.8882 13.8511 50.4628 13.9459C50.04 14.0405 49.9136 13.7912 49.1098 14.1165C48.8232 14.2338 48.7201 14.4855 48.2879 14.6717C47.0534 15.1968 44.6061 16.0031 43.6056 16.4667C41.6267 17.3742 40.7302 18.1973 38.9849 19.0018C38.851 19.0648 39.0349 18.7223 38.7945 18.8477C38.5527 18.974 38.4402 19.3595 38.3846 19.398C37.789 19.8053 36.2783 20.2495 35.958 20.5028C35.188 21.1082 36.0626 20.7081 34.9544 21.4706C34.0535 22.0957 32.7081 22.697 31.6846 23.3186L31.7001 23.3068C31.528 23.4145 31.3663 23.5211 31.2181 23.6263C30.0195 24.4903 30.0378 25.1992 28.8574 25.542C26.0954 28.2157 23.8248 31.466 23.0974 35.0934C22.9906 35.06 22.8841 35.0247 22.7778 34.9887C22.7905 35.2967 22.8138 35.6013 22.8461 35.9024C22.7706 35.8464 22.695 35.7919 22.6209 35.7345C22.6736 36.5021 22.7479 37.2006 22.8145 37.928C22.8737 38.5735 22.9186 39.2371 22.9696 39.9822C22.9719 40.0138 22.7412 39.9587 22.7387 39.9853C22.7417 40.3577 22.9764 40.7337 22.9994 41.0521C23.0343 41.8213 22.9993 43.2359 23.3826 42.4993C23.7914 44.2632 25.0573 45.9823 26.1468 47.2877C26.1544 47.2971 26.1619 47.3064 26.1692 47.3156L26.1406 47.2861C26.6352 47.8577 26.5716 48.2639 26.8281 48.5356C27.0894 48.8099 27.1562 48.4579 27.2617 48.541C27.891 49.0442 28.8724 49.9258 28.7593 50.2717C28.9705 50.2764 29.1894 50.2846 29.402 50.2878C29.0786 50.5164 31.0987 51.9903 31.617 52.3881C31.7104 52.4628 31.6228 52.6025 31.6953 52.6566C32.5072 53.2544 32.8597 53.1947 33.6029 53.6333C33.8647 53.7858 33.3151 53.7465 34.0178 54.0986C34.0751 54.1264 34.183 53.9305 34.8021 54.329L34.7616 54.3018C34.8123 54.3316 34.8663 54.365 34.9238 54.4024C36.2161 55.2212 38.6608 56.875 39.9618 58.1753C40.0689 58.28 39.5405 58.2002 40.1013 58.5939C40.303 58.7382 40.3471 58.5067 40.7991 58.905C41.7938 59.7849 42.7326 60.7986 43.6516 61.8245C44.3882 62.6438 45.047 63.529 45.6597 64.4302C45.4133 64.4611 44.7612 63.8363 45.5367 64.9062C45.6572 65.0808 45.7616 64.8465 45.8132 64.9272C46.2278 65.592 46.3653 66.2668 46.7134 67.0268C46.8153 67.2525 46.9866 67.2608 47.1145 67.5483C47.2998 67.9744 47.1342 68.2283 47.3477 68.7189C47.6689 69.4893 47.9141 69.6034 47.6272 70.6671C47.7362 71.5441 47.789 72.4213 47.796 73.2961C47.9437 77.9633 45.7786 82.822 42.1318 85.7254L42.1552 85.7041C42.0044 85.8373 41.8521 85.9668 41.6964 86.0941C40.5202 87.276 39.2695 88.2585 37.688 89.0428C37.2176 89.2685 37.0201 89.0488 36.292 89.4267C36.137 89.5191 34.9693 90.2178 34.6304 89.695C34.2998 89.8372 34.0801 89.893 33.7872 89.9922C34.0341 90.0236 34.289 90.0498 34.5307 90.0752C33.2386 90.3164 32.2235 90.6882 31.077 90.9065C30.2335 91.0569 30.815 90.7537 30.2979 90.8202C29.7832 90.8796 29.5417 90.9495 28.8925 90.6663C28.6774 90.8199 28.4914 90.8614 28.2728 90.8575C27.9845 90.8518 27.6519 90.7697 27.1205 90.744C27.0219 90.7399 26.4326 90.8472 25.9495 90.7794C25.5996 90.7298 25.521 90.509 24.9666 90.4781C24.8786 90.4786 23.6758 90.5766 23.2972 90.5229C22.7075 90.4578 21.8618 89.9713 21.7573 89.938C20.1921 89.4731 19.4899 89.4926 18.5829 88.6426C18.2664 88.8025 17.3002 88.5506 16.6105 88.156C15.7113 87.6767 14.3613 86.1454 13.8194 86.4473C13.0394 85.562 13.0435 85.7744 11.9946 84.9061C11.0078 84.1354 8.94229 81.6178 8.33682 80.8477C8.2696 80.7694 8.21017 80.7051 8.15717 80.6525L8.14729 80.6399C7.70388 80.184 7.70663 80.6184 7.46435 80.3586C7.0242 79.8794 7.42112 80.022 7.16164 79.6661C6.43303 78.655 5.81394 77.7654 5.13013 76.7803C5.24225 76.6422 5.3533 76.5002 5.46547 76.3614C5.38736 76.3355 5.30932 76.3095 5.2312 76.2829C5.10851 76.0596 4.96946 75.8104 4.86368 75.5996C5.16978 77.7072 3.98044 73.8703 3.60161 72.7776C3.22456 71.8696 2.329 70.4426 1.93756 69.4141C1.84147 69.1665 2.06673 69.2875 2.04671 69.2369C1.81312 68.6422 1.66509 68.5833 1.45706 67.7474C1.34951 67.3059 1.45639 66.8019 1.36234 66.3735C0.671573 63.2249 0.104077 60.1424 0.000782371 56.943C-0.0146264 56.4513 0.202079 56.0256 0.251192 55.6121C0.256758 55.5653 0.260194 55.5187 0.260925 55.4722C0.272084 54.8193 0.0563473 54.4051 0.0745882 53.7878C0.0918318 53.1751 0.413393 52.3088 0.405621 51.8946C0.398402 51.4773 0.0816151 52.1664 0.215379 51.4123C0.27855 51.0671 0.417305 51.6978 0.460995 51.2694C0.59288 49.9368 0.61766 48.0107 1.12733 46.6459C1.05847 46.6969 0.990993 46.772 0.922197 46.8379C1.23285 45.3368 1.68463 44.0542 2.15071 42.5508C2.31216 42.0254 2.45792 41.0259 2.64164 40.5131C2.82357 40.0004 3.08293 39.8329 3.24172 39.4305C3.30793 39.2652 3.12887 39.2707 3.17538 39.1601C3.76821 37.7791 4.36578 37.1479 5.01898 35.7352C7.32346 30.7951 10.6711 26.1916 14.5267 22.2227C14.7137 22.0296 14.9021 21.8374 15.0922 21.6461C15.2562 21.4813 15.2218 21.2155 15.4463 20.9586C15.794 20.5623 15.9443 20.6847 15.9997 20.6418C16.3641 20.3617 16.1075 20.3573 16.5611 19.9449C17.5614 19.0298 19.3278 17.7482 20.3795 16.9135C22.7939 14.9853 24.8407 13.3651 27.3667 11.6814C27.5485 11.5603 27.5571 11.8545 27.8804 11.6584C30.1713 10.2997 30.5314 9.79546 33.4911 8.28781C36.4411 6.76675 42.1799 4.31906 45.7961 2.97827C45.7963 2.97882 45.7965 2.97937 45.7968 2.97992C46.761 2.0952 48.2762 1.65094 49.626 1.54531C42.9723 5.19019 36.2251 7.56551 29.3375 11.7142C24.3149 14.7562 19.5767 18.7663 15.463 23.1645C13.6674 25.0797 11.9934 27.0658 10.4287 29.0947C9.9474 29.7217 9.54098 29.8298 9.20305 30.4121C9.14616 30.511 9.48311 30.3872 9.30216 30.6859C6.82207 34.7466 4.19905 39.1883 3.09175 43.7861C2.79843 45.0192 2.98 45.2671 2.80424 46.3582C2.73767 46.1456 2.65341 45.9969 2.58317 45.8065C1.65448 48.9689 1.29743 52.2923 1.303 55.6121C1.30537 57.4318 1.4022 59.2523 1.58181 61.0741C1.60467 61.3068 1.38396 61.3619 1.40445 61.6072C1.44548 62.0997 1.7548 62.5311 1.82705 62.9539C1.9223 63.5029 1.76175 63.6295 1.86249 64.1362C1.91336 64.3823 2.06757 64.2795 2.14238 64.8212C2.14904 64.8668 1.97577 64.9298 2.07244 65.2845C2.3256 66.2566 2.98813 68.1895 3.28819 68.9565C3.6544 69.9404 3.69275 70.824 3.81905 71.2058C4.16671 72.2321 4.4196 72.104 4.78241 72.9365C5.91137 75.4739 7.26748 77.8583 8.88628 80.0714C11.0762 82.979 13.8025 85.5971 17.2326 87.349C17.6084 87.5551 19.1492 87.9152 19.8693 88.1748C20.1055 88.2784 21.3725 88.7668 21.5706 88.8176C22.3573 89.0624 23.0194 89.3911 23.4657 89.5142C24.332 89.7575 25.3609 89.5813 25.8363 89.5921C26.5431 89.6182 27.7037 89.6816 28.2728 89.6883C28.3832 89.6907 28.4707 89.6921 28.528 89.6928C29.3812 89.697 29.1117 90.0648 29.7275 89.953C29.9076 89.9167 29.7051 89.6548 30.3399 89.6093C30.8724 89.5675 31.1088 89.7509 31.4816 89.7439C31.855 89.7381 32.473 89.3118 32.6941 89.2772C33.8673 89.0956 34.4404 89.1781 35.6937 88.7691C36.8312 88.6062 41.059 85.7923 41.1933 85.3177C41.3186 85.1573 41.4019 85.0376 41.4533 84.9539C41.5793 84.7585 41.5227 84.7632 41.376 84.87C41.0318 85.1534 40.079 85.9971 39.9789 86.0484C39.1812 86.5401 39.2328 86.3489 38.568 87.0468C37.5422 86.8432 35.3239 89.0415 34.3117 88.3135C33.7421 89.1014 33.0181 88.9463 32.2159 88.954C31.0977 88.9493 31.9841 89.1826 31.1761 89.2867C30.8552 89.3281 29.9113 89.1292 29.4388 89.1833C29.0035 89.2359 28.8024 89.4222 28.2728 89.4631C28.2237 89.4668 28.1717 89.4691 28.1167 89.4698C26.962 89.4834 26.0306 89.3177 25.1108 88.9517C24.9233 89.0419 24.7465 89.1319 24.5562 89.2181C23.9118 89.0041 23.2752 88.7639 22.6609 88.4991C22.7418 88.6184 22.8236 88.738 22.9071 88.8564C22.7139 88.8292 22.5188 88.7983 22.3258 88.7652C21.729 88.4681 21.1746 88.1666 20.6015 87.8135C18.724 87.7443 19.3777 87.4444 18.5053 86.9885C17.642 86.5086 16.9853 86.5229 16.3132 86.1316C15.4198 85.5962 14.9969 85.3612 14.1652 84.7147C13.6809 84.3384 13.0908 83.4298 13.4301 84.3591C11.9101 83.2156 9.99099 81.3959 9.09168 79.9119C9.08586 79.9019 9.07936 79.8911 9.0729 79.8802C8.87617 79.5483 9.13397 79.72 9.25557 79.7873C9.2928 79.8055 9.31819 79.8164 9.30883 79.7969C9.30205 79.7831 9.29499 79.7697 9.28767 79.7566C9.09569 79.3966 8.69643 79.2578 8.47558 78.889C8.08953 78.2581 7.47989 76.9544 7.23189 76.4366C6.86063 75.7016 5.95909 74.7112 5.87823 74.5983C5.41722 73.9918 5.58325 73.6872 5.46315 73.4803C4.78912 72.2922 4.58007 72.039 4.95726 71.4294C4.58832 71.2072 3.67844 69.9506 3.97443 69.4733C3.60676 69.5878 3.28774 68.3904 3.00053 67.6811C3.06983 67.5155 3.13871 67.3478 3.21113 67.1846C2.12058 65.8272 2.02093 62.5787 1.9309 60.5117C1.92772 60.4597 1.63289 60.394 1.66949 60.0732C1.67312 60.053 1.80373 60.0734 1.80286 59.8632C1.77866 59.1635 1.99691 56.5192 2.01242 56.2195C2.0121 55.9797 2.00329 55.7818 1.98891 55.6121C1.93801 54.9967 1.80748 54.7625 1.80586 54.2277C1.80867 53.3314 2.00831 53.2113 2.03535 52.364C2.05066 51.968 1.82481 51.5839 1.92219 50.962C1.98071 50.593 2.18337 50.5783 2.23243 50.2893C2.41116 49.2622 2.40246 48.4818 2.81985 47.6191C2.23831 47.2682 2.77978 46.9152 2.91945 46.4791C3.47636 44.7053 3.85901 42.4161 4.4599 40.932C6.32269 36.3082 8.87373 32.6764 11.8795 28.9504C12.3732 28.3467 12.2428 28.0011 12.7877 27.3801C13.0337 27.1027 13.4539 26.9645 13.8567 26.5143C14.1779 26.1559 14.562 25.5604 14.9793 25.1217C15.0904 25.0045 15.2567 25.1431 15.4222 24.973C15.7265 24.6608 16.0247 24.3479 16.3243 24.0309C17.2507 23.0509 18.1599 22.0579 19.1482 21.0886C19.6315 20.6146 20.1402 20.563 19.7294 20.2569C20.0055 20.1832 20.2665 20.1036 20.5304 20.0416C21.0502 19.2049 21.8474 18.9824 22.799 18.1551C22.9008 18.0641 23.4552 17.2162 24.043 17.0989C23.9695 16.9327 23.813 16.8599 23.7311 16.7206C24.1231 16.3503 24.9212 16.0377 25.2283 15.8514C25.5368 15.6628 25.6078 15.3354 25.6973 15.2717C26.0393 15.0324 26.1273 15.34 26.1567 15.326C27.9241 14.4971 27.6621 14.4869 28.4095 13.4748C28.5948 13.2168 30.467 12.4726 30.6372 11.9639C30.7267 12.0814 30.6965 12.2485 30.7401 12.3851C31.2694 12.1186 31.8153 11.8503 32.352 11.5926C32.1728 11.5317 31.9717 11.4832 31.8009 11.4172C32.9231 10.9229 33.6632 10.1467 34.56 9.68877C35.0711 9.4295 35.1525 9.73851 35.421 9.52382C35.4737 9.48168 35.2781 9.34572 35.4452 9.24117C36.806 8.39619 37.5374 8.28629 38.9992 7.64462C39.6871 7.34573 40.1217 6.72496 41.2129 6.51633C41.3114 6.49764 42.4093 6.38638 42.8199 5.68517C43.0701 5.74548 43.2695 5.74883 43.4621 5.80794C44.4062 4.63393 44.3352 5.42292 46.0518 4.91764C46.9363 4.65137 49.7881 3.44576 50.714 3.04425C51.2597 2.80081 51.157 2.53727 51.2539 2.49105C51.8364 2.21833 51.9284 2.47759 52.4692 2.24453C53.0109 2.01143 53.6244 1.47806 54.2079 1.31686C54.6571 1.19313 54.4134 1.63133 55.0314 1.30605C55.1587 1.23809 54.6842 1.0858 55.4074 0.97317C55.5201 0.954564 56.7175 0.905573 56.9661 0.900743C56.433 1.25388 54.8328 2.01415 54.2298 2.29346C44.2984 6.4921 25.3081 15.5756 16.8742 24.5841C16.3676 25.077 15.894 25.5546 15.4476 26.0191C14.6923 26.8077 13.9977 27.1511 13.5137 27.6791C13.0324 28.2103 13.6298 27.9223 13.1991 28.4058C12.7728 28.8876 12.3259 29.1407 11.944 29.6106C9.36372 32.7843 7.17744 36.3295 5.656 40.0973C5.26162 41.0758 5.19672 41.9435 4.91262 42.8514C4.80307 43.2053 4.52603 43.1341 4.45298 43.3896C3.67123 46.1479 3.46403 48.8008 3.17929 51.6139C3.06129 52.7829 2.76098 54.0485 2.72975 55.225C2.72616 55.3533 2.72631 55.4825 2.72941 55.6121C2.74946 56.4637 2.89578 57.3149 2.93487 58.0682C2.96007 58.5387 2.75906 58.8016 2.7529 58.9732C2.73705 59.5733 2.98902 59.3458 3.01232 59.6481C3.08062 60.481 2.80411 60.9306 2.92516 61.7103C2.97458 62.0165 3.17181 61.9511 3.26514 62.3873C3.3868 62.9429 3.16924 62.7634 3.22532 63.1645C3.22845 63.1888 3.3602 63.0867 3.40071 63.298C3.65824 64.6565 4.14221 66.3054 4.49632 67.5757C5.21514 70.2035 5.98939 72.8173 7.18689 75.0885C7.49113 75.6597 7.57474 75.4136 7.6842 75.5862C8.21933 76.409 8.21281 76.8305 8.85794 77.643C8.9661 77.7792 9.5729 78.1934 9.9127 78.756C9.98247 78.8719 10.0424 79.0044 10.099 79.1385L10.0869 79.1231C10.1828 79.3411 10.2693 79.5626 10.3701 79.7219C10.5342 79.9795 10.7521 79.8617 10.987 80.1332C11.4233 80.6257 11.1646 80.6003 11.8345 81.2655C12.1054 81.5373 13.1588 82.2596 13.8835 82.8866C15.056 83.9264 16.5507 85.2202 18.2264 86.0441C18.8004 86.3292 19.6433 86.4367 20.561 86.761C21.6769 87.1837 23.8186 87.7499 25.0519 87.8874C25.6777 87.9674 25.6994 88.2256 25.7738 88.2453C26.2551 88.3629 26.0849 88.0538 26.4073 88.0903C26.8516 88.1384 27.2613 88.3724 27.6744 88.3959C27.9363 88.4104 27.9806 88.1944 28.037 88.1935C28.1158 88.1915 28.1944 88.1892 28.2728 88.1868C30.2666 88.1187 32.0378 87.9494 33.9148 87.429C36.3493 86.7513 38.576 85.5183 40.3603 83.7857L40.3922 83.7567C43.4208 81.0701 45.0589 77.291 44.9637 73.2961C44.95 69.681 43.9341 66.2143 41.6075 63.7338C41.1327 63.2185 40.6457 62.7143 40.1474 62.2216C39.4751 61.5642 39.6311 61.3412 38.9826 60.8166C38.3279 60.2912 37.3458 60.2369 37.2176 59.3063C37.1188 59.3947 37.0624 59.469 36.9711 59.5484C35.8423 58.4325 34.4609 57.6313 33.1353 56.8299L33.0754 56.7897C32.9579 56.7117 32.8416 56.6331 32.7261 56.5535C31.6425 55.8057 30.7179 55.0888 29.7675 54.326C28.9271 53.6446 29.1463 53.5269 28.2341 53.1614C26.8439 51.9115 25.4724 50.6258 24.1654 49.273L24.1218 49.2281C22.069 46.9858 20.7274 44.0347 20.4379 41.1097C19.8559 40.1944 19.9302 39.1805 20.0287 37.928C20.0443 37.7286 20.0617 37.5227 20.0795 37.3081C20.0981 37.1103 19.9047 37.316 19.9578 36.7248C20.0408 35.9816 20.3337 35.6311 20.5702 34.4255C20.5927 34.1069 21.0247 31.6734 21.5851 30.9358C22.0892 30.1835 22.7897 29.116 23.4118 28.4504C23.244 28.4935 23.0635 28.568 22.8884 28.6309C23.1139 28.2343 23.3529 27.8449 23.6028 27.4621C23.7548 27.4904 23.9063 27.5199 24.0567 27.5527C24.1014 27.2655 24.1545 26.9769 24.2106 26.6859C25.1316 26.6866 24.5671 26.9908 25.2348 25.9154C25.5785 25.3797 26.0045 25.1018 26.3993 24.591C26.54 24.4087 26.4941 24.1543 26.659 23.9536C27.0605 23.4708 27.0018 23.9341 27.2796 23.6665C27.556 23.4013 27.7517 22.7842 28.3725 22.4366C28.2024 23.3317 29.6498 21.8556 29.4629 21.4542C29.631 21.3187 29.786 21.2142 29.9632 21.0705L29.9811 21.0567C30.0066 21.0366 30.0326 21.0158 30.0592 20.9939C30.5304 22.0375 31.0772 20.6411 31.4177 20.2216C31.7473 19.8047 31.9038 20.0645 31.9952 19.9872C32.2616 19.7663 31.9838 19.804 32.1804 19.6659C33.4927 18.7519 34.8666 18.1257 36.2311 17.3665C36.4285 17.257 36.1705 17.2078 36.4081 17.0926C36.6436 16.9789 36.9452 17.004 37.2807 16.8064C37.3697 16.7542 37.3264 16.6076 37.4684 16.5302C40.4625 14.915 43.4317 13.6774 46.6077 12.3709C46.8958 12.2529 47.0208 11.9131 47.5812 11.6949C48.1461 11.4749 49.0808 11.3611 49.7811 11.1105C49.9674 11.0438 49.9402 10.8172 50.1866 10.7291C51.0264 10.4294 51.8129 10.3282 52.6916 10.0397C54.1788 9.55148 55.6828 8.88692 57.2299 8.51031C57.5228 8.43869 57.5348 8.62885 57.9643 8.5422C58.7003 8.39546 58.3505 8.2273 58.4831 8.14609C58.7587 7.979 58.9644 8.03508 59.1873 8.03898L58.5748 9.21915C58.5785 9.09151 58.5648 8.95805 58.4805 8.80131C58.4452 8.73596 58.2738 8.8984 58.2512 8.83696C57.914 7.88064 58.3725 7.68177 57.7971 6.73288C57.7843 5.73328 58.3541 7.23169 58.5478 7.34334C59.0194 7.61654 59.1168 6.47477 59.0633 5.83639C59.0172 5.28665 58.7993 5.35884 58.7353 5.15423C58.3965 4.0718 57.8515 2.47249 57.6983 1.61645C57.605 1.09807 57.977 1.96886 57.9694 1.69148C57.9625 1.4164 57.7467 1.30425 57.8458 0.988879C57.9448 0.673429 58.3095 -0.0208165 58.5935 0.000479043ZM44.6193 63.8437C44.1187 63.5614 43.5407 63.0794 42.8789 62.5462C41.2216 61.1866 39.1454 59.2396 37.7795 58.1062C36.2233 56.7853 35.1167 55.2345 34.9066 56.3066C36.7203 57.5537 38.2017 58.5635 39.9228 60.1394C40.1055 60.3002 41.097 61.3549 41.4355 61.7249C41.6289 61.931 41.5174 62.0546 41.786 62.3266C41.8447 62.3848 42.3227 62.567 42.4348 62.6955C42.4713 62.7368 42.5127 62.7877 42.5578 62.8462C43.0021 63.3867 43.5917 64.6675 43.6944 64.8411C44.0566 65.3658 44.148 65.0272 44.3316 65.2464C44.9273 66.0108 44.6195 66.2758 45.0843 67.0882C45.1639 67.2322 45.6859 67.6467 45.8329 68.35C45.8938 68.6336 45.8354 69.15 45.8862 69.3609C46.1779 70.5113 46.5313 71.8416 46.5054 72.9552C46.5026 73.0926 46.493 73.2043 46.4792 73.2961C46.3981 73.8064 46.2058 73.6872 46.161 74.0851C46.1076 74.5505 46.3552 75.1468 46.3285 75.4765C46.2912 76.0027 45.9968 76.5925 45.9632 76.7481C45.3369 79.8454 43.9183 82.4781 41.6682 84.6495C43.3115 83.3063 44.724 81.6348 45.7085 79.7055C45.9274 78.4734 45.9322 79.1374 46.2834 78.3995C46.5422 77.8043 46.1475 77.534 46.3758 76.747C46.3757 76.7476 46.3755 76.7483 46.3754 76.7489C46.492 76.347 46.9696 75.4698 46.8962 74.5387C46.8911 74.5061 46.6694 74.4078 46.6813 73.7348C46.6829 73.5956 46.6822 73.4492 46.679 73.2961C46.6623 71.7928 46.3451 69.7582 45.958 68.2684C45.834 67.7863 46.1069 67.8098 45.9428 67.2297C45.8166 66.8057 45.4214 66.4211 45.174 65.7901C44.8609 65.0056 44.9671 64.4245 44.1817 64.2383C44.319 64.0881 44.493 64.001 44.6193 63.8437ZM25.2649 27.9724C25.3474 27.8776 26.8217 27.0589 26.0193 26.9951C24.4172 28.4499 23.2492 30.5126 22.3138 32.5884C23.1928 32.0936 23.4499 30.8375 24.254 29.4724C24.2543 29.4718 24.2547 29.4713 24.255 29.4707C24.2926 29.4073 24.272 29.7581 24.4703 29.3885C24.5626 29.2124 24.7846 28.4087 25.2649 27.9724Z" fill="var(--stroke-0, #F01212)" fill-opacity="0.9"/>
</svg>
