<svg viewBox="0 0 56 34" xmlns="http://www.w3.org/2000/svg" fill="none">
	<path d="M1 5.5 C 10 3.2, 24 2.4, 34 3.3 C 42 2.7, 50 3.4, 55 4.3 C 46 6.1, 36 5.6, 27 6.1 C 17 6.9, 6 6.7, 1 5.5 Z" fill="rgba(240,18,18,0.9)"/>
	<path d="M1 17.5 C 12 15.1, 22 14.5, 33 15.4 C 41 14.8, 49 15.3, 55 16.3 C 44 18.2, 35 17.5, 26 18.1 C 16 18.9, 5 18.7, 1 17.5 Z" fill="rgba(240,18,18,0.9)"/>
	<path d="M1 29.5 C 9 27.2, 23 26.4, 34 27.3 C 43 26.7, 51 27.4, 55 28.3 C 45 30.1, 36 29.6, 26 30.1 C 15 30.9, 5 30.7, 1 29.5 Z" fill="rgba(240,18,18,0.9)"/>
</svg>
