<svg xmlns="http://www.w3.org/2000/svg" width="36.412" height="43.360" viewBox="0 0 36.412 43.360" fill="none">
  <path d="M 36.412 2.243 C 36.412 1.006 35.377 0 34.093 0 L 2.319 0 C 1.038 0 0 1.006 0 2.243 L 0 41.117 C 0 42.354 1.038 43.36 2.319 43.36 L 34.093 43.36 C 35.377 43.36 36.412 42.354 36.412 41.117 L 36.412 2.243 Z M 34.866 2.243 L 34.866 41.117 C 34.866 41.53 34.521 41.865 34.093 41.865 L 2.319 41.865 C 1.894 41.865 1.546 41.53 1.546 41.117 L 1.546 2.243 C 1.546 1.83 1.894 1.495 2.319 1.495 L 34.093 1.495 C 34.521 1.495 34.866 1.83 34.866 2.243 Z M 15.445 40.218 L 20.969 40.218 C 21.394 40.218 21.742 39.883 21.742 39.47 C 21.742 39.057 21.394 38.723 20.969 38.723 L 15.445 38.723 C 15.018 38.723 14.672 39.057 14.672 39.47 C 14.672 39.883 15.018 40.218 15.445 40.218 Z M 32.581 4.424 C 32.581 4.011 32.235 3.676 31.808 3.676 L 4.607 3.676 C 4.18 3.676 3.834 4.011 3.834 4.424 L 3.834 36.305 C 3.834 36.718 4.18 37.052 4.607 37.052 L 31.808 37.052 C 32.235 37.052 32.581 36.718 32.581 36.305 L 32.581 4.424 Z M 31.035 5.172 L 31.035 35.557 L 5.38 35.557 L 5.38 5.172 L 31.035 5.172 Z M 9.064 31.649 L 18.206 31.649 C 18.633 31.649 18.979 31.313 18.979 30.902 C 18.979 30.489 18.633 30.154 18.206 30.154 L 9.064 30.154 C 8.637 30.154 8.291 30.489 8.291 30.902 C 8.291 31.313 8.637 31.649 9.064 31.649 Z M 9.064 27.433 L 27.35 27.433 C 27.777 27.433 28.123 27.098 28.123 26.685 C 28.123 26.274 27.777 25.938 27.35 25.938 L 9.064 25.938 C 8.637 25.938 8.291 26.274 8.291 26.685 C 8.291 27.098 8.637 27.433 9.064 27.433 Z M 9.064 23.218 L 27.35 23.218 C 27.777 23.218 28.123 22.884 28.123 22.471 C 28.123 22.058 27.777 21.723 27.35 21.723 L 9.064 21.723 C 8.637 21.723 8.291 22.058 8.291 22.471 C 8.291 22.884 8.637 23.218 9.064 23.218 Z M 9.064 19.006 L 27.35 19.006 C 27.777 19.006 28.123 18.671 28.123 18.258 C 28.123 17.845 27.777 17.51 27.35 17.51 L 9.064 17.51 C 8.637 17.51 8.291 17.845 8.291 18.258 C 8.291 18.671 8.637 19.006 9.064 19.006 Z M 9.064 14.791 L 27.35 14.791 C 27.777 14.791 28.123 14.455 28.123 14.044 C 28.123 13.631 27.777 13.296 27.35 13.296 L 9.064 13.296 C 8.637 13.296 8.291 13.631 8.291 14.044 C 8.291 14.455 8.637 14.791 9.064 14.791 Z M 9.064 10.575 L 27.35 10.575 C 27.777 10.575 28.123 10.24 28.123 9.827 C 28.123 9.416 27.777 9.08 27.35 9.08 L 9.064 9.08 C 8.637 9.08 8.291 9.416 8.291 9.827 C 8.291 10.24 8.637 10.575 9.064 10.575 Z" fill="currentColor" fill-rule="evenodd"></path>
</svg>