<svg xmlns="http://www.w3.org/2000/svg" width="28" height="28" viewBox="0 0 28 28" fill="none">
  <path d="M 14.577 26.591 C 14.959 26.596 15.271 26.907 15.274 27.29 C 15.276 27.678 14.964 27.995 14.577 28 L 13.431 28 C 13.291 28 13.154 27.958 13.038 27.88 L 12.929 27.792 C 12.798 27.66 12.722 27.48 12.723 27.29 C 12.727 26.901 13.045 26.591 13.431 26.591 L 14.577 26.591 Z M 14.703 0.025 C 22.1 0.394 28 6.515 28 14.003 C 28 18.771 25.565 23.187 21.587 25.756 L 21.599 25.78 L 21.494 25.84 L 20.503 26.414 C 20.208 26.582 19.842 26.512 19.626 26.268 L 19.542 26.153 C 19.35 25.815 19.468 25.386 19.803 25.192 L 20.272 24.921 L 20.282 24.911 L 20.297 24.904 C 24.191 22.654 26.582 18.5 26.582 14.004 C 26.582 7.045 20.953 1.409 13.994 1.409 L 13.432 1.409 C 13.045 1.41 12.727 1.1 12.723 0.711 L 12.736 0.573 C 12.79 0.293 13.008 0.072 13.287 0.016 L 13.29 0 L 14.703 0 L 14.703 0.025 Z M 6.812 24.526 C 6.951 24.517 7.092 24.549 7.215 24.621 L 8.204 25.192 L 8.206 25.193 C 8.537 25.391 8.649 25.818 8.456 26.152 C 8.262 26.487 7.834 26.603 7.497 26.413 L 6.506 25.84 C 6.342 25.746 6.223 25.593 6.174 25.411 L 6.151 25.272 C 6.142 25.133 6.175 24.993 6.246 24.871 C 6.34 24.713 6.494 24.596 6.673 24.548 L 6.812 24.526 Z M 1.973 19.485 C 2.106 19.439 2.25 19.433 2.387 19.47 C 2.568 19.521 2.722 19.64 2.814 19.802 L 3.387 20.793 C 3.578 21.13 3.461 21.559 3.126 21.753 C 2.964 21.846 2.77 21.873 2.588 21.824 C 2.406 21.776 2.251 21.656 2.158 21.492 L 1.586 20.502 C 1.396 20.165 1.511 19.738 1.846 19.544 L 1.973 19.485 Z M 14.004 6.982 C 14.392 6.986 14.704 7.302 14.703 7.69 L 14.703 13.815 L 18.082 19.659 C 18.249 19.953 18.182 20.318 17.937 20.535 L 17.823 20.617 C 17.659 20.712 17.465 20.739 17.282 20.69 C 17.101 20.64 16.946 20.521 16.853 20.359 L 13.39 14.359 C 13.335 14.265 13.304 14.162 13.296 14.056 L 13.296 7.69 C 13.295 7.501 13.368 7.321 13.502 7.188 C 13.635 7.054 13.815 6.981 14.004 6.982 Z M 0.708 12.725 C 0.894 12.725 1.077 12.8 1.209 12.932 C 1.343 13.066 1.417 13.245 1.415 13.434 L 1.415 14.578 C 1.412 14.966 1.096 15.278 0.708 15.276 C 0.32 15.277 0.005 14.966 0 14.578 L 0 13.434 C 0 13.246 0.074 13.066 0.206 12.932 L 0.207 12.931 C 0.341 12.8 0.52 12.725 0.708 12.725 Z M 2.586 6.175 C 2.769 6.126 2.965 6.152 3.127 6.25 C 3.29 6.343 3.409 6.496 3.458 6.679 C 3.505 6.859 3.481 7.053 3.386 7.216 L 2.814 8.206 C 2.719 8.368 2.564 8.486 2.381 8.532 C 2.2 8.58 2.007 8.552 1.847 8.457 C 1.512 8.263 1.395 7.835 1.586 7.499 L 2.158 6.509 C 2.233 6.375 2.352 6.273 2.491 6.212 L 2.491 6.201 L 2.586 6.175 Z M 8.03 1.525 C 8.207 1.572 8.36 1.687 8.455 1.847 C 8.55 2.008 8.579 2.202 8.531 2.385 C 8.497 2.521 8.421 2.642 8.318 2.734 L 8.204 2.817 L 7.215 3.389 L 7.213 3.388 C 7.05 3.483 6.857 3.508 6.677 3.461 C 6.495 3.411 6.34 3.291 6.246 3.127 C 6.151 2.965 6.125 2.773 6.174 2.591 C 6.223 2.409 6.344 2.254 6.506 2.16 L 7.495 1.589 L 7.498 1.586 C 7.66 1.498 7.851 1.476 8.03 1.525 Z" fill="currentColor" fill-rule="nonzero"></path>
</svg>