<svg xmlns="http://www.w3.org/2000/svg" width="732" height="732" viewBox="0 0 732 732" fill="none">
  <path d="M 0 366 C 0 163.864 163.864 0 366 0 C 568.136 0 732 163.864 732 366 C 732 568.136 568.136 732 366 732 C 163.864 732 0 568.136 0 366 Z" fill="currentColor" fill-rule="nonzero"></path>
  <path d="M 1.797 409.914 L -6.693 410.327 L 1.797 409.914 Z M 7.06 438.601 L -1.024 441.226 L 7.06 438.601 Z M 9.881 447.29 L 17.966 444.666 L 9.881 447.29 Z M 12.343 458.198 L 20.77 457.092 L 12.343 458.198 Z M 13.539 467.307 L 5.111 468.414 L 13.539 467.307 Z M 14.734 476.416 L 6.307 477.523 L 14.734 476.416 Z M 17.603 487.172 L 9.747 490.416 L 17.603 487.172 Z M 24.573 504.05 L 16.717 507.294 L 24.573 504.05 Z M 29.06 514.295 L 36.772 510.722 L 29.06 514.295 Z M 36.729 530.848 L 29.016 534.421 L 36.729 530.848 Z M 42.614 540.297 L 36.001 545.638 L 42.614 540.297 Z M 54.147 554.579 L 60.76 549.238 L 54.147 554.579 Z M 61.398 563.064 L 55.094 568.765 L 61.398 563.064 Z M 67.46 569.767 L 73.764 564.066 L 67.46 569.767 Z M 73.523 576.471 L 79.827 570.769 L 73.523 576.471 Z M 79.304 586.023 L 87.251 583.009 L 79.304 586.023 Z M 86.042 603.788 L 78.095 606.803 L 86.042 603.788 Z M 92.947 612.29 L 88.407 619.476 L 92.947 612.29 Z M 100.842 617.278 L 105.382 610.091 L 100.842 617.278 Z M 108.737 622.265 L 113.277 615.079 L 108.737 622.265 Z M 117.167 629.589 L 110.664 635.063 L 117.167 629.589 Z M 128.886 643.513 L 122.383 648.987 L 128.886 643.513 Z M 136.672 651.461 L 142.278 645.072 L 136.672 651.461 Z M 150.361 663.474 L 144.755 669.862 L 150.361 663.474 Z M 159.332 670.039 L 154.938 677.315 L 159.332 670.039 Z M 167.125 674.746 L 171.519 667.47 L 167.125 674.746 Z M 174.918 679.452 L 170.524 686.728 L 174.918 679.452 Z M 184.208 685.781 L 189.365 679.024 L 184.208 685.781 Z M 191.574 691.402 L 186.417 698.159 L 191.574 691.402 Z M 198.939 697.022 L 193.783 703.78 L 198.939 697.022 Z M 208.925 701.953 L 211.153 693.75 L 208.925 701.953 Z M 217.853 704.377 L 215.626 712.58 L 217.853 704.377 Z M 226.781 706.8 L 229.008 698.597 L 226.781 706.8 Z M 237.544 710.037 L 234.874 718.106 L 237.544 710.037 Z M 246.178 712.893 L 248.848 704.823 L 246.178 712.893 Z M 254.812 715.749 L 252.142 723.819 L 254.812 715.749 Z M 265.825 717.365 L 265.624 708.867 L 265.825 717.365 Z M 284.495 716.924 L 284.696 725.421 L 284.495 716.924 Z M 295.457 718.647 L 298.298 710.636 L 295.457 718.647 Z M 304.007 721.679 L 301.166 729.69 L 304.007 721.679 Z M 312.557 724.711 L 309.716 732.723 L 312.557 724.711 Z M 323.271 727.599 L 321.701 735.952 L 323.271 727.599 Z M 341.131 730.955 L 342.701 722.601 L 341.131 730.955 Z M 352.205 733.315 L 350.239 741.585 L 352.205 733.315 Z M 370.48 737.66 L 372.446 729.391 L 370.48 737.66 Z M 381.511 736.584 L 378.066 728.814 L 381.511 736.584 Z M 399.23 728.728 L 402.675 736.499 L 399.23 728.728 Z M 410.471 727.48 L 412.133 719.144 L 412.133 719.144 L 410.471 727.48 Z M 419.951 729.37 L 421.613 721.035 L 419.951 729.37 Z M 429.431 731.261 L 427.768 739.597 L 429.431 731.261 Z M 440.58 730.507 L 443.448 738.508 L 440.58 730.507 Z M 449.29 727.385 L 446.422 719.383 L 449.29 727.385 Z M 458 724.263 L 460.868 732.265 L 458 724.263 Z M 468.176 719.26 L 472.752 726.424 L 468.176 719.26 Z M 476.069 714.219 L 471.493 707.056 L 476.069 714.219 Z M 483.962 709.178 L 488.537 716.341 L 483.962 709.178 Z M 494.58 705.557 L 493.803 697.093 L 494.58 705.557 Z M 513.446 703.825 L 514.223 712.29 L 513.446 703.825 Z M 524.313 700.885 L 520.673 693.203 L 524.313 700.885 Z M 532.61 696.953 L 536.25 704.634 L 532.61 696.953 Z M 540.908 693.021 L 537.268 685.34 L 540.908 693.021 Z M 550.887 687.807 L 546.66 680.432 L 550.887 687.807 Z M 558.87 683.231 L 563.097 690.606 L 558.87 683.231 Z M 566.854 678.655 L 562.627 671.281 L 566.854 678.655 Z M 574.825 670.642 L 582.143 674.966 L 574.825 670.642 Z M 579.846 662.144 L 587.164 666.468 L 579.846 662.144 Z M 584.867 653.646 L 577.549 649.322 L 584.867 653.646 Z M 593.292 646.197 L 596.577 654.036 L 593.292 646.197 Z M 602.016 642.541 L 598.731 634.702 L 602.016 642.541 Z M 610.74 638.886 L 614.025 646.725 L 610.74 638.886 Z M 619.501 632.192 L 626.246 637.364 L 619.501 632.192 Z M 630.641 617.661 L 623.896 612.49 L 630.641 617.661 Z M 638.394 609.585 L 632.945 603.061 L 638.394 609.585 Z M 658.456 588.448 L 666.65 590.706 L 658.456 588.448 Z M 661.012 579.167 L 652.818 576.91 L 661.012 579.167 Z M 663.569 569.887 L 655.374 567.629 L 663.569 569.887 Z M 669.574 560.438 L 675.069 566.922 L 669.574 560.438 Z M 676.815 554.302 L 671.319 547.817 L 676.815 554.302 Z M 684.055 548.166 L 689.551 554.651 L 684.055 548.166 Z M 690.81 539.321 L 683.074 535.797 L 690.81 539.321 Z M 694.589 531.025 L 702.324 534.549 L 694.589 531.025 Z M 698.368 522.73 L 690.633 519.206 L 698.368 522.73 Z M 702.673 512.44 L 710.613 515.474 L 702.673 512.44 Z M 705.919 503.947 L 697.978 500.913 L 705.919 503.947 Z M 709.164 495.454 L 717.104 498.488 L 709.164 495.454 Z M 712.324 484.805 L 720.634 486.592 L 712.324 484.805 Z M 714.234 475.923 L 705.924 474.136 L 714.234 475.923 Z M 716.144 467.042 L 707.834 465.254 L 716.144 467.042 Z M 718.017 456.115 L 709.585 455.035 L 718.017 456.115 Z M 719.162 447.169 L 727.594 448.249 L 719.162 447.169 Z M 720.308 438.223 L 728.739 439.303 L 720.308 438.223 Z M 722.99 427.439 L 715.027 424.466 L 722.99 427.439 Z M 726.22 418.79 L 734.182 421.764 L 726.22 418.79 Z M 729.449 410.141 L 737.412 413.115 L 729.449 410.141 Z M 732.263 399.291 L 723.857 398.027 L 732.263 399.291 Z M 733.624 390.238 L 725.219 388.974 L 733.624 390.238 Z M 734.985 381.185 L 743.391 382.449 L 734.985 381.185 Z M 735.483 370.031 L 726.998 370.54 L 735.483 370.031 Z M 734.386 351.74 L 742.87 351.231 L 734.386 351.74 Z M 731.669 340.811 L 739.429 337.342 L 731.669 340.811 Z M 723.903 323.437 L 716.143 326.906 L 723.903 323.437 Z M 721.219 312.616 L 712.732 313.085 L 721.219 312.616 Z M 720.723 303.647 L 729.21 303.178 L 720.723 303.647 Z M 720.227 294.678 L 711.74 295.147 L 720.227 294.678 Z M 720.383 283.307 L 728.857 283.97 L 720.383 283.307 Z M 721.132 273.725 L 712.657 273.063 L 721.132 273.725 Z M 721.881 264.142 L 713.406 263.48 L 721.881 264.142 Z M 719.727 253.23 L 712.181 257.142 L 719.727 253.23 Z M 715.465 245.009 L 707.919 248.921 L 715.465 245.009 Z M 706.514 226.556 L 714.406 223.4 L 706.514 226.556 Z M 703.126 218.084 L 695.234 221.239 L 703.126 218.084 Z M 699.738 209.611 L 691.846 212.767 L 699.738 209.611 Z M 695.396 199.26 L 687.614 202.679 L 695.396 199.26 Z M 691.698 190.844 L 683.916 194.263 L 691.698 190.844 Z M 688.001 182.427 L 680.219 185.846 L 688.001 182.427 Z M 682.654 172.553 L 689.77 167.904 L 682.654 172.553 Z M 677.627 164.859 L 670.511 169.508 L 677.627 164.859 Z M 672.601 157.165 L 679.717 152.516 L 672.601 157.165 Z M 664.847 149.018 L 669.879 142.167 L 664.847 149.018 Z M 657.223 143.417 L 662.255 136.567 L 657.223 143.417 Z M 649.599 137.817 L 644.567 144.668 L 649.599 137.817 Z M 641.311 130.231 L 647.723 124.65 L 641.311 130.231 Z M 635.412 123.453 L 641.824 117.873 L 635.412 123.453 Z M 629.513 116.676 L 623.102 122.256 L 629.513 116.676 Z M 622.762 107.743 L 629.869 103.081 L 622.762 107.743 Z M 617.647 99.947 L 610.54 104.61 L 617.647 99.947 Z M 612.532 92.151 L 605.425 96.814 L 612.532 92.151 Z M 605.27 83.521 L 599.47 89.735 L 605.27 83.521 Z M 591.801 70.951 L 586.002 77.166 L 591.801 70.951 Z M 582.925 64.053 L 587.514 56.898 L 582.925 64.053 Z M 575.176 59.083 L 579.765 51.928 L 575.176 59.083 Z M 567.426 54.112 L 562.837 61.267 L 567.426 54.112 Z M 556.784 50.198 L 558.023 41.789 L 556.784 50.198 Z M 547.17 48.781 L 545.931 57.19 L 547.17 48.781 Z M 537.555 47.364 L 536.316 55.773 L 537.555 47.364 Z M 527.065 43.354 L 531.861 36.336 L 527.065 43.354 Z M 512.062 33.1 L 507.266 40.118 L 512.062 33.1 Z M 502.402 27.666 L 498.896 35.409 L 502.402 27.666 Z M 485.883 20.185 L 482.376 27.928 L 485.883 20.185 Z M 475.711 15.382 L 471.963 23.011 L 475.711 15.382 Z M 448.371 3.736 L 446.949 12.117 L 448.371 3.736 Z M 430.227 0.659 L 431.649 -7.722 L 430.227 0.659 Z M 389.521 -0.877 L 387.9 -9.221 L 389.521 -0.877 Z M 371.245 2.673 L 369.625 -5.671 L 371.245 2.673 Z M 360.009 2.254 L 357.814 10.466 L 360.009 2.254 Z M 341.617 -2.662 L 339.422 5.55 L 341.617 -2.662 Z M 330.637 -1.947 L 333.899 5.902 L 330.637 -1.947 Z M 321.918 1.677 L 325.18 9.526 L 321.918 1.677 Z M 313.198 5.3 L 309.936 -2.549 L 313.198 5.3 Z M 302.29 7.949 L 301.639 -0.526 L 302.29 7.949 Z M 293.212 8.648 L 293.864 17.123 L 293.212 8.648 Z M 284.134 9.346 L 283.482 0.871 L 284.134 9.346 Z M 273.518 12.208 L 269.829 4.551 L 273.518 12.208 Z M 257.035 20.151 L 253.345 12.493 L 257.035 20.151 Z M 246.174 22.93 L 245.67 14.445 L 246.174 22.93 Z M 217.078 28.259 L 211.425 21.911 L 217.078 28.259 Z M 202.942 40.846 L 208.595 47.194 L 202.942 40.846 Z M 192.84 45.843 L 191.192 37.505 L 192.84 45.843 Z M 183.426 47.704 L 181.777 39.366 L 183.426 47.704 Z M 174.011 49.566 L 175.66 57.904 L 174.011 49.566 Z M 164.957 55.74 L 157.838 51.095 L 164.957 55.74 Z M 159.598 63.952 L 166.716 68.598 L 159.598 63.952 Z M 154.238 72.165 L 147.12 67.52 L 154.238 72.165 Z M 146.494 80.395 L 151.446 87.304 L 146.494 80.395 Z M 139.217 85.611 L 144.169 92.52 L 139.217 85.611 Z M 131.94 90.827 L 136.892 97.735 L 131.94 90.827 Z M 123.187 97.5 L 117.837 90.895 L 123.187 97.5 Z M 109.176 108.847 L 114.526 115.452 L 109.176 108.847 Z M 101.38 116.591 L 107.949 121.985 L 101.38 116.591 Z M 89.948 130.516 L 96.518 135.909 L 89.948 130.516 Z M 75.104 144.509 L 69.571 138.057 L 75.104 144.509 Z M 68.073 150.539 L 73.606 156.991 L 68.073 150.539 Z M 55.635 177.132 L 47.625 174.288 L 47.625 174.288 L 55.635 177.132 Z M 50.527 187.054 L 43.575 182.163 L 43.575 182.163 L 50.527 187.054 Z M 45.304 194.479 L 52.257 199.369 L 45.304 194.479 Z M 40.081 201.904 L 33.129 197.013 L 40.081 201.904 Z M 34.442 211.454 L 26.802 207.727 L 34.442 211.454 Z M 26.485 227.767 L 34.124 231.494 L 26.485 227.767 Z M 21.828 237.91 L 29.634 241.276 L 21.828 237.91 Z M 14.591 254.695 L 22.396 258.061 L 14.591 254.695 Z M 13.243 275.089 L 4.757 275.574 L 4.757 275.574 L 13.243 275.089 Z M 11.892 295.55 L 19.712 298.883 L 11.892 295.55 Z M 4.646 312.55 L -3.174 309.217 L 4.646 312.55 Z M 1.913 323.306 L -6.551 322.525 L 1.913 323.306 Z M 0.766 350.569 L 8.938 348.231 L 0.766 350.569 Z M 2.456 356.475 L 10.628 354.137 L 2.456 356.475 Z M 4.145 362.38 L -4.027 364.718 L 4.145 362.38 Z M 0.206 371.556 L -8.288 371.871 L 0.206 371.556 Z M 0.542 380.621 L -7.952 380.936 L -7.616 390 L 0.878 389.685 L 9.372 389.371 L 9.036 380.306 L 0.542 380.621 Z M 0.878 389.685 L -7.616 390 C -7.478 393.737 -7.317 397.48 -7.135 401.23 L 1.355 400.817 L 9.845 400.404 C 9.666 396.72 9.508 393.042 9.372 389.371 L 0.878 389.685 Z M 1.355 400.817 L -7.135 401.23 L -6.693 410.327 L 1.797 409.914 L 10.287 409.502 L 9.845 400.404 L 1.355 400.817 Z M 1.797 409.914 L -6.693 410.327 L -6.251 419.424 L 2.239 419.012 L 10.729 418.599 L 10.287 409.502 L 1.797 409.914 Z M 2.239 419.012 L -6.251 419.424 C -6.033 423.896 -5.23 428.273 -3.845 432.537 L 4.239 429.913 L 12.324 427.288 C 11.403 424.452 10.873 421.562 10.729 418.599 L 2.239 419.012 Z M 4.239 429.913 L -3.845 432.537 L -1.024 441.226 L 7.06 438.601 L 15.145 435.977 L 12.324 427.288 L 4.239 429.913 Z M 7.06 438.601 L -1.024 441.226 L 1.796 449.915 L 9.881 447.29 L 17.966 444.666 L 15.145 435.977 L 7.06 438.601 Z M 9.881 447.29 L 1.796 449.915 C 2.787 452.968 3.494 456.096 3.915 459.305 L 12.343 458.198 L 20.77 457.092 C 20.214 452.858 19.28 448.713 17.966 444.666 L 9.881 447.29 Z M 12.343 458.198 L 3.915 459.305 L 5.111 468.414 L 13.539 467.307 L 21.966 466.201 L 20.77 457.092 L 12.343 458.198 Z M 13.539 467.307 L 5.111 468.414 L 6.307 477.523 L 14.734 476.416 L 23.162 475.31 L 21.966 466.201 L 13.539 467.307 Z M 14.734 476.416 L 6.307 477.523 C 6.891 481.975 8.038 486.279 9.747 490.416 L 17.603 487.172 L 25.46 483.927 C 24.32 481.168 23.555 478.302 23.162 475.31 L 14.734 476.416 Z M 17.603 487.172 L 9.747 490.416 L 13.232 498.855 L 21.088 495.611 L 28.945 492.367 L 25.46 483.927 L 17.603 487.172 Z M 21.088 495.611 L 13.232 498.855 L 16.717 507.294 L 24.573 504.05 L 32.43 500.806 L 28.945 492.367 L 21.088 495.611 Z M 24.573 504.05 L 16.717 507.294 C 18.186 510.853 19.73 514.378 21.347 517.868 L 29.06 514.295 L 36.772 510.722 C 35.256 507.449 33.808 504.143 32.43 500.806 L 24.573 504.05 Z M 29.06 514.295 L 21.347 517.868 L 25.182 526.145 L 32.894 522.572 L 40.607 518.998 L 36.772 510.722 L 29.06 514.295 Z M 32.894 522.572 L 25.182 526.145 L 29.016 534.421 L 36.729 530.848 L 44.441 527.275 L 40.607 518.998 L 32.894 522.572 Z M 36.729 530.848 L 29.016 534.421 C 30.878 538.439 33.21 542.182 36.001 545.638 L 42.614 540.297 L 49.226 534.957 C 47.305 532.577 45.713 530.021 44.441 527.275 L 36.729 530.848 Z M 42.614 540.297 L 36.001 545.638 L 41.768 552.779 L 48.38 547.438 L 54.993 542.097 L 49.226 534.957 L 42.614 540.297 Z M 48.38 547.438 L 41.768 552.779 L 47.535 559.919 L 54.147 554.579 L 60.76 549.238 L 54.993 542.097 L 48.38 547.438 Z M 54.147 554.579 L 47.535 559.919 C 49.989 562.958 52.509 565.907 55.094 568.765 L 61.398 563.064 L 67.702 557.362 C 65.333 554.742 63.019 552.035 60.76 549.238 L 54.147 554.579 Z M 61.398 563.064 L 55.094 568.765 L 61.156 575.469 L 67.46 569.767 L 73.764 564.066 L 67.702 557.362 L 61.398 563.064 Z M 67.46 569.767 L 61.156 575.469 L 67.219 582.172 L 73.523 576.471 L 79.827 570.769 L 73.764 564.066 L 67.46 569.767 Z M 73.523 576.471 L 67.219 582.172 C 68.95 584.086 70.336 586.347 71.356 589.038 L 79.304 586.023 L 87.251 583.009 C 85.518 578.44 83.05 574.333 79.827 570.769 L 73.523 576.471 Z M 79.304 586.023 L 71.356 589.038 L 74.726 597.921 L 82.673 594.906 L 90.62 591.891 L 87.251 583.009 L 79.304 586.023 Z M 82.673 594.906 L 74.726 597.921 L 78.095 606.803 L 86.042 603.788 L 93.99 600.774 L 90.62 591.891 L 82.673 594.906 Z M 86.042 603.788 L 78.095 606.803 C 80.113 612.124 83.594 616.435 88.407 619.476 L 92.947 612.29 L 97.486 605.104 C 95.847 604.068 94.725 602.712 93.99 600.774 L 86.042 603.788 Z M 92.947 612.29 L 88.407 619.476 L 96.302 624.464 L 100.842 617.278 L 105.382 610.091 L 97.486 605.104 L 92.947 612.29 Z M 100.842 617.278 L 96.302 624.464 L 104.197 629.451 L 108.737 622.265 L 113.277 615.079 L 105.382 610.091 L 100.842 617.278 Z M 108.737 622.265 L 104.197 629.451 C 106.704 631.035 108.847 632.904 110.664 635.063 L 117.167 629.589 L 123.67 624.116 C 120.699 620.585 117.222 617.572 113.277 615.079 L 108.737 622.265 Z M 117.167 629.589 L 110.664 635.063 L 116.523 642.025 L 123.026 636.551 L 129.53 631.078 L 123.67 624.116 L 117.167 629.589 Z M 123.026 636.551 L 116.523 642.025 L 122.383 648.987 L 128.886 643.513 L 135.389 638.04 L 129.53 631.078 L 123.026 636.551 Z M 128.886 643.513 L 122.383 648.987 C 125.052 652.159 127.948 655.114 131.066 657.85 L 136.672 651.461 L 142.278 645.072 C 139.803 642.9 137.507 640.557 135.389 638.04 L 128.886 643.513 Z M 136.672 651.461 L 131.066 657.85 L 137.91 663.856 L 143.516 657.467 L 149.123 651.078 L 142.278 645.072 L 136.672 651.461 Z M 143.516 657.467 L 137.91 663.856 L 144.755 669.862 L 150.361 663.474 L 155.967 657.085 L 149.123 651.078 L 143.516 657.467 Z M 150.361 663.474 L 144.755 669.862 C 147.928 672.647 151.324 675.133 154.938 677.315 L 159.332 670.039 L 163.726 662.763 C 160.972 661.1 158.387 659.208 155.967 657.085 L 150.361 663.474 Z M 159.332 670.039 L 154.938 677.315 L 162.731 682.022 L 167.125 674.746 L 171.519 667.47 L 163.726 662.763 L 159.332 670.039 Z M 167.125 674.746 L 162.731 682.022 L 170.524 686.728 L 174.918 679.452 L 179.312 672.176 L 171.519 667.47 L 167.125 674.746 Z M 174.918 679.452 L 170.524 686.728 C 173.44 688.489 176.283 690.425 179.052 692.539 L 184.208 685.781 L 189.365 679.024 C 186.115 676.544 182.764 674.261 179.312 672.176 L 174.918 679.452 Z M 184.208 685.781 L 179.052 692.539 L 186.417 698.159 L 191.574 691.402 L 196.73 684.645 L 189.365 679.024 L 184.208 685.781 Z M 191.574 691.402 L 186.417 698.159 L 193.783 703.78 L 198.939 697.022 L 204.096 690.265 L 196.73 684.645 L 191.574 691.402 Z M 198.939 697.022 L 193.783 703.78 C 197.665 706.742 201.988 708.877 206.698 710.156 L 208.925 701.953 L 211.153 693.75 C 208.567 693.048 206.233 691.896 204.096 690.265 L 198.939 697.022 Z M 208.925 701.953 L 206.698 710.156 L 215.626 712.58 L 217.853 704.377 L 220.08 696.174 L 211.153 693.75 L 208.925 701.953 Z M 217.853 704.377 L 215.626 712.58 L 224.554 715.003 L 226.781 706.8 L 229.008 698.597 L 220.08 696.174 L 217.853 704.377 Z M 226.781 706.8 L 224.554 715.003 C 228.055 715.954 231.495 716.989 234.874 718.106 L 237.544 710.037 L 240.214 701.967 C 236.537 700.75 232.802 699.627 229.008 698.597 L 226.781 706.8 Z M 237.544 710.037 L 234.874 718.106 L 243.508 720.963 L 246.178 712.893 L 248.848 704.823 L 240.214 701.967 L 237.544 710.037 Z M 246.178 712.893 L 243.508 720.963 L 252.142 723.819 L 254.812 715.749 L 257.482 707.68 L 248.848 704.823 L 246.178 712.893 Z M 254.812 715.749 L 252.142 723.819 C 256.62 725.301 261.264 725.975 266.026 725.863 L 265.825 717.365 L 265.624 708.867 C 262.758 708.935 260.059 708.532 257.482 707.68 L 254.812 715.749 Z M 265.825 717.365 L 266.026 725.863 L 275.361 725.642 L 275.16 717.144 L 274.959 708.647 L 265.624 708.867 L 265.825 717.365 Z M 275.16 717.144 L 275.361 725.642 L 284.696 725.421 L 284.495 716.924 L 284.294 708.426 L 274.959 708.647 L 275.16 717.144 Z M 284.495 716.924 L 284.696 725.421 C 287.506 725.355 290.127 725.776 292.616 726.658 L 295.457 718.647 L 298.298 710.636 C 293.8 709.041 289.113 708.312 284.294 708.426 L 284.495 716.924 Z M 295.457 718.647 L 292.616 726.658 L 301.166 729.69 L 304.007 721.679 L 306.848 713.668 L 298.298 710.636 L 295.457 718.647 Z M 304.007 721.679 L 301.166 729.69 L 309.716 732.723 L 312.557 724.711 L 315.398 716.7 L 306.848 713.668 L 304.007 721.679 Z M 312.557 724.711 L 309.716 732.723 C 313.625 734.109 317.621 735.186 321.701 735.952 L 323.271 727.599 L 324.841 719.245 C 321.623 718.64 318.477 717.792 315.398 716.7 L 312.557 724.711 Z M 323.271 727.599 L 321.701 735.952 L 330.631 737.631 L 332.201 729.277 L 333.771 720.923 L 324.841 719.245 L 323.271 727.599 Z M 332.201 729.277 L 330.631 737.631 L 339.561 739.309 L 341.131 730.955 L 342.701 722.601 L 333.771 720.923 L 332.201 729.277 Z M 341.131 730.955 L 339.561 739.309 C 343.073 739.969 346.632 740.727 350.239 741.585 L 352.205 733.315 L 354.171 725.046 C 350.31 724.128 346.487 723.313 342.701 722.601 L 341.131 730.955 Z M 352.205 733.315 L 350.239 741.585 L 359.376 743.757 L 361.343 735.488 L 363.309 727.218 L 354.171 725.046 L 352.205 733.315 Z M 361.343 735.488 L 359.376 743.757 L 368.514 745.93 L 370.48 737.66 L 372.446 729.391 L 363.309 727.218 L 361.343 735.488 Z M 370.48 737.66 L 368.514 745.93 C 374.119 747.262 379.694 746.688 384.956 744.355 L 381.511 736.584 L 378.066 728.814 C 376.088 729.69 374.309 729.833 372.446 729.391 L 370.48 737.66 Z M 381.511 736.584 L 384.956 744.355 L 393.816 740.427 L 390.371 732.656 L 386.925 724.886 L 378.066 728.814 L 381.511 736.584 Z M 390.371 732.656 L 393.816 740.427 L 402.675 736.499 L 399.23 728.728 L 395.785 720.958 L 386.925 724.886 L 390.371 732.656 Z M 399.23 728.728 L 402.675 736.499 C 404.696 735.603 406.659 735.387 408.808 735.816 L 410.471 727.48 L 412.133 719.144 C 406.535 718.027 401.004 718.644 395.785 720.958 L 399.23 728.728 Z M 410.471 727.48 L 408.808 735.816 L 418.288 737.706 L 419.951 729.37 L 421.613 721.035 L 412.133 719.144 L 410.471 727.48 Z M 419.951 729.37 L 418.288 737.706 L 427.768 739.597 L 429.431 731.261 L 431.093 722.925 L 421.613 721.035 L 419.951 729.37 Z M 429.431 731.261 L 427.768 739.597 C 433.084 740.657 438.37 740.328 443.448 738.508 L 440.58 730.507 L 437.712 722.505 C 435.671 723.237 433.525 723.41 431.093 722.925 L 429.431 731.261 Z M 440.58 730.507 L 443.448 738.508 L 452.158 735.387 L 449.29 727.385 L 446.422 719.383 L 437.712 722.505 L 440.58 730.507 Z M 449.29 727.385 L 452.158 735.387 L 460.868 732.265 L 458 724.263 L 455.132 716.262 L 446.422 719.383 L 449.29 727.385 Z M 458 724.263 L 460.868 732.265 C 465.033 730.772 468.997 728.822 472.752 726.424 L 468.176 719.26 L 463.601 712.097 C 460.905 713.819 458.085 715.204 455.132 716.262 L 458 724.263 Z M 468.176 719.26 L 472.752 726.424 L 480.644 721.383 L 476.069 714.219 L 471.493 707.056 L 463.601 712.097 L 468.176 719.26 Z M 476.069 714.219 L 480.644 721.383 L 488.537 716.341 L 483.962 709.178 L 479.386 702.014 L 471.493 707.056 L 476.069 714.219 Z M 483.962 709.178 L 488.537 716.341 C 490.604 715.021 492.839 714.253 495.357 714.022 L 494.58 705.557 L 493.803 697.093 C 488.613 697.569 483.769 699.215 479.386 702.014 L 483.962 709.178 Z M 494.58 705.557 L 495.357 714.022 L 504.79 713.156 L 504.013 704.691 L 503.236 696.227 L 493.803 697.093 L 494.58 705.557 Z M 504.013 704.691 L 504.79 713.156 L 514.223 712.29 L 513.446 703.825 L 512.669 695.361 L 503.236 696.227 L 504.013 704.691 Z M 513.446 703.825 L 514.223 712.29 C 519.038 711.848 523.633 710.613 527.952 708.566 L 524.313 700.885 L 520.673 693.203 C 518.212 694.37 515.562 695.095 512.669 695.361 L 513.446 703.825 Z M 524.313 700.885 L 527.952 708.566 L 536.25 704.634 L 532.61 696.953 L 528.971 689.272 L 520.673 693.203 L 524.313 700.885 Z M 532.61 696.953 L 536.25 704.634 L 544.548 700.703 L 540.908 693.021 L 537.268 685.34 L 528.971 689.272 L 532.61 696.953 Z M 540.908 693.021 L 544.548 700.703 C 548.138 699.001 551.66 697.161 555.114 695.182 L 550.887 687.807 L 546.66 680.432 C 543.589 682.192 540.459 683.828 537.268 685.34 L 540.908 693.021 Z M 550.887 687.807 L 555.114 695.182 L 563.097 690.606 L 558.87 683.231 L 554.644 675.857 L 546.66 680.432 L 550.887 687.807 Z M 558.87 683.231 L 563.097 690.606 L 571.081 686.03 L 566.854 678.655 L 562.627 671.281 L 554.644 675.857 L 558.87 683.231 Z M 566.854 678.655 L 571.081 686.03 C 575.713 683.375 579.398 679.611 582.143 674.966 L 574.825 670.642 L 567.507 666.318 C 566.148 668.618 564.52 670.196 562.627 671.281 L 566.854 678.655 Z M 574.825 670.642 L 582.143 674.966 L 587.164 666.468 L 579.846 662.144 L 572.528 657.82 L 567.507 666.318 L 574.825 670.642 Z M 579.846 662.144 L 587.164 666.468 L 592.185 657.97 L 584.867 653.646 L 577.549 649.322 L 572.528 657.82 L 579.846 662.144 Z M 584.867 653.646 L 592.185 657.97 C 593.349 656 594.777 654.791 596.577 654.036 L 593.292 646.197 L 590.007 638.357 C 584.677 640.591 580.488 644.348 577.549 649.322 L 584.867 653.646 Z M 593.292 646.197 L 596.577 654.036 L 605.301 650.381 L 602.016 642.541 L 598.731 634.702 L 590.007 638.357 L 593.292 646.197 Z M 602.016 642.541 L 605.301 650.381 L 614.025 646.725 L 610.74 638.886 L 607.455 631.046 L 598.731 634.702 L 602.016 642.541 Z M 610.74 638.886 L 614.025 646.725 C 618.908 644.679 623.038 641.548 626.246 637.364 L 619.501 632.192 L 612.755 627.02 C 611.411 628.773 609.701 630.105 607.455 631.046 L 610.74 638.886 Z M 619.501 632.192 L 626.246 637.364 L 631.817 630.098 L 625.071 624.927 L 618.325 619.755 L 612.755 627.02 L 619.501 632.192 Z M 625.071 624.927 L 631.817 630.098 L 637.387 622.833 L 630.641 617.661 L 623.896 612.49 L 618.325 619.755 L 625.071 624.927 Z M 630.641 617.661 L 637.387 622.833 C 639.279 620.365 641.427 618.126 643.842 616.108 L 638.394 609.585 L 632.945 603.061 C 629.575 605.875 626.555 609.02 623.896 612.49 L 630.641 617.661 Z M 638.394 609.585 L 643.842 616.108 L 650.921 610.196 L 645.472 603.672 L 640.023 597.149 L 632.945 603.061 L 638.394 609.585 Z M 645.472 603.672 L 650.921 610.196 L 657.999 604.284 L 652.55 597.76 L 647.101 591.236 L 640.023 597.149 L 645.472 603.672 Z M 652.55 597.76 L 657.999 604.284 C 662.28 600.708 665.168 596.089 666.65 590.706 L 658.456 588.448 L 650.261 586.191 C 649.655 588.392 648.605 589.981 647.101 591.236 L 652.55 597.76 Z M 658.456 588.448 L 666.65 590.706 L 669.207 581.425 L 661.012 579.167 L 652.818 576.91 L 650.261 586.191 L 658.456 588.448 Z M 661.012 579.167 L 669.207 581.425 L 671.764 572.144 L 663.569 569.887 L 655.374 567.629 L 652.818 576.91 L 661.012 579.167 Z M 663.569 569.887 L 671.764 572.144 C 672.361 569.975 673.435 568.307 675.069 566.922 L 669.574 560.438 L 664.079 553.953 C 659.796 557.582 656.866 562.213 655.374 567.629 L 663.569 569.887 Z M 669.574 560.438 L 675.069 566.922 L 682.31 560.787 L 676.815 554.302 L 671.319 547.817 L 664.079 553.953 L 669.574 560.438 Z M 676.815 554.302 L 682.31 560.787 L 689.551 554.651 L 684.055 548.166 L 678.56 541.681 L 671.319 547.817 L 676.815 554.302 Z M 684.055 548.166 L 689.551 554.651 C 693.425 551.368 696.46 547.422 698.545 542.845 L 690.81 539.321 L 683.074 535.797 C 682.071 537.999 680.604 539.95 678.56 541.681 L 684.055 548.166 Z M 690.81 539.321 L 698.545 542.845 L 702.324 534.549 L 694.589 531.025 L 686.854 527.502 L 683.074 535.797 L 690.81 539.321 Z M 694.589 531.025 L 702.324 534.549 L 706.103 526.254 L 698.368 522.73 L 690.633 519.206 L 686.854 527.502 L 694.589 531.025 Z M 698.368 522.73 L 706.103 526.254 C 707.72 522.703 709.224 519.11 710.613 515.474 L 702.673 512.44 L 694.733 509.406 C 693.47 512.711 692.104 515.977 690.633 519.206 L 698.368 522.73 Z M 702.673 512.44 L 710.613 515.474 L 713.859 506.981 L 705.919 503.947 L 697.978 500.913 L 694.733 509.406 L 702.673 512.44 Z M 705.919 503.947 L 713.859 506.981 L 717.104 498.488 L 709.164 495.454 L 701.224 492.42 L 697.978 500.913 L 705.919 503.947 Z M 709.164 495.454 L 717.104 498.488 C 718.585 494.613 719.762 490.646 720.634 486.592 L 712.324 484.805 L 704.014 483.018 C 703.325 486.222 702.395 489.355 701.224 492.42 L 709.164 495.454 Z M 712.324 484.805 L 720.634 486.592 L 722.544 477.71 L 714.234 475.923 L 705.924 474.136 L 704.014 483.018 L 712.324 484.805 Z M 714.234 475.923 L 722.544 477.71 L 724.454 468.829 L 716.144 467.042 L 707.834 465.254 L 705.924 474.136 L 714.234 475.923 Z M 716.144 467.042 L 724.454 468.829 C 725.284 464.967 725.949 461.089 726.448 457.195 L 718.017 456.115 L 709.585 455.035 C 709.148 458.451 708.564 461.858 707.834 465.254 L 716.144 467.042 Z M 718.017 456.115 L 726.448 457.195 L 727.594 448.249 L 719.162 447.169 L 710.731 446.089 L 709.585 455.035 L 718.017 456.115 Z M 719.162 447.169 L 727.594 448.249 L 728.739 439.303 L 720.308 438.223 L 711.877 437.143 L 710.731 446.089 L 719.162 447.169 Z M 720.308 438.223 L 728.739 439.303 C 729.123 436.31 729.856 433.35 730.953 430.413 L 722.99 427.439 L 715.027 424.466 C 713.485 428.597 712.43 432.826 711.877 437.143 L 720.308 438.223 Z M 722.99 427.439 L 730.953 430.413 L 734.182 421.764 L 726.22 418.79 L 718.257 415.817 L 715.027 424.466 L 722.99 427.439 Z M 726.22 418.79 L 734.182 421.764 L 737.412 413.115 L 729.449 410.141 L 721.486 407.168 L 718.257 415.817 L 726.22 418.79 Z M 729.449 410.141 L 737.412 413.115 C 738.936 409.032 740.024 404.843 740.668 400.555 L 732.263 399.291 L 723.857 398.027 C 723.39 401.138 722.601 404.182 721.486 407.168 L 729.449 410.141 Z M 732.263 399.291 L 740.668 400.555 L 742.03 391.502 L 733.624 390.238 L 725.219 388.974 L 723.857 398.027 L 732.263 399.291 Z M 733.624 390.238 L 742.03 391.502 L 743.391 382.449 L 734.985 381.185 L 726.58 379.921 L 725.219 388.974 L 733.624 390.238 Z M 734.985 381.185 L 743.391 382.449 C 744.035 378.162 744.228 373.85 743.968 369.522 L 735.483 370.031 L 726.998 370.54 C 727.187 373.685 727.048 376.809 726.58 379.921 L 734.985 381.185 Z M 735.483 370.031 L 743.968 369.522 L 743.419 360.376 L 734.934 360.885 L 726.45 361.395 L 726.998 370.54 L 735.483 370.031 Z M 734.934 360.885 L 743.419 360.376 L 742.87 351.231 L 734.386 351.74 L 725.901 352.249 L 726.45 361.395 L 734.934 360.885 Z M 734.386 351.74 L 742.87 351.231 C 742.582 346.433 741.417 341.79 739.429 337.342 L 731.669 340.811 L 723.909 344.28 C 725.094 346.931 725.74 349.574 725.901 352.249 L 734.386 351.74 Z M 731.669 340.811 L 739.429 337.342 L 735.546 328.655 L 727.786 332.124 L 720.026 335.593 L 723.909 344.28 L 731.669 340.811 Z M 727.786 332.124 L 735.546 328.655 L 731.663 319.969 L 723.903 323.437 L 716.143 326.906 L 720.026 335.593 L 727.786 332.124 Z M 723.903 323.437 L 731.663 319.969 C 730.474 317.31 729.848 314.716 729.706 312.147 L 721.219 312.616 L 712.732 313.085 C 712.995 317.846 714.158 322.466 716.143 326.906 L 723.903 323.437 Z M 721.219 312.616 L 729.706 312.147 L 729.21 303.178 L 720.723 303.647 L 712.236 304.116 L 712.732 313.085 L 721.219 312.616 Z M 720.723 303.647 L 729.21 303.178 L 728.715 294.209 L 720.227 294.678 L 711.74 295.147 L 712.236 304.116 L 720.723 303.647 Z M 720.227 294.678 L 728.715 294.209 C 728.534 290.946 728.578 287.535 728.857 283.97 L 720.383 283.307 L 711.909 282.645 C 711.575 286.911 711.516 291.08 711.74 295.147 L 720.227 294.678 Z M 720.383 283.307 L 728.857 283.97 L 729.606 274.387 L 721.132 273.725 L 712.657 273.063 L 711.909 282.645 L 720.383 283.307 Z M 721.132 273.725 L 729.606 274.387 L 730.355 264.805 L 721.881 264.142 L 713.406 263.48 L 712.657 273.063 L 721.132 273.725 Z M 721.881 264.142 L 730.355 264.805 C 730.78 259.371 729.774 254.141 727.273 249.318 L 719.727 253.23 L 712.181 257.142 C 713.164 259.038 713.594 261.083 713.406 263.48 L 721.881 264.142 Z M 719.727 253.23 L 727.273 249.318 L 723.011 241.096 L 715.465 245.009 L 707.919 248.921 L 712.181 257.142 L 719.727 253.23 Z M 715.465 245.009 L 723.011 241.096 L 718.749 232.875 L 711.202 236.787 L 703.656 240.699 L 707.919 248.921 L 715.465 245.009 Z M 711.202 236.787 L 718.749 232.875 C 717.133 229.758 715.686 226.6 714.406 223.4 L 706.514 226.556 L 698.621 229.712 C 700.11 233.435 701.789 237.097 703.656 240.699 L 711.202 236.787 Z M 706.514 226.556 L 714.406 223.4 L 711.018 214.928 L 703.126 218.084 L 695.234 221.239 L 698.621 229.712 L 706.514 226.556 Z M 703.126 218.084 L 711.018 214.928 L 707.631 206.456 L 699.738 209.611 L 691.846 212.767 L 695.234 221.239 L 703.126 218.084 Z M 699.738 209.611 L 707.631 206.456 C 706.211 202.905 704.727 199.367 703.178 195.842 L 695.396 199.26 L 687.614 202.679 C 689.087 206.032 690.497 209.395 691.846 212.767 L 699.738 209.611 Z M 695.396 199.26 L 703.178 195.842 L 699.48 187.425 L 691.698 190.844 L 683.916 194.263 L 687.614 202.679 L 695.396 199.26 Z M 691.698 190.844 L 699.48 187.425 L 695.783 179.008 L 688.001 182.427 L 680.219 185.846 L 683.916 194.263 L 691.698 190.844 Z M 688.001 182.427 L 695.783 179.008 C 694.084 175.142 692.079 171.439 689.77 167.904 L 682.654 172.553 L 675.538 177.202 C 677.336 179.955 678.896 182.834 680.219 185.846 L 688.001 182.427 Z M 682.654 172.553 L 689.77 167.904 L 684.743 160.21 L 677.627 164.859 L 670.511 169.508 L 675.538 177.202 L 682.654 172.553 Z M 677.627 164.859 L 684.743 160.21 L 679.717 152.516 L 672.601 157.165 L 665.485 161.814 L 670.511 169.508 L 677.627 164.859 Z M 672.601 157.165 L 679.717 152.516 C 677.089 148.495 673.791 145.04 669.879 142.167 L 664.847 149.018 L 659.815 155.868 C 662.134 157.571 664.004 159.549 665.485 161.814 L 672.601 157.165 Z M 664.847 149.018 L 669.879 142.167 L 662.255 136.567 L 657.223 143.417 L 652.191 150.268 L 659.815 155.868 L 664.847 149.018 Z M 657.223 143.417 L 662.255 136.567 L 654.631 130.967 L 649.599 137.817 L 644.567 144.668 L 652.191 150.268 L 657.223 143.417 Z M 649.599 137.817 L 654.631 130.967 C 651.995 129.03 649.7 126.922 647.723 124.65 L 641.311 130.231 L 634.9 135.811 C 637.743 139.078 640.974 142.028 644.567 144.668 L 649.599 137.817 Z M 641.311 130.231 L 647.723 124.65 L 641.824 117.873 L 635.412 123.453 L 629.001 129.034 L 634.9 135.811 L 641.311 130.231 Z M 635.412 123.453 L 641.824 117.873 L 635.925 111.095 L 629.513 116.676 L 623.102 122.256 L 629.001 129.034 L 635.412 123.453 Z M 629.513 116.676 L 635.925 111.095 C 633.776 108.627 631.757 105.957 629.869 103.081 L 622.762 107.743 L 615.656 112.406 C 617.948 115.901 620.43 119.187 623.102 122.256 L 629.513 116.676 Z M 622.762 107.743 L 629.869 103.081 L 624.754 95.284 L 617.647 99.947 L 610.54 104.61 L 615.656 112.406 L 622.762 107.743 Z M 617.647 99.947 L 624.754 95.284 L 619.639 87.488 L 612.532 92.151 L 605.425 96.814 L 610.54 104.61 L 617.647 99.947 Z M 612.532 92.151 L 619.639 87.488 C 617.181 83.742 614.323 80.343 611.069 77.306 L 605.27 83.521 L 599.47 89.735 C 601.72 91.834 603.703 94.188 605.425 96.814 L 612.532 92.151 Z M 605.27 83.521 L 611.069 77.306 L 604.335 71.022 L 598.536 77.236 L 592.736 83.45 L 599.47 89.735 L 605.27 83.521 Z M 598.536 77.236 L 604.335 71.022 L 597.601 64.737 L 591.801 70.951 L 586.002 77.166 L 592.736 83.45 L 598.536 77.236 Z M 591.801 70.951 L 597.601 64.737 C 594.475 61.82 591.111 59.206 587.514 56.898 L 582.925 64.053 L 578.335 71.208 C 581.071 72.962 583.625 74.947 586.002 77.166 L 591.801 70.951 Z M 582.925 64.053 L 587.514 56.898 L 579.765 51.928 L 575.176 59.083 L 570.586 66.238 L 578.335 71.208 L 582.925 64.053 Z M 575.176 59.083 L 579.765 51.928 L 572.016 46.958 L 567.426 54.112 L 562.837 61.267 L 570.586 66.238 L 575.176 59.083 Z M 567.426 54.112 L 572.016 46.958 C 567.778 44.24 563.077 42.533 558.023 41.789 L 556.784 50.198 L 555.545 58.607 C 558.348 59.02 560.742 59.923 562.837 61.267 L 567.426 54.112 Z M 556.784 50.198 L 558.023 41.789 L 548.409 40.372 L 547.17 48.781 L 545.931 57.19 L 555.545 58.607 L 556.784 50.198 Z M 547.17 48.781 L 548.409 40.372 L 538.794 38.955 L 537.555 47.364 L 536.316 55.773 L 545.931 57.19 L 547.17 48.781 Z M 537.555 47.364 L 538.794 38.955 C 536.051 38.551 533.788 37.653 531.861 36.336 L 527.065 43.354 L 522.269 50.371 C 526.472 53.244 531.202 55.02 536.316 55.773 L 537.555 47.364 Z M 527.065 43.354 L 531.861 36.336 L 524.36 31.209 L 519.563 38.227 L 514.767 45.245 L 522.269 50.371 L 527.065 43.354 Z M 519.563 38.227 L 524.36 31.209 L 516.858 26.083 L 512.062 33.1 L 507.266 40.118 L 514.767 45.245 L 519.563 38.227 Z M 512.062 33.1 L 516.858 26.083 C 513.386 23.709 509.734 21.655 505.908 19.922 L 502.402 27.666 L 498.896 35.409 C 501.82 36.733 504.608 38.301 507.266 40.118 L 512.062 33.1 Z M 502.402 27.666 L 505.908 19.922 L 497.649 16.182 L 494.142 23.925 L 490.636 31.669 L 498.896 35.409 L 502.402 27.666 Z M 494.142 23.925 L 497.649 16.182 L 489.389 12.442 L 485.883 20.185 L 482.376 27.928 L 490.636 31.669 L 494.142 23.925 Z M 485.883 20.185 L 489.389 12.442 C 486.097 10.952 482.788 9.389 479.46 7.754 L 475.711 15.382 L 471.963 23.011 C 475.447 24.723 478.918 26.362 482.376 27.928 L 485.883 20.185 Z M 475.711 15.382 L 479.46 7.754 L 471.124 3.657 L 467.376 11.286 L 463.627 18.915 L 471.963 23.011 L 475.711 15.382 Z M 467.376 11.286 L 471.124 3.657 L 462.789 -0.439 L 459.04 7.19 L 455.291 14.819 L 463.627 18.915 L 467.376 11.286 Z M 459.04 7.19 L 462.789 -0.439 C 458.654 -2.47 454.315 -3.877 449.792 -4.644 L 448.371 3.736 L 446.949 12.117 C 449.841 12.607 452.614 13.503 455.291 14.819 L 459.04 7.19 Z M 448.371 3.736 L 449.792 -4.644 L 440.72 -6.183 L 439.299 2.197 L 437.878 10.578 L 446.949 12.117 L 448.371 3.736 Z M 439.299 2.197 L 440.72 -6.183 L 431.649 -7.722 L 430.227 0.659 L 428.806 9.039 L 437.878 10.578 L 439.299 2.197 Z M 430.227 0.659 L 431.649 -7.722 C 427.632 -8.403 423.594 -8.859 419.536 -9.09 L 419.053 -0.604 L 418.571 7.883 C 421.998 8.078 425.409 8.463 428.806 9.039 L 430.227 0.659 Z M 419.053 -0.604 L 419.536 -9.09 L 410.377 -9.611 L 409.894 -1.124 L 409.412 7.362 L 418.571 7.883 L 419.053 -0.604 Z M 409.894 -1.124 L 410.377 -9.611 L 401.218 -10.131 L 400.735 -1.645 L 400.253 6.841 L 409.412 7.362 L 409.894 -1.124 Z M 400.735 -1.645 L 401.218 -10.131 C 396.761 -10.385 392.316 -10.078 387.9 -9.221 L 389.521 -0.877 L 391.141 7.468 C 394.193 6.875 397.225 6.669 400.253 6.841 L 400.735 -1.645 Z M 389.521 -0.877 L 387.9 -9.221 L 378.763 -7.446 L 380.383 0.898 L 382.004 9.242 L 391.141 7.468 L 389.521 -0.877 Z M 380.383 0.898 L 378.763 -7.446 L 369.625 -5.671 L 371.245 2.673 L 372.866 11.017 L 382.004 9.242 L 380.383 0.898 Z M 371.245 2.673 L 369.625 -5.671 C 367.186 -5.198 364.745 -5.279 362.203 -5.958 L 360.009 2.254 L 357.814 10.466 C 362.787 11.795 367.838 11.993 372.866 11.017 L 371.245 2.673 Z M 360.009 2.254 L 362.203 -5.958 L 353.007 -8.416 L 350.813 -0.204 L 348.618 8.008 L 357.814 10.466 L 360.009 2.254 Z M 350.813 -0.204 L 353.007 -8.416 L 343.812 -10.873 L 341.617 -2.662 L 339.422 5.55 L 348.618 8.008 L 350.813 -0.204 Z M 341.617 -2.662 L 343.812 -10.873 C 338.261 -12.357 332.682 -12.002 327.375 -9.796 L 330.637 -1.947 L 333.899 5.902 C 335.717 5.146 337.458 5.025 339.422 5.55 L 341.617 -2.662 Z M 330.637 -1.947 L 327.375 -9.796 L 318.656 -6.172 L 321.918 1.677 L 325.18 9.526 L 333.899 5.902 L 330.637 -1.947 Z M 321.918 1.677 L 318.656 -6.172 L 309.936 -2.549 L 313.198 5.3 L 316.461 13.15 L 325.18 9.526 L 321.918 1.677 Z M 313.198 5.3 L 309.936 -2.549 C 307.174 -1.401 304.417 -0.739 301.639 -0.526 L 302.29 7.949 L 302.942 16.424 C 307.582 16.067 312.098 14.963 316.461 13.15 L 313.198 5.3 Z M 302.29 7.949 L 301.639 -0.526 L 292.56 0.173 L 293.212 8.648 L 293.864 17.123 L 302.942 16.424 L 302.29 7.949 Z M 293.212 8.648 L 292.56 0.173 L 283.482 0.871 L 284.134 9.346 L 284.786 17.821 L 293.864 17.123 L 293.212 8.648 Z M 284.134 9.346 L 283.482 0.871 C 278.713 1.238 274.145 2.471 269.829 4.551 L 273.518 12.208 L 277.208 19.866 C 279.628 18.7 282.136 18.025 284.786 17.821 L 284.134 9.346 Z M 273.518 12.208 L 269.829 4.551 L 261.587 8.522 L 265.277 16.18 L 268.966 23.837 L 277.208 19.866 L 273.518 12.208 Z M 265.277 16.18 L 261.587 8.522 L 253.345 12.493 L 257.035 20.151 L 260.724 27.808 L 268.966 23.837 L 265.277 16.18 Z M 257.035 20.151 L 253.345 12.493 C 251.013 13.617 248.48 14.278 245.67 14.445 L 246.174 22.93 L 246.678 31.415 C 251.614 31.122 256.321 29.93 260.724 27.808 L 257.035 20.151 Z M 246.174 22.93 L 245.67 14.445 L 236.192 15.008 L 236.696 23.493 L 237.201 31.978 L 246.678 31.415 L 246.174 22.93 Z M 236.696 23.493 L 236.192 15.008 L 226.714 15.572 L 227.218 24.057 L 227.723 32.542 L 237.201 31.978 L 236.696 23.493 Z M 227.218 24.057 L 226.714 15.572 C 220.941 15.915 215.745 18.064 211.425 21.911 L 217.078 28.259 L 222.73 34.607 C 224.186 33.311 225.751 32.659 227.723 32.542 L 227.218 24.057 Z M 217.078 28.259 L 211.425 21.911 L 204.357 28.204 L 210.01 34.552 L 215.662 40.9 L 222.73 34.607 L 217.078 28.259 Z M 210.01 34.552 L 204.357 28.204 L 197.29 34.497 L 202.942 40.846 L 208.595 47.194 L 215.662 40.9 L 210.01 34.552 Z M 202.942 40.846 L 197.29 34.497 C 195.551 36.045 193.572 37.034 191.192 37.505 L 192.84 45.843 L 194.489 54.182 C 199.802 53.132 204.557 50.789 208.595 47.194 L 202.942 40.846 Z M 192.84 45.843 L 191.192 37.505 L 181.777 39.366 L 183.426 47.704 L 185.074 56.043 L 194.489 54.182 L 192.84 45.843 Z M 183.426 47.704 L 181.777 39.366 L 172.363 41.227 L 174.011 49.566 L 175.66 57.904 L 185.074 56.043 L 183.426 47.704 Z M 174.011 49.566 L 172.363 41.227 C 166.215 42.442 161.249 45.868 157.838 51.095 L 164.957 55.74 L 172.075 60.385 C 173.044 58.9 174.114 58.21 175.66 57.904 L 174.011 49.566 Z M 164.957 55.74 L 157.838 51.095 L 152.479 59.307 L 159.598 63.952 L 166.716 68.598 L 172.075 60.385 L 164.957 55.74 Z M 159.598 63.952 L 152.479 59.307 L 147.12 67.52 L 154.238 72.165 L 161.357 76.81 L 166.716 68.598 L 159.598 63.952 Z M 154.238 72.165 L 147.12 67.52 C 145.451 70.078 143.581 72.025 141.542 73.487 L 146.494 80.395 L 151.446 87.304 C 155.353 84.503 158.646 80.964 161.357 76.81 L 154.238 72.165 Z M 146.494 80.395 L 141.542 73.487 L 134.265 78.702 L 139.217 85.611 L 144.169 92.52 L 151.446 87.304 L 146.494 80.395 Z M 139.217 85.611 L 134.265 78.702 L 126.989 83.918 L 131.94 90.827 L 136.892 97.735 L 144.169 92.52 L 139.217 85.611 Z M 131.94 90.827 L 126.989 83.918 C 123.879 86.147 120.829 88.472 117.837 90.895 L 123.187 97.5 L 128.536 104.106 C 131.27 101.892 134.055 99.769 136.892 97.735 L 131.94 90.827 Z M 123.187 97.5 L 117.837 90.895 L 110.832 96.568 L 116.182 103.174 L 121.531 109.779 L 128.536 104.106 L 123.187 97.5 Z M 116.182 103.174 L 110.832 96.568 L 103.827 102.241 L 109.176 108.847 L 114.526 115.452 L 121.531 109.779 L 116.182 103.174 Z M 109.176 108.847 L 103.827 102.241 C 100.518 104.921 97.51 107.908 94.81 111.198 L 101.38 116.591 L 107.949 121.985 C 109.92 119.584 112.11 117.409 114.526 115.452 L 109.176 108.847 Z M 101.38 116.591 L 94.81 111.198 L 89.094 118.16 L 95.664 123.553 L 102.234 128.947 L 107.949 121.985 L 101.38 116.591 Z M 95.664 123.553 L 89.094 118.16 L 83.378 125.122 L 89.948 130.516 L 96.518 135.909 L 102.234 128.947 L 95.664 123.553 Z M 89.948 130.516 L 83.378 125.122 C 81.366 127.574 79.11 129.875 76.602 132.026 L 82.135 138.479 L 87.669 144.931 C 90.907 142.154 93.86 139.147 96.518 135.909 L 89.948 130.516 Z M 82.135 138.479 L 76.602 132.026 L 69.571 138.057 L 75.104 144.509 L 80.638 150.961 L 87.669 144.931 L 82.135 138.479 Z M 75.104 144.509 L 69.571 138.057 L 62.539 144.087 L 68.073 150.539 L 73.606 156.991 L 80.638 150.961 L 75.104 144.509 Z M 68.073 150.539 L 62.539 144.087 C 58.535 147.521 55.612 151.789 53.846 156.762 L 61.857 159.606 L 69.867 162.449 C 70.643 160.261 71.864 158.485 73.606 156.991 L 68.073 150.539 Z M 61.857 159.606 L 53.846 156.762 L 50.735 165.525 L 58.746 168.369 L 66.756 171.212 L 69.867 162.449 L 61.857 159.606 Z M 58.746 168.369 L 50.735 165.525 L 47.625 174.288 L 55.635 177.132 L 63.645 179.976 L 66.756 171.212 L 58.746 168.369 Z M 55.635 177.132 L 47.625 174.288 C 46.605 177.16 45.254 179.776 43.575 182.163 L 50.527 187.054 L 57.479 191.944 C 60.068 188.264 62.122 184.265 63.645 179.976 L 55.635 177.132 Z M 50.527 187.054 L 43.575 182.163 L 38.352 189.588 L 45.304 194.479 L 52.257 199.369 L 57.479 191.944 L 50.527 187.054 Z M 45.304 194.479 L 38.352 189.588 L 33.129 197.013 L 40.081 201.904 L 47.034 206.794 L 52.257 199.369 L 45.304 194.479 Z M 40.081 201.904 L 33.129 197.013 C 30.735 200.416 28.626 203.989 26.802 207.727 L 34.442 211.454 L 42.081 215.18 C 43.509 212.253 45.159 209.459 47.034 206.794 L 40.081 201.904 Z M 34.442 211.454 L 26.802 207.727 L 22.824 215.884 L 30.463 219.61 L 38.103 223.337 L 42.081 215.18 L 34.442 211.454 Z M 30.463 219.61 L 22.824 215.884 L 18.845 224.041 L 26.485 227.767 L 34.124 231.494 L 38.103 223.337 L 30.463 219.61 Z M 26.485 227.767 L 18.845 224.041 C 17.161 227.493 15.554 230.995 14.023 234.545 L 21.828 237.91 L 29.634 241.276 C 31.06 237.967 32.557 234.707 34.124 231.494 L 26.485 227.767 Z M 21.828 237.91 L 14.023 234.545 L 10.404 242.937 L 18.209 246.303 L 26.015 249.668 L 29.634 241.276 L 21.828 237.91 Z M 18.209 246.303 L 10.404 242.937 L 6.785 251.329 L 14.591 254.695 L 22.396 258.061 L 26.015 249.668 L 18.209 246.303 Z M 14.591 254.695 L 6.785 251.329 C 4.765 256.016 3.924 260.985 4.217 266.118 L 12.703 265.634 L 21.19 265.15 C 21.042 262.556 21.46 260.232 22.396 258.061 L 14.591 254.695 Z M 12.703 265.634 L 4.217 266.118 L 4.757 275.574 L 13.243 275.089 L 21.729 274.605 L 21.19 265.15 L 12.703 265.634 Z M 13.243 275.089 L 4.757 275.574 L 5.296 285.029 L 13.783 284.545 L 22.269 284.06 L 21.729 274.605 L 13.243 275.089 Z M 13.783 284.545 L 5.296 285.029 C 5.444 287.619 5.027 289.978 4.073 292.217 L 11.892 295.55 L 19.712 298.883 C 21.719 294.175 22.562 289.197 22.269 284.06 L 13.783 284.545 Z M 11.892 295.55 L 4.073 292.217 L 0.45 300.717 L 8.269 304.05 L 16.088 307.383 L 19.712 298.883 L 11.892 295.55 Z M 8.269 304.05 L 0.45 300.717 L -3.174 309.217 L 4.646 312.55 L 12.465 315.883 L 16.088 307.383 L 8.269 304.05 Z M 4.646 312.55 L -3.174 309.217 C -4.994 313.488 -6.127 317.934 -6.551 322.525 L 1.913 323.306 L 10.377 324.087 C 10.636 321.284 11.324 318.558 12.465 315.883 L 4.646 312.55 Z M 1.913 323.306 L -6.551 322.525 L -7.386 331.573 L 1.078 332.355 L 9.542 333.136 L 10.377 324.087 L 1.913 323.306 Z M 1.078 332.355 L -7.386 331.573 L -8.221 340.622 L 0.243 341.403 L 8.707 342.184 L 9.542 333.136 L 1.078 332.355 Z M 0.243 341.403 L -8.221 340.622 C -8.617 344.912 -8.49 349.118 -7.406 352.906 L 0.766 350.569 L 8.938 348.231 C 8.642 347.193 8.42 345.289 8.707 342.184 L 0.243 341.403 Z M 0.766 350.569 L -7.406 352.906 L -5.717 358.812 L 2.456 356.475 L 10.628 354.137 L 8.938 348.231 L 0.766 350.569 Z M 2.456 356.475 L -5.717 358.812 L -4.027 364.718 L 4.145 362.38 L 12.317 360.043 L 10.628 354.137 L 2.456 356.475 Z M 4.145 362.38 L -4.027 364.718 C -3.716 365.805 -3.815 365.802 -3.824 365.215 C -3.826 365.032 -3.872 363.537 -2.949 361.795 C -2.417 360.791 -1.508 359.609 -0.059 358.714 C 1.407 357.807 2.931 357.5 4.196 357.5 L 4.196 366 L 4.196 374.5 C 5.625 374.5 7.292 374.156 8.881 373.173 C 10.451 372.202 11.461 370.907 12.073 369.753 C 13.156 367.709 13.186 365.761 13.175 364.975 C 13.149 363.182 12.696 361.369 12.317 360.043 L 4.145 362.38 Z M 4.196 366 L 4.196 357.5 L 2.59 357.5 L 2.59 366 L 2.59 374.5 L 4.196 374.5 L 4.196 366 Z M 2.59 366 L 2.59 357.5 L 0.984 357.5 L 0.984 366 L 0.984 374.5 L 2.59 374.5 L 2.59 366 Z M 0.984 366 L 0.984 357.5 C -4.041 357.5 -6.407 361.274 -7.053 362.58 C -7.773 364.035 -8.014 365.452 -8.12 366.21 C -8.358 367.904 -8.361 369.905 -8.288 371.871 L 0.206 371.556 L 8.7 371.241 C 8.67 370.431 8.665 369.795 8.675 369.312 C 8.681 369.073 8.689 368.89 8.699 368.757 C 8.708 368.621 8.716 368.563 8.715 368.568 C 8.715 368.573 8.71 368.603 8.7 368.656 C 8.691 368.707 8.673 368.793 8.644 368.906 C 8.594 369.098 8.467 369.547 8.186 370.114 C 7.924 370.644 7.338 371.67 6.19 372.623 C 4.903 373.694 3.097 374.5 0.984 374.5 L 0.984 366 Z M 0.206 371.556 L -8.288 371.871 L -7.952 380.936 L 0.542 380.621 L 9.036 380.306 L 8.7 371.241 L 0.206 371.556 Z" fill="currentColor" fill-rule="nonzero"></path>
</svg>