<svg xmlns="http://www.w3.org/2000/svg" width="119" height="86" viewBox="0 0 119 86" fill="none">
  <path d="M 118.673 -0.664 C 119.437 0.865 120.048 2.439 120.445 4.132 C 120.536 4.517 120.32 4.545 120.335 4.711 C 120.362 5.015 120.731 5.425 120.752 5.492 C 120.884 5.908 120.475 5.856 120.478 5.917 C 120.526 6.587 120.879 6.28 121.103 6.866 C 121.169 7.037 121.232 7.221 121.292 7.414 L 122.023 9.615 L 119.74 10.407 C 119.079 10.624 118.315 10.824 117.6 11.048 C 117.276 11.149 117.324 10.83 116.638 11.091 C 116.15 11.274 114.755 12.11 113.948 12.036 C 113.899 11.914 113.937 11.746 113.928 11.605 C 113.123 12.482 112.768 12.584 111.326 12.995 C 111.1 13.06 110.97 13.351 110.555 13.425 C 110.143 13.499 109.991 13.184 109.221 13.499 C 108.947 13.613 108.871 13.908 108.458 14.09 C 107.28 14.604 104.909 15.318 103.951 15.763 C 102.056 16.635 101.246 17.515 99.566 18.26 C 99.437 18.318 99.58 17.934 99.351 18.054 C 99.119 18.174 99.054 18.618 99.002 18.656 C 98.445 19.067 96.949 19.399 96.649 19.655 C 95.935 20.264 96.787 19.911 95.743 20.657 C 94.907 21.258 93.612 21.764 92.622 22.323 L 92.642 22.308 C 92.458 22.416 92.286 22.523 92.13 22.63 C 90.975 23.442 91.109 24.234 89.873 24.442 C 87.267 27.009 85.163 30.099 84.506 33.5 C 84.371 33.462 84.236 33.422 84.102 33.381 C 84.139 33.677 84.186 33.968 84.241 34.254 C 84.144 34.198 84.047 34.143 83.951 34.085 C 84.055 34.811 84.166 35.462 84.25 36.137 C 84.327 36.752 84.374 37.381 84.41 38.09 C 84.411 38.119 84.125 38.076 84.121 38.101 C 84.111 38.455 84.384 38.8 84.393 39.101 C 84.395 39.827 84.215 41.209 84.754 40.459 C 85.099 42.13 86.329 43.709 87.315 44.96 C 87.324 44.971 87.332 44.983 87.34 44.994 L 87.304 44.957 C 87.756 45.514 87.625 45.973 87.865 46.238 C 88.11 46.506 88.237 46.104 88.34 46.182 C 88.954 46.651 89.886 47.502 89.711 47.908 C 89.939 47.884 90.175 47.862 90.405 47.835 C 90.022 48.137 91.982 49.523 92.475 49.908 C 92.564 49.981 92.449 50.153 92.519 50.204 C 93.299 50.776 93.683 50.66 94.408 51.062 C 94.664 51.202 94.087 51.231 94.78 51.542 C 94.837 51.566 94.98 51.325 95.577 51.702 L 95.526 51.667 C 95.576 51.696 95.628 51.728 95.683 51.764 C 96.931 52.563 99.314 54.154 100.547 55.449 C 100.648 55.553 100.084 55.535 100.638 55.904 C 100.837 56.04 100.919 55.773 101.355 56.16 C 102.315 57.015 103.205 58.015 104.083 59.017 C 104.802 59.833 105.448 60.707 106.069 61.589 C 105.772 61.648 105.077 61.071 105.865 62.1 C 105.988 62.269 106.141 62.014 106.193 62.092 C 106.613 62.741 106.709 63.419 107.068 64.157 C 107.174 64.377 107.383 64.372 107.518 64.652 C 107.714 65.068 107.491 65.333 107.726 65.808 C 108.08 66.554 108.38 66.662 107.983 67.719 C 108.092 68.585 108.145 69.451 108.154 70.313 C 108.314 74.885 106.204 79.725 102.608 82.558 L 102.637 82.531 C 102.504 82.647 102.37 82.761 102.233 82.872 C 101.112 84.065 99.906 85.075 98.357 85.869 C 97.896 86.098 97.67 85.811 96.967 86.21 C 96.819 86.307 95.696 87.081 95.32 86.415 C 95.001 86.569 94.786 86.625 94.502 86.731 C 94.749 86.784 95.005 86.832 95.248 86.879 C 93.975 87.096 92.994 87.518 91.872 87.762 C 91.046 87.93 91.61 87.563 91.105 87.636 C 90.603 87.702 90.365 87.786 89.73 87.427 C 89.516 87.623 89.33 87.673 89.11 87.665 C 88.832 87.655 88.509 87.556 87.999 87.528 C 87.903 87.524 87.324 87.665 86.851 87.589 C 86.509 87.533 86.438 87.258 85.896 87.234 C 85.812 87.235 84.621 87.395 84.248 87.346 C 83.666 87.287 82.861 86.728 82.76 86.693 C 81.241 86.21 80.523 86.289 79.697 85.334 C 79.358 85.555 78.396 85.336 77.729 84.937 C 76.857 84.449 75.642 82.822 75.019 83.246 C 74.307 82.322 74.284 82.564 73.264 81.719 C 72.305 80.966 70.333 78.492 69.729 77.762 C 69.684 77.711 69.642 77.667 69.603 77.629 L 69.575 77.594 C 69.081 77.073 69.027 77.584 68.775 77.327 C 68.333 76.869 68.773 76.971 68.522 76.624 C 67.817 75.638 67.209 74.776 66.523 73.827 C 66.674 73.671 66.824 73.51 66.975 73.353 C 66.885 73.335 66.796 73.317 66.706 73.299 C 66.589 73.081 66.454 72.839 66.354 72.633 C 66.459 74.781 65.517 70.937 65.161 69.878 C 64.804 68.995 63.848 67.639 63.45 66.643 C 63.353 66.403 63.62 66.507 63.599 66.458 C 63.361 65.883 63.184 65.835 62.988 65.021 C 62.888 64.59 63.055 64.086 62.966 63.67 C 62.312 60.612 61.702 57.63 61.595 54.527 C 61.579 54.046 61.858 53.629 61.915 53.225 C 61.921 53.184 61.925 53.143 61.926 53.102 C 61.939 52.469 61.665 52.067 61.682 51.468 C 61.697 50.873 62.084 50.037 62.065 49.635 C 62.046 49.23 61.665 49.893 61.814 49.163 C 61.884 48.829 62.075 49.445 62.118 49.03 C 62.249 47.74 62.202 45.86 62.758 44.547 C 62.675 44.594 62.595 44.664 62.513 44.725 C 62.817 43.269 63.29 42.032 63.741 40.575 C 63.898 40.066 63.989 39.081 64.165 38.582 C 64.34 38.084 64.64 37.938 64.794 37.548 C 64.858 37.388 64.64 37.377 64.686 37.27 C 65.266 35.931 65.919 35.35 66.535 33.975 C 68.725 29.132 71.944 24.604 75.664 20.698 C 75.818 20.535 75.974 20.373 76.131 20.212 C 76.288 20.05 76.209 19.749 76.42 19.492 C 76.745 19.095 76.928 19.253 76.983 19.212 C 77.342 18.948 77.06 18.907 77.497 18.506 C 78.461 17.613 80.194 16.395 81.204 15.58 C 83.525 13.693 85.468 12.076 87.893 10.413 C 88.067 10.293 88.116 10.64 88.428 10.45 C 90.64 9.132 90.951 8.581 93.816 7.129 C 96.671 5.662 102.224 3.318 105.712 2.023 C 105.713 2.023 105.713 2.024 105.713 2.025 C 106.591 1.041 108.067 0.638 109.404 0.63 C 103.116 4.48 96.579 6.648 89.957 10.695 C 85.161 13.643 80.71 17.606 76.843 21.874 C 75.12 23.77 73.513 25.724 71.992 27.705 C 71.53 28.309 71.076 28.369 70.767 28.942 C 70.715 29.039 71.089 28.953 70.922 29.244 C 68.635 33.202 66.016 37.42 65.001 41.862 C 64.734 43.051 64.975 43.305 64.827 44.355 C 64.731 44.145 64.616 43.995 64.517 43.806 C 63.571 46.832 63.227 50.033 63.234 53.225 C 63.237 54.981 63.332 56.737 63.498 58.496 C 63.519 58.721 63.241 58.781 63.258 59.018 C 63.292 59.494 63.661 59.9 63.732 60.307 C 63.826 60.835 63.62 60.965 63.719 61.454 C 63.769 61.691 63.968 61.583 64.03 62.106 C 64.036 62.15 63.817 62.221 63.916 62.562 C 64.176 63.496 64.852 65.349 65.15 66.084 C 65.516 67.027 65.474 67.904 65.589 68.275 C 65.907 69.271 66.227 69.119 66.572 69.921 C 67.657 72.39 68.947 74.721 70.496 76.891 C 72.615 79.662 75.201 82.189 78.476 83.908 C 78.838 84.112 80.358 84.395 81.046 84.656 C 81.271 84.759 82.478 85.267 82.669 85.32 C 83.423 85.572 84.046 85.948 84.476 86.083 C 85.31 86.348 86.317 86.1 86.776 86.103 C 87.452 86.119 88.556 86.188 89.11 86.197 C 89.224 86.201 89.313 86.203 89.371 86.204 C 90.193 86.212 89.938 86.673 90.532 86.54 C 90.707 86.497 90.506 86.164 91.118 86.119 C 91.63 86.078 91.865 86.315 92.228 86.318 C 92.592 86.322 93.172 85.817 93.385 85.785 C 94.517 85.619 95.087 85.756 96.301 85.356 C 97.407 85.195 101.459 82.402 101.566 81.928 C 101.657 81.796 101.722 81.69 101.767 81.609 C 101.927 81.331 101.841 81.344 101.652 81.486 C 101.29 81.787 100.457 82.549 100.364 82.597 C 99.589 83.06 99.619 82.842 99.023 83.58 C 97.934 83.191 95.954 85.638 94.895 84.688 C 94.401 85.619 93.677 85.387 92.904 85.36 C 91.826 85.309 92.691 85.634 91.915 85.737 C 91.606 85.777 90.694 85.507 90.242 85.57 C 89.822 85.632 89.631 85.869 89.11 85.917 C 89.067 85.92 89.022 85.923 88.975 85.924 C 87.865 85.943 86.969 85.751 86.101 85.32 C 85.917 85.439 85.741 85.557 85.553 85.671 C 84.94 85.426 84.34 85.155 83.763 84.861 C 83.832 85.004 83.903 85.148 83.975 85.291 C 83.789 85.267 83.601 85.239 83.415 85.21 C 82.855 84.876 82.339 84.542 81.811 84.155 C 79.956 84.226 80.635 83.809 79.818 83.344 C 79.009 82.857 78.333 82.95 77.691 82.569 C 76.838 82.049 76.428 81.83 75.636 81.2 C 75.176 80.834 74.669 79.888 74.9 80.896 C 73.456 79.816 71.602 78.137 70.747 76.696 C 70.731 76.666 70.714 76.635 70.697 76.603 C 70.464 76.17 71.012 76.568 70.982 76.486 C 70.828 76.09 70.364 76.003 70.155 75.628 C 69.803 75.009 69.275 73.723 69.053 73.219 C 68.719 72.504 67.773 71.597 67.69 71.49 C 67.214 70.923 67.448 70.596 67.329 70.399 C 66.658 69.27 66.426 69.036 66.951 68.391 C 66.529 68.206 65.542 67.035 65.947 66.539 C 65.486 66.683 65.202 65.525 64.901 64.849 C 64.999 64.682 65.097 64.513 65.199 64.348 C 63.96 63.089 64.012 59.927 63.952 57.944 C 63.95 57.894 63.583 57.838 63.637 57.528 C 63.642 57.508 63.805 57.525 63.81 57.323 C 63.803 56.648 64.108 54.106 64.123 53.819 C 64.124 53.584 64.112 53.39 64.093 53.225 C 64.028 52.643 63.865 52.417 63.859 51.907 C 63.853 51.046 64.101 50.934 64.118 50.121 C 64.129 49.741 63.837 49.366 63.94 48.769 C 64.002 48.415 64.255 48.407 64.306 48.13 C 64.492 47.148 64.446 46.393 64.92 45.578 C 64.176 45.21 64.831 44.894 64.977 44.479 C 65.563 42.791 65.843 40.577 66.43 39.156 C 68.247 34.732 70.766 31.307 73.633 27.749 C 74.103 27.173 73.903 26.783 74.425 26.19 C 74.662 25.923 75.114 25.835 75.498 25.402 C 75.803 25.058 76.141 24.463 76.537 24.041 C 76.643 23.929 76.85 24.104 77.007 23.941 C 77.321 23.616 77.625 23.29 77.929 22.957 C 78.775 22.03 79.597 21.077 80.498 20.151 C 80.95 19.686 81.492 19.698 81.001 19.295 C 81.29 19.249 81.559 19.196 81.834 19.163 C 82.268 18.286 83.093 18.144 83.983 17.329 C 84.079 17.238 84.543 16.342 85.151 16.285 C 85.049 16.083 84.872 15.979 84.764 15.807 C 85.127 15.433 85.928 15.178 86.224 15.003 C 86.523 14.825 86.55 14.455 86.635 14.393 C 86.962 14.16 87.099 14.528 87.128 14.516 C 88.866 13.784 88.587 13.736 89.229 12.647 C 89.388 12.369 91.233 11.73 91.341 11.149 C 91.45 11.299 91.441 11.492 91.504 11.659 C 92.018 11.41 92.544 11.161 93.065 10.92 C 92.872 10.826 92.659 10.744 92.472 10.646 C 93.567 10.197 94.227 9.363 95.09 8.921 C 95.581 8.671 95.703 9.049 95.951 8.824 C 95.999 8.78 95.782 8.595 95.94 8.49 C 97.228 7.635 97.96 7.585 99.368 6.974 C 100.03 6.69 100.4 5.989 101.478 5.852 C 101.578 5.839 102.67 5.82 103.007 5.013 C 103.266 5.112 103.467 5.136 103.667 5.227 C 104.488 3.9 104.504 4.85 106.17 4.405 C 107.027 4.17 109.751 2.968 110.632 2.559 C 111.152 2.31 111.024 1.978 111.116 1.931 C 111.669 1.649 111.785 1.974 112.3 1.736 C 112.816 1.498 113.376 0.897 113.94 0.748 C 114.373 0.634 114.171 1.151 114.754 0.803 C 114.874 0.731 114.391 0.505 115.097 0.426 C 115.207 0.413 116.386 0.45 116.631 0.464 C 116.135 0.856 114.621 1.657 114.05 1.947 C 104.652 6.333 86.648 15.064 78.626 23.652 C 78.119 24.147 77.645 24.626 77.201 25.09 C 76.484 25.842 75.757 26.113 75.293 26.614 C 74.831 27.119 75.462 26.893 75.05 27.351 C 74.642 27.808 74.173 28.014 73.807 28.462 C 71.343 31.477 69.249 34.848 67.802 38.439 C 67.427 39.372 67.432 40.22 67.166 41.084 C 67.063 41.421 66.715 41.33 66.647 41.574 C 65.919 44.21 65.811 46.75 65.533 49.427 C 65.418 50.539 65.06 51.743 65.024 52.867 C 65.02 52.985 65.02 53.105 65.024 53.225 C 65.048 54.043 65.226 54.859 65.265 55.581 C 65.289 56.029 65.032 56.284 65.021 56.448 C 64.988 57.023 65.309 56.8 65.331 57.088 C 65.395 57.882 65.034 58.321 65.156 59.065 C 65.206 59.358 65.456 59.288 65.553 59.702 C 65.68 60.23 65.417 60.067 65.468 60.451 C 65.47 60.474 65.64 60.37 65.68 60.571 C 65.935 61.865 66.425 63.427 66.755 64.637 C 67.424 67.137 68.068 69.658 69.183 71.837 C 69.466 72.385 69.597 72.122 69.703 72.286 C 70.218 73.064 70.151 73.502 70.781 74.265 C 70.887 74.393 71.527 74.744 71.83 75.292 C 71.902 75.424 71.956 75.582 72.006 75.74 L 71.972 75.697 C 72.042 75.893 72.105 76.088 72.188 76.228 C 72.337 76.478 72.601 76.317 72.827 76.574 C 73.246 77.039 72.961 77.05 73.611 77.675 C 73.873 77.93 74.926 78.563 75.608 79.162 C 76.713 80.155 78.083 81.444 79.661 82.243 C 80.201 82.519 81.028 82.559 81.886 82.873 C 82.931 83.283 84.933 83.854 86.093 83.992 C 86.681 84.071 86.692 84.396 86.762 84.418 C 87.214 84.554 87.062 84.171 87.366 84.21 C 87.783 84.262 88.167 84.551 88.558 84.578 C 88.806 84.594 88.849 84.323 88.902 84.322 C 88.971 84.319 89.041 84.317 89.11 84.314 C 91.003 84.23 92.676 84.071 94.436 83.567 C 96.698 82.917 98.74 81.755 100.376 80.136 L 100.416 80.099 C 103.232 77.542 104.694 74.054 104.599 70.313 C 104.572 66.895 103.631 63.702 101.507 61.402 C 101.061 60.912 100.604 60.431 100.136 59.961 C 99.502 59.331 99.708 59.059 99.084 58.567 C 98.453 58.072 97.407 58.155 97.413 57.116 C 97.293 57.231 97.222 57.323 97.112 57.427 C 96.076 56.321 94.737 55.588 93.472 54.832 L 93.397 54.781 C 93.283 54.706 93.17 54.63 93.058 54.553 C 92.008 53.828 91.119 53.125 90.203 52.378 C 89.394 51.711 89.648 51.548 88.711 51.255 C 87.384 50.022 86.068 48.763 84.815 47.439 L 84.761 47.382 C 82.742 45.137 81.432 42.18 81.2 39.288 C 80.51 38.398 80.635 37.377 80.759 36.137 C 80.777 35.948 80.797 35.753 80.816 35.55 C 80.836 35.355 80.598 35.557 80.654 34.972 C 80.739 34.235 81.099 33.898 81.323 32.709 C 81.343 32.397 81.681 29.966 82.267 29.25 C 82.797 28.523 83.5 27.483 84.138 26.851 C 83.948 26.876 83.744 26.935 83.547 26.981 C 83.761 26.586 83.989 26.199 84.227 25.82 C 84.408 25.868 84.588 25.918 84.766 25.972 C 84.778 25.671 84.799 25.365 84.822 25.058 C 85.88 25.175 85.279 25.436 85.884 24.35 C 86.197 23.808 86.636 23.559 87.003 23.045 C 87.134 22.861 87.045 22.572 87.199 22.37 C 87.576 21.882 87.578 22.394 87.846 22.131 C 88.114 21.87 88.24 21.202 88.87 20.889 C 88.817 21.881 90.176 20.402 89.915 19.914 C 90.091 19.77 90.256 19.665 90.444 19.503 L 90.467 19.486 C 90.477 19.477 90.488 19.468 90.498 19.459 C 91.154 20.723 91.537 19.188 91.842 18.742 C 92.135 18.3 92.337 18.622 92.423 18.544 C 92.675 18.32 92.386 18.329 92.575 18.193 C 93.839 17.294 95.196 16.726 96.514 15.99 C 96.705 15.884 96.43 15.795 96.663 15.687 C 96.893 15.58 97.208 15.646 97.53 15.45 C 97.616 15.398 97.552 15.219 97.689 15.144 C 100.581 13.57 103.46 12.398 106.522 11.133 C 106.8 11.019 106.89 10.619 107.432 10.409 C 107.978 10.197 108.905 10.149 109.582 9.911 C 109.762 9.847 109.712 9.569 109.95 9.485 C 110.762 9.199 111.539 9.148 112.388 8.875 C 113.826 8.414 115.261 7.732 116.764 7.402 C 117.048 7.339 117.077 7.573 117.496 7.503 C 118.212 7.385 117.851 7.149 117.975 7.06 C 118.221 6.887 118.421 6.956 118.63 6.983 L 117.855 8.478 C 117.875 8.342 117.877 8.201 117.779 8.04 C 117.741 7.978 117.517 8.153 117.494 8.094 C 117.162 7.176 117.742 6.943 117.116 6.051 C 117.186 5.065 117.758 6.499 117.987 6.594 C 118.543 6.826 118.761 5.69 118.75 5.064 C 118.74 4.525 118.466 4.613 118.405 4.416 C 118.082 3.374 117.549 1.838 117.434 1.005 C 117.364 0.5 117.746 1.33 117.761 1.057 C 117.776 0.786 117.52 0.692 117.669 0.373 C 117.818 0.053 118.326 -0.662 118.673 -0.664 Z M 104.918 61.092 C 104.37 60.854 103.771 60.415 103.108 59.92 C 101.457 58.664 99.491 56.778 98.196 55.67 C 96.721 54.378 95.774 52.711 95.401 53.987 C 97.136 55.192 98.572 56.144 100.212 57.672 C 100.386 57.828 101.314 58.865 101.633 59.224 C 101.816 59.425 101.673 59.577 101.93 59.839 C 101.986 59.894 102.49 60.027 102.596 60.152 C 102.629 60.19 102.666 60.238 102.705 60.293 C 103.113 60.822 103.602 62.097 103.7 62.26 C 104.048 62.752 104.205 62.392 104.391 62.594 C 104.998 63.305 104.598 63.606 105.072 64.365 C 105.154 64.498 105.748 64.863 105.875 65.542 C 105.928 65.816 105.82 66.322 105.871 66.523 C 106.162 67.618 106.569 68.889 106.534 69.96 C 106.53 70.105 106.516 70.22 106.496 70.313 C 106.392 70.773 106.159 70.668 106.108 71.041 C 106.048 71.484 106.377 72.061 106.358 72.379 C 106.331 72.886 106.001 73.443 105.971 73.591 C 105.402 76.554 104.122 79.12 101.984 81.245 C 103.579 79.966 104.956 78.361 105.93 76.499 C 106.062 75.276 106.138 75.947 106.497 75.236 C 106.764 74.662 106.253 74.368 106.483 73.613 C 106.483 73.614 106.483 73.614 106.483 73.615 C 106.601 73.23 107.15 72.392 107.039 71.488 C 107.033 71.456 106.749 71.357 106.757 70.709 C 106.758 70.583 106.756 70.451 106.753 70.313 C 106.728 68.862 106.394 66.897 106.036 65.453 C 105.922 64.988 106.255 64.99 106.106 64.426 C 105.991 64.013 105.548 63.666 105.326 63.051 C 105.046 62.288 105.246 61.661 104.354 61.565 C 104.535 61.389 104.75 61.275 104.918 61.092 Z M 86.221 26.578 C 86.307 26.487 87.855 25.812 86.935 25.631 C 85.338 26.987 84.259 29.007 83.325 30.997 C 84.348 30.581 84.512 29.356 85.265 28.029 C 85.266 28.029 85.266 28.028 85.266 28.027 C 85.301 27.966 85.327 28.329 85.507 27.968 C 85.589 27.798 85.735 26.979 86.221 26.578 Z M 55.262 -0.664 C 56.026 0.865 56.637 2.439 57.035 4.132 C 57.126 4.518 56.91 4.546 56.924 4.712 C 56.951 5.016 57.321 5.426 57.342 5.493 C 57.473 5.909 57.064 5.857 57.068 5.918 C 57.116 6.588 57.469 6.281 57.693 6.867 C 57.758 7.038 57.821 7.221 57.882 7.414 L 58.612 9.615 L 56.329 10.407 C 55.668 10.624 54.903 10.824 54.188 11.049 C 53.864 11.15 53.912 10.83 53.226 11.091 C 52.737 11.275 51.342 12.111 50.535 12.037 C 50.486 11.914 50.524 11.746 50.515 11.605 C 49.71 12.483 49.355 12.585 47.913 12.996 C 47.687 13.061 47.557 13.352 47.142 13.426 C 46.73 13.5 46.578 13.185 45.808 13.5 C 45.533 13.614 45.457 13.909 45.045 14.091 C 43.866 14.605 41.495 15.319 40.537 15.765 C 38.641 16.637 37.832 17.517 36.151 18.262 C 36.022 18.32 36.166 17.936 35.936 18.056 C 35.705 18.176 35.639 18.62 35.588 18.658 C 35.031 19.069 33.534 19.401 33.235 19.657 C 32.52 20.267 33.372 19.914 32.328 20.659 C 31.494 21.26 30.201 21.766 29.212 22.324 L 29.231 22.309 C 29.046 22.417 28.872 22.525 28.715 22.634 C 27.56 23.446 27.694 24.238 26.458 24.446 C 23.853 27.014 21.749 30.105 21.094 33.507 C 20.959 33.469 20.824 33.429 20.69 33.388 C 20.727 33.684 20.774 33.975 20.829 34.261 C 20.732 34.205 20.635 34.15 20.539 34.092 C 20.643 34.815 20.754 35.465 20.839 36.137 C 20.916 36.754 20.964 37.385 21 38.097 C 21.001 38.127 20.715 38.084 20.711 38.109 C 20.701 38.462 20.975 38.808 20.984 39.109 C 20.986 39.835 20.807 41.217 21.346 40.467 C 21.692 42.137 22.923 43.716 23.91 44.967 C 23.917 44.976 23.924 44.984 23.93 44.993 L 23.894 44.956 C 24.353 45.517 24.22 45.979 24.461 46.245 C 24.706 46.513 24.833 46.111 24.936 46.188 C 25.55 46.658 26.483 47.508 26.307 47.915 C 26.536 47.89 26.772 47.868 27.002 47.842 C 26.619 48.143 28.579 49.53 29.072 49.915 C 29.161 49.987 29.047 50.159 29.116 50.211 C 29.897 50.783 30.281 50.666 31.006 51.069 C 31.262 51.209 30.685 51.238 31.379 51.548 C 31.435 51.573 31.577 51.334 32.166 51.702 L 32.115 51.668 C 32.167 51.698 32.223 51.732 32.282 51.771 C 33.531 52.57 35.913 54.162 37.146 55.457 C 37.247 55.561 36.683 55.543 37.237 55.913 C 37.436 56.048 37.517 55.781 37.954 56.169 C 38.911 57.021 39.797 58.018 40.673 59.016 C 41.395 59.836 42.043 60.715 42.666 61.602 C 42.369 61.66 41.674 61.082 42.461 62.113 C 42.584 62.282 42.737 62.027 42.789 62.105 C 43.208 62.754 43.304 63.433 43.662 64.171 C 43.767 64.391 43.977 64.386 44.112 64.667 C 44.308 65.083 44.084 65.347 44.318 65.823 C 44.672 66.569 44.972 66.678 44.574 67.734 C 44.681 68.595 44.734 69.456 44.743 70.313 C 44.903 74.885 42.793 79.724 39.197 82.558 L 39.227 82.532 C 39.089 82.652 38.951 82.769 38.809 82.884 C 37.686 84.076 36.479 85.084 34.929 85.877 C 34.468 86.106 34.242 85.818 33.539 86.217 C 33.391 86.313 32.267 87.086 31.891 86.42 C 31.572 86.574 31.357 86.629 31.073 86.736 C 31.32 86.789 31.576 86.837 31.819 86.884 C 30.546 87.1 29.564 87.521 28.442 87.764 C 27.616 87.931 28.18 87.565 27.675 87.638 C 27.172 87.703 26.935 87.787 26.3 87.427 C 26.092 87.618 25.911 87.67 25.7 87.665 C 25.417 87.659 25.092 87.556 24.572 87.529 C 24.476 87.525 23.898 87.666 23.426 87.592 C 23.084 87.538 23.014 87.262 22.472 87.24 C 22.387 87.242 21.2 87.409 20.827 87.362 C 20.247 87.307 19.437 86.753 19.336 86.72 C 17.814 86.248 17.096 86.332 16.262 85.382 C 15.925 85.606 14.96 85.393 14.29 84.996 C 13.412 84.511 12.191 82.883 11.568 83.306 C 10.853 82.378 10.83 82.621 9.81 81.767 C 8.849 81.008 6.9 78.502 6.31 77.757 C 6.262 77.701 6.217 77.652 6.175 77.61 L 6.163 77.595 C 5.679 77.093 5.624 77.595 5.374 77.34 C 4.931 76.882 5.371 76.984 5.12 76.637 C 4.414 75.651 3.806 74.79 3.12 73.841 C 3.271 73.684 3.421 73.523 3.571 73.366 C 3.482 73.349 3.393 73.331 3.303 73.312 C 3.185 73.094 3.051 72.852 2.95 72.646 C 3.056 74.794 2.112 70.95 1.756 69.892 C 1.398 69.008 0.442 67.653 0.044 66.656 C -0.054 66.417 0.213 66.52 0.193 66.471 C -0.046 65.897 -0.223 65.849 -0.419 65.034 C -0.52 64.603 -0.353 64.099 -0.442 63.683 C -1.097 60.625 -1.708 57.643 -1.816 54.54 C -1.832 54.053 -1.547 53.632 -1.494 53.225 C -1.489 53.188 -1.486 53.151 -1.485 53.114 C -1.472 52.481 -1.746 52.079 -1.73 51.48 C -1.714 50.885 -1.327 50.049 -1.347 49.647 C -1.366 49.241 -1.746 49.905 -1.597 49.174 C -1.527 48.84 -1.337 49.456 -1.293 49.041 C -1.163 47.751 -1.21 45.871 -0.655 44.558 C -0.738 44.604 -0.818 44.675 -0.9 44.736 C -0.596 43.279 -0.124 42.042 0.328 40.585 C 0.484 40.076 0.575 39.091 0.751 38.592 C 0.926 38.093 1.226 37.947 1.379 37.557 C 1.444 37.397 1.226 37.386 1.271 37.279 C 1.852 35.94 2.505 35.358 3.121 33.983 C 5.31 29.137 8.531 24.606 12.253 20.698 C 12.406 20.537 12.56 20.376 12.715 20.216 C 12.872 20.055 12.794 19.754 13.004 19.496 C 13.329 19.1 13.513 19.257 13.568 19.217 C 13.926 18.953 13.645 18.912 14.081 18.51 C 15.046 17.617 16.779 16.399 17.788 15.583 C 20.109 13.696 22.053 12.079 24.478 10.415 C 24.652 10.296 24.701 10.642 25.013 10.452 C 27.225 9.134 27.537 8.583 30.402 7.13 C 33.258 5.664 38.811 3.319 42.3 2.023 C 42.3 2.024 42.301 2.025 42.301 2.025 C 43.179 1.041 44.655 0.639 45.992 0.63 C 39.703 4.481 33.165 6.649 26.543 10.697 C 21.748 13.644 17.298 17.606 13.432 21.873 C 11.707 23.772 10.099 25.728 8.576 27.712 C 8.115 28.316 7.661 28.376 7.352 28.949 C 7.3 29.046 7.673 28.959 7.506 29.251 C 5.22 33.209 2.602 37.429 1.588 41.872 C 1.32 43.061 1.562 43.314 1.414 44.365 C 1.318 44.155 1.203 44.005 1.104 43.816 C 0.16 46.839 -0.184 50.036 -0.177 53.225 C -0.174 54.985 -0.079 56.746 0.088 58.509 C 0.109 58.733 -0.169 58.793 -0.151 59.03 C -0.117 59.506 0.252 59.913 0.323 60.32 C 0.417 60.848 0.211 60.978 0.311 61.466 C 0.361 61.704 0.559 61.596 0.622 62.119 C 0.627 62.163 0.409 62.234 0.508 62.575 C 0.769 63.509 1.445 65.362 1.744 66.097 C 2.109 67.04 2.068 67.917 2.183 68.288 C 2.502 69.284 2.822 69.132 3.167 69.934 C 4.251 72.398 5.539 74.724 7.085 76.891 C 9.153 79.703 11.74 82.259 15.031 83.964 C 15.395 84.166 16.917 84.439 17.607 84.695 C 17.833 84.797 19.045 85.296 19.235 85.347 C 19.991 85.593 20.617 85.966 21.047 86.097 C 21.882 86.357 22.889 86.104 23.347 86.107 C 24.031 86.12 25.152 86.188 25.7 86.198 C 25.804 86.201 25.887 86.203 25.942 86.204 C 26.764 86.213 26.508 86.673 27.103 86.541 C 27.277 86.498 27.077 86.165 27.689 86.121 C 28.202 86.08 28.436 86.317 28.799 86.321 C 29.162 86.325 29.744 85.82 29.957 85.788 C 31.089 85.623 31.659 85.761 32.874 85.362 C 33.98 85.202 38.035 82.413 38.143 81.939 C 38.24 81.799 38.307 81.688 38.352 81.605 C 38.498 81.349 38.419 81.357 38.242 81.487 C 37.886 81.779 37.034 82.559 36.94 82.607 C 36.164 83.07 36.194 82.851 35.597 83.589 C 34.509 83.198 32.526 85.644 31.468 84.692 C 30.973 85.623 30.249 85.39 29.476 85.363 C 28.398 85.311 29.263 85.637 28.486 85.739 C 28.177 85.779 27.265 85.508 26.814 85.571 C 26.398 85.632 26.206 85.863 25.7 85.915 C 25.651 85.92 25.6 85.923 25.546 85.924 C 24.435 85.943 23.539 85.753 22.668 85.326 C 22.485 85.446 22.31 85.564 22.122 85.68 C 21.508 85.437 20.905 85.17 20.326 84.88 C 20.396 85.023 20.468 85.167 20.542 85.309 C 20.355 85.286 20.167 85.26 19.981 85.231 C 19.418 84.902 18.9 84.572 18.368 84.189 C 16.514 84.274 17.19 83.851 16.37 83.392 C 15.559 82.91 14.885 83.006 14.241 82.627 C 13.388 82.109 12.976 81.891 12.187 81.26 C 11.727 80.893 11.226 79.945 11.451 80.954 C 10.008 79.867 8.163 78.156 7.339 76.696 C 7.325 76.67 7.31 76.643 7.295 76.616 C 7.062 76.182 7.611 76.58 7.58 76.498 C 7.426 76.103 6.962 76.015 6.753 75.641 C 6.4 75.021 5.872 73.736 5.649 73.232 C 5.316 72.517 4.369 71.609 4.285 71.503 C 3.81 70.936 4.043 70.609 3.924 70.412 C 3.253 69.283 3.02 69.049 3.545 68.403 C 3.124 68.219 2.136 67.048 2.54 66.552 C 2.08 66.696 1.795 65.538 1.494 64.862 C 1.592 64.694 1.69 64.525 1.792 64.361 C 0.552 63.102 0.603 59.94 0.543 57.956 C 0.54 57.906 0.173 57.851 0.227 57.54 C 0.232 57.521 0.396 57.537 0.4 57.335 C 0.393 56.66 0.697 54.118 0.713 53.831 C 0.713 53.59 0.701 53.393 0.681 53.225 C 0.615 52.652 0.454 52.425 0.447 51.919 C 0.441 51.057 0.69 50.945 0.707 50.132 C 0.717 49.752 0.425 49.377 0.528 48.78 C 0.59 48.426 0.843 48.418 0.894 48.141 C 1.08 47.158 1.033 46.403 1.507 45.589 C 0.763 45.221 1.418 44.904 1.564 44.489 C 2.149 42.801 2.43 40.586 3.016 39.165 C 4.832 34.74 7.351 31.313 10.218 27.755 C 10.688 27.179 10.488 26.788 11.01 26.195 C 11.247 25.928 11.699 25.84 12.082 25.407 C 12.388 25.064 12.726 24.468 13.122 24.046 C 13.228 23.933 13.435 24.109 13.592 23.946 C 13.908 23.619 14.212 23.292 14.518 22.956 C 15.363 22.031 16.183 21.08 17.083 20.155 C 17.535 19.689 18.077 19.702 17.585 19.298 C 17.875 19.253 18.144 19.2 18.419 19.167 C 18.853 18.29 19.678 18.147 20.568 17.332 C 20.664 17.242 21.128 16.345 21.736 16.288 C 21.634 16.086 21.457 15.982 21.349 15.81 C 21.712 15.436 22.513 15.18 22.809 15.006 C 23.108 14.828 23.136 14.458 23.221 14.395 C 23.547 14.162 23.684 14.531 23.713 14.518 C 25.452 13.786 25.173 13.739 25.814 12.649 C 25.973 12.372 27.819 11.732 27.927 11.151 C 28.036 11.301 28.026 11.494 28.09 11.661 C 28.604 11.411 29.13 11.163 29.651 10.922 C 29.458 10.828 29.244 10.746 29.058 10.648 C 30.153 10.199 30.813 9.365 31.676 8.923 C 32.167 8.673 32.289 9.051 32.537 8.826 C 32.585 8.781 32.368 8.597 32.526 8.491 C 33.814 7.637 34.546 7.587 35.955 6.975 C 36.616 6.691 36.987 5.99 38.065 5.853 C 38.165 5.84 39.257 5.821 39.594 5.014 C 39.853 5.113 40.054 5.137 40.254 5.228 C 41.075 3.901 41.091 4.851 42.757 4.405 C 43.615 4.171 46.339 2.969 47.221 2.559 C 47.74 2.31 47.613 1.979 47.705 1.931 C 48.258 1.649 48.374 1.974 48.889 1.736 C 49.405 1.498 49.965 0.897 50.528 0.748 C 50.962 0.634 50.76 1.151 51.343 0.804 C 51.463 0.731 50.98 0.505 51.686 0.426 C 51.796 0.413 52.975 0.45 53.22 0.464 C 52.724 0.856 51.21 1.657 50.638 1.947 C 41.241 6.333 23.239 15.063 15.215 23.652 C 14.706 24.148 14.231 24.63 13.785 25.095 C 13.068 25.847 12.341 26.119 11.878 26.619 C 11.416 27.124 12.047 26.899 11.635 27.357 C 11.227 27.813 10.758 28.02 10.392 28.468 C 7.928 31.483 5.835 34.856 4.388 38.447 C 4.013 39.381 4.018 40.229 3.752 41.093 C 3.649 41.43 3.302 41.339 3.234 41.583 C 2.506 44.22 2.398 46.761 2.122 49.438 C 2.007 50.55 1.649 51.754 1.613 52.878 C 1.609 52.993 1.609 53.109 1.613 53.225 C 1.636 54.046 1.816 54.867 1.854 55.592 C 1.879 56.041 1.622 56.296 1.611 56.46 C 1.578 57.035 1.899 56.812 1.921 57.1 C 1.985 57.894 1.625 58.333 1.747 59.078 C 1.797 59.37 2.046 59.3 2.144 59.714 C 2.272 60.243 2.008 60.079 2.059 60.463 C 2.062 60.486 2.231 60.382 2.271 60.583 C 2.526 61.877 3.018 63.44 3.348 64.649 C 4.017 67.15 4.663 69.67 5.779 71.849 C 6.062 72.397 6.193 72.134 6.299 72.298 C 6.815 73.076 6.747 73.514 7.378 74.277 C 7.484 74.405 8.125 74.756 8.427 75.304 C 8.498 75.432 8.55 75.584 8.599 75.737 L 8.584 75.718 C 8.652 75.919 8.713 76.121 8.795 76.265 C 8.94 76.518 9.205 76.361 9.426 76.62 C 9.837 77.089 9.553 77.097 10.192 77.727 C 10.451 77.984 11.494 78.624 12.169 79.224 C 13.262 80.218 14.628 81.503 16.207 82.292 C 16.749 82.565 17.574 82.599 18.434 82.907 C 19.481 83.308 21.491 83.865 22.655 83.998 C 23.244 84.075 23.257 84.399 23.327 84.422 C 23.78 84.556 23.628 84.173 23.932 84.212 C 24.351 84.262 24.736 84.551 25.128 84.578 C 25.377 84.594 25.419 84.323 25.473 84.322 C 25.549 84.319 25.624 84.316 25.7 84.313 C 27.586 84.23 29.254 84.072 31.01 83.572 C 33.277 82.922 35.325 81.758 36.965 80.135 L 37.005 80.099 C 39.821 77.542 41.283 74.054 41.188 70.313 C 41.161 66.895 40.22 63.702 38.096 61.402 C 37.653 60.914 37.199 60.437 36.734 59.97 C 36.1 59.34 36.306 59.068 35.682 58.574 C 35.051 58.079 34.005 58.162 34.011 57.123 C 33.892 57.238 33.82 57.33 33.71 57.434 C 32.671 56.325 31.328 55.591 30.061 54.833 L 29.986 54.782 C 29.875 54.708 29.765 54.635 29.657 54.56 C 28.607 53.835 27.717 53.132 26.801 52.385 C 25.991 51.718 26.246 51.555 25.309 51.262 C 23.979 50.027 22.66 48.766 21.404 47.439 L 21.35 47.382 C 19.333 45.14 18.025 42.186 17.79 39.298 C 17.098 38.405 17.225 37.382 17.349 36.137 C 17.367 35.951 17.386 35.759 17.405 35.559 C 17.425 35.364 17.187 35.566 17.242 34.981 C 17.327 34.244 17.687 33.906 17.911 32.717 C 17.93 32.405 18.267 29.974 18.853 29.258 C 19.383 28.53 20.086 27.489 20.723 26.857 C 20.533 26.882 20.33 26.941 20.132 26.987 C 20.346 26.593 20.574 26.206 20.811 25.826 C 20.993 25.874 21.173 25.924 21.351 25.978 C 21.362 25.677 21.384 25.371 21.407 25.063 C 22.465 25.181 21.864 25.442 22.469 24.356 C 22.782 23.813 23.221 23.564 23.588 23.05 C 23.718 22.866 23.629 22.577 23.784 22.375 C 24.161 21.887 24.162 22.398 24.431 22.136 C 24.699 21.875 24.824 21.207 25.454 20.893 C 25.401 21.885 26.76 20.406 26.5 19.918 C 26.677 19.773 26.843 19.667 27.033 19.503 L 27.056 19.486 C 27.065 19.478 27.074 19.471 27.083 19.463 C 27.739 20.727 28.122 19.191 28.427 18.745 C 28.719 18.303 28.921 18.625 29.008 18.547 C 29.26 18.323 28.971 18.332 29.16 18.196 C 30.424 17.297 31.781 16.728 33.099 15.993 C 33.29 15.886 33.015 15.798 33.248 15.689 C 33.478 15.582 33.793 15.648 34.115 15.452 C 34.201 15.4 34.138 15.221 34.275 15.146 C 37.166 13.572 40.046 12.4 43.109 11.134 C 43.386 11.02 43.477 10.62 44.018 10.41 C 44.564 10.199 45.492 10.15 46.169 9.912 C 46.349 9.848 46.299 9.57 46.537 9.486 C 47.349 9.199 48.126 9.149 48.975 8.876 C 50.413 8.415 51.849 7.733 53.352 7.402 C 53.636 7.339 53.665 7.573 54.084 7.503 C 54.8 7.385 54.439 7.149 54.563 7.061 C 54.809 6.887 55.01 6.957 55.22 6.984 L 54.444 8.478 C 54.465 8.342 54.466 8.202 54.369 8.041 C 54.331 7.979 54.106 8.154 54.084 8.095 C 53.751 7.177 54.332 6.944 53.706 6.052 C 53.776 5.066 54.348 6.5 54.576 6.595 C 55.133 6.827 55.35 5.691 55.339 5.065 C 55.33 4.525 55.056 4.614 54.995 4.417 C 54.671 3.375 54.138 1.838 54.023 1.005 C 53.953 0.5 54.336 1.331 54.35 1.057 C 54.365 0.786 54.109 0.692 54.258 0.373 C 54.407 0.053 54.915 -0.662 55.262 -0.664 Z M 41.515 61.104 C 40.964 60.864 40.362 60.42 39.695 59.921 C 38.047 58.665 36.087 56.784 34.794 55.677 C 33.319 54.385 32.373 52.718 32 53.993 C 33.734 55.199 35.171 56.152 36.81 57.68 C 36.984 57.836 37.912 58.873 38.231 59.233 C 38.414 59.434 38.271 59.586 38.528 59.848 C 38.584 59.904 39.088 60.036 39.194 60.161 C 39.225 60.197 39.259 60.241 39.296 60.291 C 39.703 60.815 40.198 62.107 40.296 62.27 C 40.643 62.763 40.8 62.403 40.987 62.605 C 41.593 63.317 41.192 63.618 41.666 64.377 C 41.747 64.511 42.341 64.876 42.468 65.555 C 42.52 65.829 42.412 66.335 42.463 66.536 C 42.753 67.632 43.16 68.903 43.124 69.974 C 43.12 70.112 43.107 70.223 43.088 70.313 C 42.986 70.79 42.748 70.679 42.697 71.056 C 42.636 71.498 42.965 72.076 42.945 72.394 C 42.918 72.9 42.588 73.457 42.557 73.606 C 41.985 76.568 40.701 79.133 38.561 81.256 C 40.158 79.978 41.537 78.375 42.513 76.514 C 42.646 75.29 42.721 75.962 43.082 75.251 C 43.349 74.677 42.838 74.382 43.069 73.628 C 43.069 73.628 43.069 73.629 43.069 73.63 C 43.187 73.245 43.738 72.408 43.627 71.503 C 43.621 71.471 43.338 71.372 43.346 70.724 C 43.347 70.594 43.345 70.456 43.341 70.313 C 43.316 68.863 42.984 66.906 42.629 65.466 C 42.515 65.001 42.848 65.004 42.7 64.439 C 42.585 64.026 42.143 63.678 41.921 63.063 C 41.641 62.3 41.842 61.673 40.95 61.577 C 41.132 61.401 41.346 61.287 41.515 61.104 Z M 22.806 26.584 C 22.893 26.493 24.44 25.817 23.52 25.636 C 21.924 26.993 20.845 29.013 19.912 31.004 C 20.935 30.587 21.098 29.362 21.851 28.035 C 21.851 28.034 21.852 28.034 21.852 28.033 C 21.887 27.972 21.912 28.335 22.093 27.974 C 22.175 27.804 22.321 26.985 22.806 26.584 Z" fill="currentColor" fill-rule="nonzero"></path>
</svg>