<svg xmlns="http://www.w3.org/2000/svg" width="124.229" height="89" viewBox="0 0 124.229 89" fill="none">
  <path d="M 123.347 -0.53 C 124.08 1.077 124.692 2.719 125.137 4.469 C 125.239 4.867 125.064 4.881 125.088 5.051 C 125.132 5.362 125.463 5.804 125.485 5.874 C 125.622 6.306 125.284 6.226 125.291 6.288 C 125.377 6.973 125.644 6.685 125.869 7.295 C 125.932 7.465 125.993 7.647 126.054 7.837 L 126.638 9.61 L 124.814 10.227 C 124.118 10.455 123.313 10.676 122.558 10.915 C 122.22 11.021 122.294 10.755 121.576 11.019 C 121.066 11.205 119.582 11.998 118.77 11.998 C 118.73 11.901 118.782 11.76 118.784 11.644 C 117.897 12.429 117.528 12.541 116.035 12.996 C 115.801 13.067 115.644 13.32 115.218 13.414 C 114.796 13.509 114.669 13.26 113.866 13.585 C 113.579 13.702 113.476 13.954 113.044 14.14 C 111.81 14.665 109.363 15.471 108.362 15.935 C 106.384 16.842 105.487 17.665 103.742 18.469 C 103.608 18.532 103.792 18.189 103.552 18.315 C 103.31 18.441 103.197 18.827 103.142 18.865 C 102.546 19.272 101.036 19.716 100.715 19.97 C 99.945 20.575 100.82 20.175 99.712 20.937 C 98.81 21.563 97.462 22.165 96.438 22.788 L 96.453 22.776 C 96.283 22.882 96.123 22.988 95.976 23.092 C 94.777 23.956 94.795 24.665 93.615 25.007 C 90.853 27.68 88.581 30.929 87.852 34.555 C 87.745 34.522 87.639 34.487 87.533 34.451 C 87.545 34.759 87.568 35.063 87.6 35.364 C 87.525 35.308 87.449 35.254 87.375 35.196 C 87.428 35.967 87.502 36.667 87.568 37.397 C 87.627 38.04 87.671 38.701 87.722 39.443 C 87.724 39.475 87.493 39.42 87.491 39.446 C 87.494 39.819 87.728 40.195 87.751 40.513 C 87.785 41.282 87.749 42.697 88.133 41.961 C 88.541 43.724 89.805 45.444 90.894 46.75 C 90.903 46.762 90.913 46.774 90.922 46.786 L 90.893 46.756 C 91.381 47.324 91.319 47.727 91.574 47.998 C 91.835 48.272 91.902 47.92 92.007 48.003 C 92.637 48.507 93.618 49.388 93.505 49.734 C 93.716 49.739 93.935 49.747 94.147 49.75 C 93.824 49.979 95.843 51.453 96.361 51.851 C 96.455 51.925 96.367 52.065 96.44 52.119 C 97.251 52.717 97.604 52.657 98.347 53.096 C 98.609 53.248 98.059 53.209 98.762 53.561 C 98.819 53.589 98.928 53.391 99.556 53.798 L 99.515 53.771 C 99.563 53.799 99.613 53.83 99.667 53.865 C 100.959 54.684 103.404 56.336 104.705 57.636 C 104.812 57.741 104.284 57.661 104.845 58.055 C 105.046 58.199 105.09 57.967 105.542 58.366 C 106.541 59.248 107.482 60.265 108.405 61.294 C 109.138 62.109 109.795 62.99 110.405 63.887 C 110.159 63.918 109.506 63.294 110.283 64.363 C 110.404 64.537 110.508 64.303 110.559 64.383 C 110.975 65.048 111.113 65.722 111.462 66.482 C 111.564 66.707 111.735 66.716 111.863 67.003 C 112.049 67.429 111.884 67.683 112.097 68.173 C 112.419 68.943 112.665 69.057 112.379 70.121 C 112.489 71.003 112.542 71.885 112.549 72.765 C 112.697 77.433 110.532 82.291 106.885 85.194 L 106.908 85.173 C 106.762 85.302 106.614 85.428 106.463 85.552 C 105.289 86.734 104.039 87.718 102.459 88.504 C 101.989 88.73 101.791 88.511 101.063 88.889 C 100.908 88.982 99.741 89.682 99.402 89.159 C 99.071 89.302 98.852 89.358 98.559 89.457 C 98.806 89.488 99.061 89.514 99.303 89.54 C 98.011 89.782 96.996 90.155 95.85 90.374 C 95.006 90.525 95.588 90.221 95.071 90.288 C 94.557 90.348 94.314 90.418 93.666 90.135 C 93.444 90.294 93.253 90.333 93.026 90.326 C 92.742 90.318 92.411 90.239 91.892 90.213 C 91.793 90.209 91.202 90.315 90.718 90.246 C 90.368 90.195 90.289 89.974 89.735 89.941 C 89.647 89.941 88.441 90.033 88.063 89.976 C 87.473 89.907 86.631 89.415 86.526 89.381 C 84.964 88.904 84.262 88.918 83.362 88.062 C 83.045 88.22 82.081 87.962 81.395 87.565 C 80.501 87.082 79.156 85.551 78.615 85.854 C 77.836 84.972 77.84 85.183 76.79 84.323 C 75.805 83.558 73.716 81.073 73.096 80.317 C 73.032 80.245 72.976 80.186 72.925 80.137 L 72.902 80.108 C 72.447 79.633 72.452 80.077 72.208 79.815 C 71.768 79.335 72.165 79.478 71.905 79.122 C 71.177 78.111 70.559 77.221 69.876 76.236 C 69.988 76.098 70.099 75.956 70.211 75.817 C 70.133 75.791 70.055 75.765 69.977 75.739 C 69.854 75.515 69.715 75.266 69.61 75.055 C 69.915 77.163 68.727 73.326 68.349 72.233 C 67.972 71.325 67.077 69.898 66.686 68.87 C 66.59 68.622 66.816 68.743 66.796 68.692 C 66.562 68.098 66.414 68.039 66.207 67.203 C 66.099 66.761 66.206 66.258 66.112 65.829 C 65.423 62.681 64.856 59.599 64.754 56.4 C 64.739 55.913 64.951 55.491 65.003 55.081 C 65.009 55.03 65.013 54.98 65.014 54.929 C 65.026 54.276 64.81 53.862 64.828 53.245 C 64.846 52.632 65.167 51.766 65.16 51.352 C 65.153 50.935 64.836 51.624 64.97 50.87 C 65.033 50.525 65.171 51.155 65.215 50.727 C 65.347 49.395 65.373 47.469 65.883 46.104 C 65.814 46.155 65.746 46.23 65.678 46.296 C 65.988 44.795 66.441 43.513 66.907 42.01 C 67.068 41.485 67.214 40.485 67.398 39.973 C 67.58 39.46 67.84 39.293 67.999 38.89 C 68.065 38.725 67.886 38.731 67.932 38.62 C 68.525 37.239 69.123 36.609 69.776 35.196 C 72.081 30.259 75.427 25.659 79.28 21.692 C 79.469 21.497 79.659 21.304 79.85 21.111 C 80.014 20.946 79.98 20.68 80.204 20.423 C 80.552 20.027 80.702 20.149 80.758 20.107 C 81.122 19.827 80.866 19.822 81.319 19.41 C 82.319 18.495 84.086 17.214 85.137 16.379 C 87.552 14.451 89.598 12.832 92.124 11.148 C 92.306 11.027 92.314 11.321 92.637 11.125 C 94.928 9.767 95.288 9.263 98.247 7.755 C 101.197 6.235 106.935 3.788 110.551 2.447 C 110.551 2.448 110.551 2.448 110.552 2.449 C 111.516 1.564 113.031 1.12 114.38 1.014 C 107.727 4.659 100.981 7.034 94.094 11.181 C 89.07 14.224 84.331 18.235 80.216 22.634 C 78.423 24.547 76.75 26.531 75.187 28.558 C 74.705 29.185 74.299 29.293 73.961 29.875 C 73.904 29.974 74.241 29.85 74.06 30.148 C 71.58 34.208 68.956 38.649 67.848 43.245 C 67.554 44.478 67.736 44.726 67.56 45.817 C 67.493 45.605 67.409 45.456 67.339 45.265 C 66.408 48.431 66.051 51.758 66.056 55.081 C 66.059 56.897 66.155 58.713 66.334 60.531 C 66.356 60.763 66.136 60.818 66.156 61.064 C 66.197 61.556 66.506 61.987 66.578 62.41 C 66.673 62.959 66.513 63.086 66.613 63.592 C 66.664 63.839 66.818 63.736 66.893 64.277 C 66.9 64.323 66.726 64.386 66.823 64.741 C 67.076 65.713 67.738 67.645 68.037 68.412 C 68.403 69.396 68.441 70.28 68.567 70.662 C 68.914 71.688 69.167 71.56 69.53 72.392 C 70.66 74.935 72.018 77.324 73.639 79.541 C 75.882 82.404 78.608 84.994 82.021 86.761 C 82.395 86.969 83.933 87.339 84.651 87.604 C 84.887 87.709 86.15 88.207 86.348 88.259 C 87.133 88.51 87.792 88.843 88.238 88.969 C 89.104 89.218 90.133 89.046 90.609 89.058 C 91.308 89.086 92.45 89.151 93.026 89.157 C 93.145 89.16 93.24 89.161 93.3 89.162 C 94.153 89.166 93.884 89.534 94.5 89.421 C 94.68 89.385 94.477 89.123 95.112 89.077 C 95.644 89.035 95.881 89.218 96.254 89.211 C 96.627 89.205 97.244 88.778 97.466 88.743 C 98.638 88.561 99.211 88.643 100.464 88.232 C 101.602 88.068 105.826 85.25 105.959 84.776 C 106.077 84.624 106.158 84.509 106.21 84.427 C 106.352 84.21 106.289 84.219 106.128 84.338 C 105.775 84.633 104.844 85.456 104.746 85.507 C 103.949 86 104 85.809 103.336 86.507 C 102.31 86.305 100.095 88.505 99.082 87.778 C 98.513 88.567 97.789 88.412 96.987 88.42 C 95.869 88.417 96.755 88.649 95.948 88.754 C 95.627 88.796 94.683 88.597 94.211 88.652 C 93.77 88.705 93.57 88.896 93.026 88.934 C 92.983 88.937 92.937 88.939 92.889 88.939 C 91.735 88.953 90.803 88.785 89.886 88.415 C 89.698 88.504 89.52 88.593 89.33 88.679 C 88.686 88.461 88.053 88.217 87.44 87.948 C 87.52 88.068 87.601 88.188 87.684 88.307 C 87.49 88.279 87.296 88.247 87.103 88.212 C 86.508 87.911 85.957 87.605 85.386 87.248 C 83.509 87.165 84.165 86.87 83.296 86.408 C 82.435 85.923 81.777 85.934 81.107 85.54 C 80.214 85.002 79.792 84.767 78.959 84.122 C 78.474 83.747 77.878 82.84 78.222 83.768 C 76.703 82.632 74.773 80.846 73.843 79.381 C 73.835 79.368 73.826 79.352 73.817 79.337 C 73.611 78.991 73.901 79.193 74.014 79.252 C 74.039 79.26 74.057 79.266 74.049 79.249 C 74.044 79.24 74.04 79.231 74.035 79.223 L 74.042 79.231 C 73.85 78.857 73.443 78.719 73.22 78.346 C 72.834 77.715 72.225 76.411 71.977 75.893 C 71.607 75.158 70.705 74.167 70.625 74.054 C 70.164 73.448 70.33 73.143 70.21 72.936 C 69.537 71.748 69.328 71.495 69.705 70.886 C 69.336 70.663 68.427 69.407 68.723 68.929 C 68.356 69.044 68.037 67.846 67.75 67.137 C 67.819 66.971 67.888 66.804 67.961 66.641 C 66.871 65.283 66.772 62.035 66.683 59.968 C 66.68 59.916 66.385 59.851 66.422 59.53 C 66.425 59.51 66.556 59.53 66.555 59.32 C 66.531 58.62 66.75 55.976 66.766 55.677 C 66.765 55.443 66.757 55.248 66.743 55.081 C 66.693 54.457 66.561 54.224 66.559 53.685 C 66.562 52.789 66.762 52.669 66.789 51.822 C 66.805 51.426 66.579 51.042 66.677 50.42 C 66.735 50.051 66.938 50.036 66.987 49.748 C 67.166 48.721 67.157 47.94 67.575 47.078 C 66.994 46.727 67.535 46.374 67.675 45.938 C 68.232 44.165 68.615 41.876 69.216 40.392 C 71.08 35.769 73.631 32.139 76.637 28.414 C 77.131 27.81 77.001 27.465 77.546 26.844 C 77.792 26.566 78.212 26.428 78.615 25.978 C 78.936 25.62 79.32 25.025 79.737 24.586 C 79.848 24.469 80.015 24.607 80.18 24.437 C 80.483 24.127 80.78 23.816 81.078 23.5 C 82.006 22.519 82.916 21.525 83.906 20.554 C 84.389 20.08 84.898 20.029 84.487 19.722 C 84.763 19.649 85.024 19.569 85.288 19.507 C 85.808 18.671 86.605 18.448 87.557 17.621 C 87.658 17.53 88.213 16.682 88.8 16.565 C 88.727 16.399 88.571 16.326 88.489 16.187 C 88.881 15.817 89.679 15.504 89.986 15.318 C 90.294 15.129 90.365 14.802 90.455 14.738 C 90.797 14.499 90.885 14.807 90.914 14.793 C 92.681 13.964 92.419 13.954 93.166 12.942 C 93.352 12.684 95.224 11.94 95.394 11.431 C 95.483 11.549 95.453 11.716 95.497 11.852 C 96.026 11.586 96.572 11.318 97.109 11.06 C 96.929 10.999 96.728 10.951 96.558 10.885 C 97.68 10.39 98.42 9.614 99.316 9.157 C 99.827 8.897 99.909 9.206 100.177 8.992 C 100.23 8.949 100.034 8.814 100.201 8.709 C 101.562 7.864 102.293 7.754 103.755 7.113 C 104.443 6.814 104.877 6.193 105.968 5.985 C 106.067 5.966 107.165 5.855 107.575 5.154 C 107.825 5.214 108.025 5.217 108.217 5.276 C 109.161 4.103 109.09 4.892 110.807 4.386 C 111.691 4.12 114.542 2.915 115.468 2.513 C 116.014 2.27 115.911 2.006 116.008 1.96 C 116.59 1.687 116.682 1.947 117.223 1.714 C 117.765 1.481 118.378 0.947 118.962 0.786 C 119.411 0.662 119.167 1.101 119.785 0.775 C 119.912 0.707 119.438 0.555 120.161 0.442 C 120.274 0.424 121.471 0.375 121.719 0.37 C 121.186 0.723 119.586 1.483 118.983 1.763 C 109.052 5.961 90.059 15.047 81.627 24.053 C 81.123 24.545 80.651 25.02 80.206 25.483 C 79.45 26.272 78.756 26.615 78.272 27.143 C 77.79 27.674 78.388 27.386 77.957 27.869 C 77.531 28.351 77.084 28.604 76.702 29.074 C 74.121 32.247 71.935 35.791 70.413 39.558 C 70.018 40.536 69.953 41.404 69.669 42.311 C 69.559 42.665 69.282 42.594 69.209 42.849 C 68.427 45.607 68.219 48.26 67.933 51.072 C 67.815 52.241 67.515 53.506 67.483 54.683 C 67.479 54.815 67.48 54.948 67.483 55.081 C 67.504 55.929 67.649 56.776 67.688 57.526 C 67.713 57.996 67.512 58.259 67.505 58.43 C 67.489 59.03 67.741 58.803 67.765 59.105 C 67.833 59.938 67.556 60.388 67.677 61.167 C 67.726 61.473 67.923 61.408 68.017 61.844 C 68.138 62.4 67.921 62.22 67.977 62.621 C 67.98 62.646 68.111 62.543 68.152 62.755 C 68.409 64.113 68.892 65.762 69.246 67.032 C 69.964 69.66 70.737 72.274 71.933 74.545 C 72.237 75.116 72.321 74.87 72.43 75.043 C 72.965 75.866 72.958 76.287 73.603 77.1 C 73.711 77.236 74.317 77.651 74.657 78.213 C 74.729 78.333 74.791 78.471 74.849 78.61 L 74.821 78.576 C 74.919 78.788 75.008 79.002 75.109 79.157 C 75.278 79.411 75.494 79.291 75.734 79.56 C 76.179 80.047 75.919 80.024 76.6 80.684 C 76.874 80.952 77.938 81.667 78.668 82.293 C 79.851 83.33 81.349 84.628 83.022 85.462 C 83.595 85.75 84.438 85.864 85.353 86.195 C 86.467 86.626 88.602 87.208 89.832 87.35 C 90.456 87.433 90.477 87.691 90.551 87.711 C 91.031 87.83 90.862 87.521 91.184 87.558 C 91.626 87.607 92.035 87.842 92.447 87.865 C 92.709 87.88 92.753 87.664 92.809 87.663 C 92.882 87.661 92.954 87.659 93.026 87.657 C 95.027 87.588 96.803 87.418 98.684 86.894 C 101.113 86.215 103.333 84.984 105.114 83.255 L 105.146 83.226 C 108.174 80.54 109.812 76.76 109.717 72.765 C 109.703 69.15 108.687 65.684 106.361 63.203 C 105.883 62.685 105.393 62.178 104.892 61.682 C 104.219 61.025 104.375 60.802 103.727 60.278 C 103.072 59.753 102.09 59.699 101.961 58.768 C 101.863 58.857 101.806 58.931 101.715 59.01 C 100.589 57.898 99.211 57.098 97.889 56.299 L 97.829 56.259 C 97.708 56.179 97.588 56.098 97.47 56.016 C 96.386 55.268 95.462 54.551 94.512 53.788 C 93.672 53.107 93.891 52.989 92.979 52.624 C 91.591 51.376 90.223 50.093 88.918 48.742 L 88.875 48.698 C 86.82 46.453 85.478 43.498 85.189 40.569 C 84.609 39.656 84.683 38.645 84.781 37.397 C 84.797 37.195 84.815 36.986 84.833 36.768 C 84.852 36.57 84.658 36.776 84.712 36.185 C 84.795 35.442 85.088 35.092 85.325 33.886 C 85.348 33.568 85.781 31.135 86.342 30.398 C 86.846 29.646 87.547 28.579 88.169 27.913 C 88.001 27.956 87.821 28.031 87.646 28.094 C 87.871 27.697 88.11 27.308 88.36 26.925 C 88.512 26.954 88.664 26.983 88.814 27.016 C 88.859 26.729 88.912 26.44 88.968 26.149 C 89.889 26.15 89.325 26.454 89.993 25.379 C 90.336 24.844 90.762 24.566 91.157 24.056 C 91.298 23.873 91.252 23.619 91.417 23.418 C 91.818 22.936 91.76 23.399 92.038 23.131 C 92.314 22.866 92.51 22.249 93.131 21.902 C 92.96 22.797 94.408 21.321 94.221 20.92 C 94.388 20.785 94.541 20.682 94.716 20.54 L 94.734 20.526 C 94.761 20.505 94.789 20.483 94.817 20.46 C 95.288 21.503 95.835 20.107 96.176 19.688 C 96.505 19.271 96.662 19.531 96.753 19.453 C 97.019 19.233 96.742 19.27 96.938 19.132 C 98.251 18.218 99.624 17.592 100.989 16.833 C 101.186 16.724 100.928 16.675 101.165 16.56 C 101.401 16.446 101.703 16.471 102.038 16.273 C 102.127 16.221 102.084 16.075 102.226 15.997 C 105.219 14.383 108.188 13.145 111.364 11.839 C 111.652 11.721 111.777 11.381 112.337 11.163 C 112.902 10.943 113.837 10.829 114.537 10.579 C 114.723 10.512 114.696 10.286 114.942 10.197 C 115.782 9.898 116.568 9.797 117.447 9.508 C 118.934 9.02 120.438 8.356 121.985 7.979 C 122.277 7.908 122.289 8.098 122.719 8.011 C 123.455 7.864 123.105 7.696 123.238 7.615 C 123.513 7.448 123.718 7.504 123.94 7.508 L 123.328 8.689 C 123.331 8.561 123.318 8.427 123.233 8.269 C 123.198 8.204 123.027 8.367 123.004 8.305 C 122.667 7.349 123.125 7.15 122.55 6.201 C 122.537 5.202 123.107 6.7 123.301 6.812 C 123.772 7.085 123.87 5.943 123.816 5.305 C 123.77 4.755 123.552 4.827 123.488 4.623 C 123.15 3.541 122.605 1.942 122.452 1.086 C 122.358 0.567 122.73 1.438 122.723 1.161 C 122.716 0.886 122.5 0.773 122.599 0.458 C 122.698 0.143 123.063 -0.551 123.347 -0.53 Z M 109.364 63.301 C 108.866 63.021 108.291 62.543 107.634 62.014 C 105.974 60.655 103.892 58.703 102.523 57.568 C 100.967 56.248 99.86 54.697 99.65 55.769 C 101.464 57.016 102.945 58.025 104.667 59.6 C 104.849 59.761 105.841 60.815 106.18 61.185 C 106.373 61.391 106.261 61.515 106.53 61.787 C 106.589 61.845 107.067 62.027 107.179 62.155 C 107.218 62.199 107.262 62.254 107.31 62.316 C 107.755 62.862 108.338 64.127 108.441 64.299 C 108.803 64.824 108.894 64.485 109.078 64.704 C 109.675 65.468 109.367 65.733 109.833 66.545 C 109.912 66.689 110.435 67.103 110.582 67.806 C 110.643 68.089 110.586 68.606 110.637 68.816 C 110.929 69.966 111.284 71.296 111.258 72.41 C 111.256 72.555 111.245 72.671 111.23 72.765 C 111.148 73.259 110.959 73.146 110.915 73.54 C 110.862 74.005 111.11 74.601 111.084 74.931 C 111.047 75.457 110.753 76.047 110.72 76.203 C 110.097 79.3 108.682 81.934 106.434 84.107 C 108.076 82.763 109.486 81.09 110.468 79.16 C 110.686 77.928 110.691 78.592 111.042 77.853 C 111.3 77.258 110.905 76.988 111.132 76.201 C 111.132 76.202 111.132 76.202 111.132 76.203 C 111.248 75.801 111.725 74.923 111.651 73.993 C 111.645 73.96 111.424 73.862 111.435 73.189 C 111.436 73.055 111.436 72.913 111.433 72.765 C 111.416 71.261 111.097 69.218 110.707 67.724 C 110.583 67.242 110.856 67.265 110.691 66.685 C 110.565 66.262 110.169 65.877 109.921 65.247 C 109.607 64.463 109.713 63.882 108.927 63.696 C 109.064 63.546 109.238 63.459 109.364 63.301 Z M 90.022 27.436 C 90.105 27.342 91.579 26.523 90.777 26.459 C 89.175 27.913 88.006 29.975 87.07 32.05 C 87.949 31.556 88.207 30.3 89.011 28.936 C 89.011 28.935 89.012 28.935 89.012 28.934 C 89.05 28.871 89.029 29.221 89.227 28.852 C 89.32 28.676 89.542 27.872 90.022 27.436 Z M 57.15 -0.53 C 57.883 1.077 58.495 2.72 58.94 4.469 C 59.042 4.868 58.867 4.882 58.891 5.051 C 58.935 5.363 59.266 5.805 59.288 5.875 C 59.425 6.307 59.087 6.227 59.094 6.289 C 59.181 6.974 59.448 6.686 59.673 7.296 C 59.735 7.466 59.796 7.648 59.857 7.837 L 60.441 9.61 L 58.617 10.227 C 57.92 10.455 57.115 10.676 56.359 10.915 C 56.021 11.022 56.095 10.755 55.377 11.02 C 54.867 11.206 53.383 11.998 52.571 11.999 C 52.531 11.902 52.583 11.76 52.585 11.645 C 51.698 12.43 51.329 12.542 49.835 12.996 C 49.601 13.068 49.444 13.32 49.019 13.415 C 48.596 13.51 48.47 13.261 47.666 13.586 C 47.379 13.703 47.276 13.955 46.844 14.141 C 45.609 14.666 43.162 15.472 42.162 15.936 C 40.183 16.843 39.286 17.667 37.541 18.471 C 37.407 18.534 37.591 18.192 37.35 18.317 C 37.109 18.443 36.996 18.829 36.941 18.867 C 36.345 19.275 34.834 19.719 34.514 19.972 C 33.744 20.578 34.619 20.177 33.51 20.94 C 32.61 21.565 31.264 22.166 30.241 22.788 L 30.256 22.776 C 30.084 22.884 29.922 22.99 29.774 23.096 C 28.576 23.96 28.594 24.669 27.413 25.011 C 24.651 27.685 22.381 30.935 21.653 34.563 C 21.547 34.529 21.44 34.494 21.334 34.458 C 21.347 34.766 21.37 35.071 21.402 35.372 C 21.327 35.316 21.251 35.261 21.177 35.204 C 21.23 35.971 21.304 36.67 21.371 37.397 C 21.43 38.043 21.475 38.706 21.526 39.452 C 21.528 39.483 21.297 39.428 21.295 39.455 C 21.298 39.827 21.532 40.203 21.555 40.521 C 21.59 41.291 21.555 42.705 21.939 41.969 C 22.347 43.733 23.613 45.452 24.703 46.757 C 24.71 46.766 24.718 46.776 24.725 46.785 L 24.697 46.755 C 25.191 47.327 25.128 47.733 25.384 48.005 C 25.645 48.279 25.712 47.927 25.818 48.01 C 26.447 48.514 27.428 49.395 27.315 49.741 C 27.527 49.746 27.745 49.754 27.958 49.757 C 27.635 49.986 29.655 51.46 30.173 51.857 C 30.266 51.932 30.179 52.072 30.251 52.126 C 31.063 52.724 31.416 52.664 32.159 53.103 C 32.421 53.255 31.871 53.216 32.574 53.568 C 32.631 53.596 32.739 53.4 33.358 53.798 L 33.318 53.771 C 33.368 53.801 33.422 53.834 33.48 53.872 C 34.772 54.691 37.217 56.344 38.518 57.645 C 38.625 57.749 38.096 57.669 38.657 58.063 C 38.859 58.208 38.903 57.976 39.355 58.374 C 40.35 59.254 41.289 60.268 42.208 61.294 C 42.944 62.113 43.603 62.998 44.216 63.9 C 43.969 63.93 43.317 63.306 44.093 64.376 C 44.213 64.55 44.318 64.316 44.369 64.397 C 44.784 65.061 44.921 65.736 45.269 66.496 C 45.371 66.722 45.543 66.73 45.67 67.018 C 45.856 67.444 45.69 67.698 45.904 68.188 C 46.225 68.959 46.47 69.073 46.183 70.136 C 46.292 71.013 46.345 71.891 46.352 72.765 C 46.5 77.433 44.335 82.291 40.688 85.195 L 40.711 85.173 C 40.56 85.307 40.408 85.436 40.252 85.563 C 39.076 86.745 37.826 87.728 36.244 88.512 C 35.774 88.738 35.576 88.518 34.848 88.896 C 34.693 88.988 33.525 89.687 33.186 89.164 C 32.856 89.307 32.636 89.362 32.343 89.462 C 32.59 89.493 32.845 89.519 33.087 89.545 C 31.795 89.786 30.78 90.158 29.633 90.376 C 28.789 90.526 29.371 90.223 28.854 90.29 C 28.339 90.349 28.098 90.419 27.449 90.136 C 27.233 90.289 27.047 90.331 26.829 90.327 C 26.54 90.321 26.208 90.239 25.677 90.213 C 25.578 90.209 24.989 90.317 24.505 90.249 C 24.156 90.199 24.077 89.978 23.523 89.947 C 23.435 89.948 22.232 90.046 21.853 89.992 C 21.263 89.927 20.418 89.441 20.313 89.407 C 18.748 88.942 18.046 88.962 17.139 88.112 C 16.822 88.272 15.856 88.02 15.166 87.625 C 14.267 87.146 12.917 85.615 12.375 85.917 C 11.595 85.031 11.599 85.244 10.551 84.375 C 9.564 83.605 7.498 81.087 6.893 80.317 C 6.826 80.239 6.766 80.174 6.713 80.122 L 6.703 80.109 C 6.26 79.653 6.263 80.088 6.02 79.828 C 5.58 79.349 5.977 79.491 5.718 79.135 C 4.989 78.124 4.37 77.235 3.686 76.25 C 3.798 76.112 3.909 75.97 4.021 75.831 C 3.943 75.805 3.865 75.779 3.787 75.752 C 3.665 75.529 3.525 75.28 3.42 75.069 C 3.726 77.177 2.536 73.34 2.158 72.247 C 1.781 71.339 0.885 69.912 0.494 68.883 C 0.397 68.636 0.623 68.757 0.603 68.706 C 0.369 68.112 0.221 68.053 0.013 67.217 C -0.094 66.775 0.012 66.271 -0.082 65.843 C -0.772 62.694 -1.34 59.612 -1.443 56.412 C -1.459 55.921 -1.242 55.495 -1.193 55.081 C -1.187 55.035 -1.184 54.988 -1.183 54.942 C -1.172 54.289 -1.388 53.874 -1.369 53.257 C -1.352 52.644 -1.031 51.778 -1.038 51.364 C -1.046 50.947 -1.362 51.636 -1.229 50.882 C -1.165 50.536 -1.027 51.167 -0.983 50.739 C -0.851 49.406 -0.826 47.48 -0.317 46.115 C -0.386 46.166 -0.453 46.241 -0.522 46.307 C -0.211 44.806 0.241 43.524 0.707 42.02 C 0.868 41.495 1.014 40.495 1.198 39.982 C 1.38 39.47 1.639 39.302 1.798 38.9 C 1.864 38.735 1.685 38.74 1.731 38.629 C 2.324 37.248 2.922 36.617 3.575 35.205 C 5.879 30.264 9.227 25.661 13.083 21.692 C 13.27 21.499 13.458 21.307 13.648 21.115 C 13.812 20.951 13.778 20.685 14.002 20.428 C 14.35 20.032 14.5 20.154 14.556 20.111 C 14.92 19.831 14.664 19.827 15.117 19.414 C 16.117 18.499 17.884 17.218 18.936 16.383 C 21.35 14.455 23.397 12.834 25.923 11.151 C 26.104 11.03 26.113 11.324 26.436 11.128 C 28.727 9.769 29.087 9.265 32.047 7.757 C 34.997 6.236 40.736 3.788 44.352 2.448 C 44.352 2.448 44.353 2.449 44.353 2.449 C 45.317 1.565 46.832 1.12 48.182 1.015 C 41.528 4.66 34.781 7.035 27.893 11.184 C 22.871 14.225 18.133 18.236 14.019 22.634 C 12.223 24.549 10.549 26.535 8.985 28.564 C 8.503 29.191 8.097 29.299 7.759 29.881 C 7.702 29.98 8.039 29.857 7.858 30.155 C 5.378 34.216 2.755 38.658 1.648 43.255 C 1.354 44.489 1.536 44.736 1.36 45.828 C 1.294 45.615 1.209 45.466 1.139 45.276 C 0.21 48.438 -0.147 51.762 -0.141 55.081 C -0.139 56.901 -0.042 58.722 0.138 60.543 C 0.161 60.776 -0.06 60.831 -0.04 61.076 C 0.001 61.569 0.311 62 0.383 62.423 C 0.478 62.972 0.318 63.099 0.418 63.606 C 0.469 63.852 0.624 63.749 0.698 64.291 C 0.705 64.336 0.532 64.399 0.628 64.754 C 0.882 65.726 1.544 67.659 1.844 68.426 C 2.21 69.41 2.249 70.293 2.375 70.675 C 2.723 71.701 2.976 71.573 3.338 72.406 C 4.467 74.943 5.823 77.328 7.442 79.541 C 9.632 82.448 12.358 85.066 15.789 86.818 C 16.164 87.024 17.705 87.385 18.425 87.644 C 18.662 87.748 19.929 88.236 20.127 88.287 C 20.913 88.532 21.575 88.86 22.022 88.983 C 22.888 89.227 23.917 89.051 24.392 89.061 C 25.099 89.088 26.26 89.151 26.829 89.158 C 26.939 89.16 27.027 89.161 27.084 89.162 C 27.937 89.166 27.668 89.534 28.284 89.422 C 28.464 89.386 28.261 89.124 28.896 89.079 C 29.428 89.037 29.665 89.22 30.038 89.213 C 30.411 89.207 31.029 88.781 31.25 88.747 C 32.423 88.565 32.996 88.647 34.25 88.238 C 35.387 88.076 39.615 85.262 39.749 84.787 C 39.875 84.627 39.958 84.507 40.009 84.423 C 40.135 84.228 40.079 84.233 39.932 84.339 C 39.588 84.623 38.635 85.466 38.535 85.518 C 37.737 86.009 37.789 85.818 37.124 86.516 C 36.098 86.313 33.88 88.511 32.868 87.783 C 32.298 88.571 31.574 88.416 30.772 88.423 C 29.654 88.419 30.54 88.652 29.732 88.756 C 29.411 88.797 28.467 88.599 27.995 88.653 C 27.559 88.705 27.358 88.891 26.829 88.932 C 26.78 88.936 26.728 88.938 26.673 88.939 C 25.518 88.953 24.587 88.787 23.667 88.421 C 23.479 88.511 23.302 88.601 23.112 88.687 C 22.468 88.473 21.831 88.233 21.217 87.968 C 21.298 88.088 21.38 88.207 21.463 88.326 C 21.27 88.299 21.075 88.268 20.882 88.235 C 20.285 87.937 19.731 87.636 19.157 87.283 C 17.28 87.214 17.934 86.914 17.061 86.458 C 16.198 85.978 15.541 85.992 14.869 85.601 C 13.976 85.066 13.553 84.831 12.721 84.184 C 12.237 83.808 11.647 82.899 11.986 83.828 C 10.466 82.685 8.547 80.865 7.648 79.381 C 7.642 79.371 7.635 79.36 7.629 79.35 C 7.432 79.018 7.69 79.189 7.812 79.257 C 7.849 79.275 7.874 79.286 7.865 79.266 C 7.858 79.252 7.851 79.239 7.844 79.226 C 7.652 78.866 7.252 78.727 7.032 78.358 C 6.646 77.727 6.036 76.424 5.788 75.906 C 5.417 75.171 4.515 74.181 4.434 74.068 C 3.973 73.461 4.139 73.157 4.019 72.95 C 3.345 71.762 3.136 71.508 3.513 70.899 C 3.144 70.677 2.234 69.42 2.53 68.943 C 2.163 69.057 1.844 67.86 1.557 67.15 C 1.626 66.985 1.695 66.817 1.767 66.654 C 0.677 65.297 0.577 62.048 0.487 59.981 C 0.484 59.929 0.189 59.863 0.225 59.543 C 0.229 59.522 0.36 59.543 0.359 59.332 C 0.335 58.633 0.553 55.989 0.568 55.689 C 0.568 55.449 0.559 55.251 0.545 55.081 C 0.494 54.466 0.363 54.232 0.362 53.697 C 0.365 52.801 0.564 52.681 0.591 51.833 C 0.607 51.437 0.381 51.053 0.478 50.431 C 0.537 50.062 0.739 50.048 0.788 49.759 C 0.967 48.732 0.958 47.951 1.376 47.088 C 0.794 46.737 1.336 46.385 1.475 45.948 C 2.032 44.175 2.415 41.885 3.016 40.401 C 4.879 35.778 7.43 32.146 10.436 28.42 C 10.929 27.816 10.799 27.47 11.344 26.849 C 11.59 26.572 12.01 26.434 12.413 25.984 C 12.734 25.625 13.118 25.03 13.535 24.591 C 13.646 24.474 13.813 24.612 13.978 24.442 C 14.282 24.13 14.581 23.817 14.88 23.5 C 15.807 22.52 16.716 21.527 17.704 20.558 C 18.188 20.084 18.696 20.032 18.285 19.726 C 18.562 19.653 18.823 19.573 19.086 19.511 C 19.606 18.674 20.403 18.452 21.355 17.624 C 21.457 17.533 22.011 16.686 22.599 16.568 C 22.525 16.402 22.369 16.329 22.287 16.19 C 22.679 15.82 23.477 15.507 23.784 15.321 C 24.093 15.132 24.164 14.805 24.253 14.741 C 24.595 14.502 24.683 14.809 24.713 14.795 C 26.48 13.966 26.218 13.956 26.965 12.944 C 27.151 12.686 29.023 11.942 29.193 11.433 C 29.283 11.551 29.253 11.718 29.296 11.854 C 29.825 11.588 30.371 11.32 30.908 11.062 C 30.729 11.001 30.528 10.953 30.357 10.887 C 31.479 10.392 32.219 9.616 33.116 9.158 C 33.627 8.899 33.708 9.208 33.977 8.993 C 34.03 8.951 33.834 8.815 34.001 8.711 C 35.362 7.866 36.093 7.756 37.555 7.114 C 38.243 6.815 38.678 6.194 39.769 5.986 C 39.867 5.967 40.965 5.856 41.376 5.155 C 41.626 5.215 41.826 5.218 42.018 5.277 C 42.962 4.103 42.891 4.892 44.608 4.387 C 45.492 4.121 48.344 2.915 49.27 2.514 C 49.816 2.27 49.713 2.007 49.81 1.96 C 50.392 1.688 50.484 1.947 51.025 1.714 C 51.567 1.481 52.18 0.947 52.764 0.786 C 53.213 0.662 52.969 1.101 53.587 0.775 C 53.715 0.707 53.24 0.555 53.963 0.443 C 54.076 0.424 55.274 0.375 55.522 0.37 C 54.989 0.723 53.389 1.483 52.786 1.763 C 42.854 5.961 23.864 15.045 15.43 24.053 C 14.924 24.546 14.45 25.024 14.004 25.488 C 13.248 26.277 12.554 26.62 12.07 27.148 C 11.588 27.68 12.186 27.392 11.755 27.875 C 11.329 28.357 10.882 28.61 10.5 29.08 C 7.92 32.254 5.733 35.799 4.212 39.567 C 3.818 40.545 3.753 41.413 3.469 42.321 C 3.359 42.675 3.082 42.603 3.009 42.859 C 2.227 45.617 2.02 48.27 1.735 51.083 C 1.617 52.252 1.317 53.518 1.286 54.694 C 1.282 54.823 1.282 54.952 1.285 55.081 C 1.305 55.933 1.452 56.784 1.491 57.538 C 1.516 58.008 1.315 58.271 1.309 58.443 C 1.293 59.043 1.545 58.815 1.568 59.117 C 1.637 59.95 1.36 60.4 1.481 61.18 C 1.531 61.486 1.728 61.42 1.821 61.857 C 1.943 62.412 1.725 62.233 1.781 62.634 C 1.784 62.658 1.916 62.556 1.957 62.767 C 2.214 64.126 2.698 65.775 3.052 67.045 C 3.771 69.673 4.545 72.287 5.743 74.558 C 6.047 75.129 6.131 74.883 6.24 75.056 C 6.775 75.878 6.769 76.3 7.414 77.112 C 7.522 77.249 8.129 77.663 8.469 78.225 C 8.538 78.341 8.598 78.474 8.655 78.608 L 8.643 78.592 C 8.739 78.81 8.825 79.032 8.926 79.191 C 9.09 79.449 9.308 79.331 9.543 79.603 C 9.979 80.095 9.721 80.07 10.39 80.735 C 10.661 81.007 11.715 81.729 12.44 82.356 C 13.612 83.396 15.107 84.69 16.782 85.513 C 17.356 85.799 18.199 85.906 19.117 86.23 C 20.233 86.653 22.375 87.219 23.608 87.357 C 24.234 87.437 24.255 87.695 24.33 87.715 C 24.811 87.832 24.641 87.523 24.963 87.56 C 25.408 87.608 25.817 87.842 26.23 87.865 C 26.492 87.88 26.537 87.664 26.593 87.663 C 26.672 87.661 26.75 87.659 26.829 87.656 C 28.823 87.588 30.594 87.419 32.471 86.898 C 34.905 86.221 37.132 84.988 38.916 83.255 L 38.948 83.226 C 41.977 80.539 43.615 76.76 43.52 72.765 C 43.506 69.15 42.49 65.684 40.163 63.203 C 39.689 62.688 39.202 62.184 38.703 61.691 C 38.031 61.034 38.187 60.811 37.539 60.286 C 36.884 59.761 35.902 59.706 35.774 58.776 C 35.675 58.864 35.618 58.938 35.527 59.018 C 34.398 57.902 33.017 57.101 31.691 56.299 L 31.631 56.259 C 31.514 56.181 31.398 56.102 31.282 56.023 C 30.199 55.275 29.274 54.558 28.324 53.795 C 27.483 53.114 27.702 52.996 26.79 52.631 C 25.4 51.381 24.028 50.095 22.721 48.742 L 22.678 48.697 C 20.625 46.455 19.283 43.504 18.994 40.579 C 18.412 39.664 18.486 38.65 18.585 37.397 C 18.6 37.198 18.618 36.992 18.635 36.777 C 18.654 36.58 18.461 36.785 18.514 36.194 C 18.597 35.451 18.89 35.1 19.126 33.895 C 19.149 33.576 19.581 31.143 20.141 30.405 C 20.645 29.653 21.346 28.585 21.968 27.92 C 21.8 27.963 21.619 28.037 21.444 28.1 C 21.67 27.704 21.909 27.314 22.159 26.931 C 22.311 26.96 22.462 26.989 22.613 27.022 C 22.657 26.735 22.711 26.446 22.767 26.155 C 23.688 26.156 23.123 26.46 23.791 25.385 C 24.134 24.849 24.56 24.571 24.955 24.06 C 25.096 23.878 25.05 23.624 25.215 23.423 C 25.616 22.94 25.558 23.403 25.836 23.136 C 26.112 22.871 26.308 22.254 26.929 21.906 C 26.758 22.801 28.206 21.325 28.019 20.923 C 28.187 20.788 28.342 20.684 28.519 20.54 L 28.537 20.526 C 28.563 20.506 28.589 20.485 28.615 20.463 C 29.086 21.507 29.633 20.11 29.974 19.691 C 30.303 19.274 30.46 19.534 30.551 19.457 C 30.818 19.236 30.54 19.273 30.736 19.135 C 32.049 18.221 33.423 17.595 34.787 16.836 C 34.984 16.726 34.727 16.677 34.964 16.562 C 35.2 16.448 35.501 16.473 35.837 16.276 C 35.926 16.224 35.882 16.077 36.024 16 C 39.019 14.384 41.988 13.147 45.164 11.84 C 45.452 11.722 45.577 11.382 46.137 11.164 C 46.702 10.944 47.637 10.83 48.337 10.58 C 48.523 10.513 48.496 10.287 48.743 10.198 C 49.582 9.899 50.369 9.798 51.248 9.509 C 52.735 9.021 54.239 8.356 55.786 7.98 C 56.079 7.908 56.091 8.098 56.52 8.012 C 57.256 7.865 56.907 7.697 57.039 7.615 C 57.315 7.448 57.52 7.504 57.743 7.508 L 57.131 8.688 C 57.134 8.561 57.121 8.427 57.037 8.271 C 57.001 8.205 56.83 8.368 56.807 8.306 C 56.47 7.35 56.928 7.151 56.353 6.202 C 56.34 5.203 56.91 6.701 57.104 6.813 C 57.575 7.086 57.673 5.944 57.619 5.306 C 57.573 4.756 57.355 4.828 57.291 4.624 C 56.952 3.541 56.407 1.942 56.254 1.086 C 56.161 0.567 56.533 1.438 56.525 1.161 C 56.518 0.886 56.303 0.774 56.402 0.458 C 56.501 0.143 56.865 -0.551 57.15 -0.53 Z M 43.175 63.313 C 42.675 63.031 42.097 62.549 41.435 62.016 C 39.778 60.656 37.701 58.709 36.336 57.576 C 34.779 56.255 33.673 54.704 33.463 55.776 C 35.276 57.023 36.758 58.033 38.479 59.609 C 38.661 59.77 39.653 60.824 39.992 61.194 C 40.185 61.4 40.073 61.524 40.342 61.796 C 40.401 61.854 40.879 62.036 40.991 62.165 C 41.027 62.206 41.069 62.257 41.114 62.316 C 41.558 62.856 42.148 64.137 42.25 64.31 C 42.613 64.835 42.704 64.497 42.888 64.716 C 43.483 65.48 43.176 65.745 43.64 66.558 C 43.72 66.701 44.242 67.116 44.389 67.819 C 44.45 68.103 44.391 68.619 44.442 68.83 C 44.734 69.981 45.087 71.311 45.061 72.425 C 45.059 72.562 45.049 72.674 45.035 72.765 C 44.954 73.276 44.762 73.157 44.717 73.554 C 44.664 74.02 44.911 74.616 44.885 74.946 C 44.847 75.472 44.553 76.062 44.519 76.217 C 43.893 79.315 42.474 81.947 40.224 84.119 C 41.867 82.776 43.28 81.104 44.264 79.175 C 44.483 77.943 44.488 78.607 44.839 77.869 C 45.098 77.274 44.704 77.003 44.932 76.216 C 44.932 76.217 44.932 76.218 44.931 76.218 C 45.048 75.816 45.526 74.939 45.452 74.008 C 45.447 73.975 45.225 73.877 45.237 73.204 C 45.239 73.065 45.238 72.919 45.235 72.765 C 45.218 71.262 44.901 69.228 44.514 67.738 C 44.39 67.256 44.663 67.279 44.499 66.699 C 44.373 66.275 43.977 65.89 43.73 65.259 C 43.417 64.475 43.523 63.894 42.738 63.708 C 42.875 63.557 43.049 63.47 43.175 63.313 Z M 23.821 27.442 C 23.903 27.347 25.378 26.528 24.575 26.464 C 22.973 27.919 21.805 29.982 20.87 32.058 C 21.749 31.563 22.006 30.307 22.81 28.942 C 22.81 28.941 22.811 28.941 22.811 28.94 C 22.849 28.877 22.828 29.227 23.026 28.858 C 23.119 28.682 23.341 27.878 23.821 27.442 Z" fill="currentColor" fill-rule="nonzero"></path>
</svg>