<svg xmlns="http://www.w3.org/2000/svg" width="50.901" height="37.721" viewBox="0 0 50.901 37.721" fill="none">
  <path d="M 39.98 0.001 C 31.58 0.055 26.052 4.419 25.452 4.904 C 24.925 4.48 20.837 1.208 14.015 0.255 L 14.013 0.255 C 11.593 -0.082 8.888 -0.099 5.972 0.466 C 5.18 0.62 4.58 1.16 4.306 1.856 L 2.014 1.856 C 0.911 1.856 0 2.76 0 3.865 L 0 30.589 C 0 31.176 0.32 31.726 0.774 32.026 C 1.231 32.328 1.79 32.418 2.353 32.326 C 15.586 30.191 24.96 37.552 24.96 37.552 L 24.964 37.552 C 25.251 37.778 25.658 37.778 25.945 37.552 C 25.945 37.552 35.322 30.191 48.552 32.326 C 49.113 32.418 49.668 32.328 50.124 32.026 C 50.579 31.724 50.899 31.174 50.899 30.589 L 50.901 3.865 C 50.901 2.762 49.99 1.856 48.887 1.856 L 46.601 1.856 C 46.325 1.157 45.721 0.618 44.929 0.466 C 43.189 0.129 41.537 -0.01 39.98 0.001 Z M 40.222 1.603 C 41.62 1.601 43.094 1.729 44.632 2.027 C 44.856 2.071 45.178 2.471 45.178 2.725 L 45.178 26.953 C 45.178 27.081 45.152 27.097 45.132 27.112 C 45.115 27.127 45.069 27.155 44.934 27.129 C 35.472 25.294 28.562 29.356 26.252 30.976 L 26.25 6.196 C 27.476 5.265 32.762 1.61 40.222 1.603 Z M 10.686 1.605 C 11.773 1.608 12.815 1.686 13.804 1.823 C 19.604 2.623 23.612 5.405 24.658 6.2 L 24.658 30.98 C 22.355 29.365 15.439 25.296 5.972 27.131 C 5.837 27.157 5.791 27.129 5.772 27.114 C 5.754 27.099 5.726 27.083 5.726 26.955 L 5.726 2.727 C 5.726 2.473 6.054 2.071 6.278 2.029 C 7.816 1.731 9.288 1.605 10.686 1.608 L 10.686 1.605 Z M 2.016 3.45 L 4.14 3.45 L 4.14 26.955 C 4.14 27.501 4.375 28.032 4.786 28.358 C 5.197 28.684 5.752 28.795 6.278 28.693 C 17.208 26.572 24.94 33.077 24.94 33.077 L 24.94 33.079 C 24.951 33.083 24.96 33.09 24.971 33.094 C 25.108 33.203 25.277 33.264 25.451 33.266 C 25.636 33.266 25.817 33.198 25.958 33.079 L 25.962 33.079 C 25.962 33.079 33.702 26.574 44.631 28.695 C 45.158 28.797 45.712 28.686 46.123 28.36 C 46.534 28.034 46.767 27.503 46.767 26.957 L 46.767 3.449 L 48.887 3.449 C 49.133 3.449 49.309 3.623 49.309 3.865 L 49.309 30.589 C 49.309 30.674 49.311 30.66 49.25 30.7 C 49.189 30.741 49.035 30.795 48.805 30.758 C 35.394 28.592 26.138 35.512 25.451 36.036 C 24.758 35.508 15.512 28.595 2.105 30.758 C 1.872 30.795 1.72 30.739 1.659 30.7 C 1.598 30.658 1.594 30.674 1.594 30.589 L 1.594 3.865 C 1.594 3.623 1.772 3.45 2.016 3.45 Z" fill="currentColor" fill-rule="nonzero"></path>
</svg>