<svg xmlns="http://www.w3.org/2000/svg" width="398.987" height="801.899" viewBox="0 0 398.987 801.899" fill="none">
  <path d="M 286.461 54.895 C 294.228 60.594 308.652 72.294 316.25 79.091 C 316.391 79.215 316.532 79.339 316.673 79.463 C 318.495 81.072 320.192 82.587 322.181 84.394 C 326.884 88.751 333.395 94.459 345.728 107.666 C 349.304 111.511 352.801 115.45 356.181 119.469 C 375.497 142.541 392.21 169.094 397.857 199.128 C 403.321 225.303 397.832 254.777 377.278 272.866 C 376.738 273.373 376.21 273.857 375.667 274.342 C 364.954 284.125 349.125 292.024 338.739 296.126 C 325.559 301.378 316.33 303.918 308.806 306.016 C 265.265 317.75 220.48 323.196 176.382 331.787 C 162.561 334.45 148.709 337.389 135.151 340.833 C 122.502 344.05 110.089 347.697 97.938 352.121 C 90.782 354.744 84.289 357.433 78.18 360.271 C 69.809 364.151 62.379 368.3 56.704 371.896 C 42.569 380.596 28.678 393.499 20.858 404.992 C 19.558 406.84 18.387 408.633 17.346 410.325 C 11.578 419.738 7.412 430.035 4.799 440.76 C 4.614 441.485 4.434 442.221 4.257 442.974 C 4.108 443.61 3.962 444.26 3.819 444.925 C 1.962 453.787 0.206 465.01 0.586 482.031 C 0.796 490.027 1.542 499.22 3.292 509.915 C 4.441 516.814 5.213 520.376 5.805 523.22 C 5.984 524.062 6.156 524.853 6.336 525.652 C 6.953 528.393 7.691 531.28 8.633 534.678 C 9.841 539.017 11.391 544.261 13.626 551.129 C 20.915 572.927 25.517 581.989 28.658 588.951 C 29.611 590.986 30.49 592.827 31.397 594.71 C 34.304 600.788 38.639 609.414 42.055 615.827 C 44.734 620.932 50.419 631.007 54.962 638.473 C 56.675 641.308 59.006 645.151 61.801 649.61 C 64.675 654.198 68.134 659.581 71.866 665.158 C 81.399 679.35 86.807 686.684 91.06 692.521 C 92.279 694.182 93.462 695.781 94.618 697.334 C 98.269 702.239 102.868 708.295 107.594 714.329 C 113.264 721.58 119.072 728.743 123.688 734.299 C 135.409 748.523 147.46 762.343 159.955 775.867 C 166.294 782.732 172.696 789.503 177.271 794.308 C 181.854 799.128 184.525 801.908 184.235 801.857 C 184.298 802.146 181.399 799.588 176.636 794.933 C 171.882 790.294 165.363 783.614 158.995 776.756 C 146.031 762.802 133.488 748.471 121.341 733.735 C 106.527 715.752 92.418 697.301 79.164 678.228 C 69.864 664.838 61.056 651.253 52.749 637.24 C 51.897 635.802 51.05 634.359 50.209 632.912 C 43.285 621.128 36.897 609.077 32.663 600.449 C 29.171 593.355 26.778 588.032 24.808 583.513 C 23.457 580.408 22.275 577.595 21.111 574.774 C 20.485 573.257 19.639 571.183 18.655 568.678 C 14.57 558.409 8.399 540.731 4.749 523.967 C 3.101 516.596 1.569 507.891 0.649 499.5 C -0.722 487.563 -0.685 476.291 -0.446 470.631 C -0.162 462.38 0.887 453.167 2.68 444.688 C 3.06 442.871 3.472 441.11 3.909 439.415 C 6.273 430.098 9.678 422.299 11.773 418.04 C 14.241 413.028 16.78 408.609 21.001 402.795 C 23.973 398.759 27.889 393.9 33.915 388.092 C 40.927 381.409 46.507 377.4 51.308 374.111 C 58.214 369.49 63.401 366.477 71.642 362.26 C 80.681 357.67 90.564 353.643 98.521 350.804 C 102.183 349.491 106.194 348.124 110.559 346.737 C 116.359 344.892 122.364 343.154 127.964 341.661 C 132.586 340.429 136.43 339.495 139.789 338.703 C 140.842 338.455 141.855 338.219 142.837 337.993 C 146.515 337.115 150.255 336.26 153.95 335.446 C 154.545 335.309 155.171 335.167 155.825 335.018 C 159.108 334.275 163.161 333.379 168.218 332.342 C 176.202 330.707 183.208 329.408 190.639 328.074 C 196.413 327.039 202.421 325.992 209.315 324.788 C 214.026 323.964 219.381 323.029 224.664 322.104 C 232.57 320.721 240.325 319.347 245.713 318.393 C 247.753 318.032 249.504 317.735 251.232 317.44 C 251.239 317.439 251.247 317.438 251.255 317.436 C 251.372 317.416 251.49 317.396 251.607 317.376 C 264.676 314.97 277.782 312.393 290.858 309.329 C 291.977 309.063 293.102 308.791 294.213 308.519 C 299.666 307.189 305.117 305.732 308.491 304.758 C 312.068 303.732 321.662 301.002 331.264 297.436 C 337.63 295.09 343.945 292.392 349.075 289.852 C 352.033 288.39 354.729 286.993 357.628 285.348 C 360.279 283.839 362.905 282.228 365.612 280.351 C 367.029 279.368 368.533 278.266 370.072 277.058 C 371.427 275.994 372.817 274.843 374.218 273.605 C 375.467 272.497 378.527 269.786 381.794 266.022 C 383.81 263.705 385.985 260.887 387.961 257.757 C 393.19 249.444 396.36 240.17 397.608 230.24 C 397.853 228.16 397.96 226.548 398.02 225.147 C 398.06 224.159 398.073 223.307 398.074 222.426 C 398.075 221.226 398.06 219.974 398.005 218.214 C 397.965 216.858 397.884 215.112 397.838 214.182 C 397.816 213.713 397.802 213.351 397.787 213.022 C 397.77 212.645 397.754 212.307 397.721 211.893 C 397.698 211.594 397.666 211.283 397.625 210.899 C 397.558 210.286 397.47 209.487 397.332 208.25 C 397.031 205.572 396.6 202.604 396.02 199.469 C 395.631 197.361 395.173 195.223 394.659 193.111 C 393.296 187.476 391.528 182.125 389.923 177.917 C 388.149 173.207 385.301 166.617 381.913 160.198 C 379.608 155.795 377.012 151.358 374.739 147.743 C 372.492 144.162 369.994 140.48 367.509 137.027 C 364.501 132.843 361.492 128.956 358.872 125.662 C 358.343 124.996 357.696 124.156 356.877 123.11 C 356.302 122.375 355.635 121.531 354.863 120.577 C 351.424 116.487 347.866 112.48 344.222 108.566 C 344.091 108.43 343.956 108.29 343.82 108.15 C 343.818 108.148 343.816 108.146 343.814 108.144 C 340.744 104.982 336.526 100.72 330.496 94.793 C 328.963 93.289 328.003 92.337 327.137 91.481 C 326.285 90.639 325.526 89.893 324.379 88.822 C 323.077 87.606 321.517 86.196 319.806 84.678 C 317.41 82.549 314.694 80.187 311.981 77.813 C 311.796 77.651 311.597 77.477 311.39 77.296 C 309.428 75.583 306.497 73.063 303.555 70.566 C 294.761 63.295 285.734 56.307 276.5 49.547 C 261.172 38.333 245.344 27.777 229.019 17.793 C 221.104 12.951 213.439 8.439 207.78 5.156 C 202.12 1.869 198.967 0.075 199.075 -0.051 C 199.115 -0.212 202.42 1.308 208.207 4.388 C 213.994 7.465 221.75 11.855 229.699 16.676 C 242.651 24.526 255.379 32.8 267.763 41.457 C 268.41 41.907 269.061 42.362 269.712 42.818 C 274.625 46.267 278.973 49.377 283.434 52.655 C 284.439 53.393 285.448 54.14 286.461 54.895 Z" fill="currentColor" fill-rule="nonzero"></path>
</svg>