<svg xmlns="http://www.w3.org/2000/svg" width="0" height="862" viewBox="0 0 0 862" fill="none">
  <path d="M 0.99 8.211 C 1.016 13.041 0.988 19.373 0.95 24.185 C 0.938 25.693 0.885 24.93 0.874 25.971 C 0.854 28.007 0.88 29.904 0.855 31.916 C 0.847 32.583 0.763 31.753 0.756 32.452 C 0.719 36.283 0.74 39.908 0.722 43.79 C 0.634 62.909 0.603 81.702 0.565 101.055 C 0.552 107.436 0.476 115.193 0.509 121.784 C 0.513 122.554 0.587 122.095 0.593 122.241 C 0.686 124.537 0.537 123.774 0.517 125.273 C 0.439 131.223 0.432 137.84 0.461 143.566 C 0.473 146.002 0.62 143.559 0.537 146.012 C 0.532 146.183 0.454 145.565 0.445 146.233 C 0.427 147.748 0.44 150.622 0.434 151.796 C 0.422 154.059 0.423 154.434 0.422 156.574 C 0.42 159.5 0.381 162.981 0.399 166.12 C 0.403 166.79 0.483 165.903 0.497 166.972 C 0.51 168.042 0.503 170.871 0.485 171.825 C 0.466 172.78 0.403 172.373 0.388 172.542 C 0.266 173.931 0.435 177.205 0.439 177.626 C 0.51 185.305 0.414 191.89 0.415 199.098 C 0.415 204.57 0.447 210.422 0.442 215.628 C 0.437 221.832 0.393 227.089 0.401 233.115 C 0.402 233.752 0.496 233.006 0.497 233.783 C 0.508 242.036 0.498 250.231 0.434 258.448 C 0.427 259.272 0.345 258.21 0.333 259.034 C 0.265 264.075 0.102 272.05 0.462 275.044 C 0.448 278.459 0.434 282.604 0.361 285.659 C 0.314 287.628 0.224 285.716 0.262 288.135 C 0.271 288.681 0.35 287.971 0.357 288.789 C 0.386 292.235 0.36 295.999 0.401 299.407 C 0.409 300.1 0.48 299.911 0.493 300.108 C 0.596 301.758 0.426 304.507 0.413 305.106 C 0.321 309.668 0.357 312.999 0.355 317.249 C 0.354 318.236 0.449 317.07 0.452 318.019 C 0.466 322.941 0.458 328.039 0.415 332.859 C 0.406 333.931 0.325 332.945 0.316 333.457 C 0.279 335.716 0.432 336.217 0.399 338.383 C 0.392 338.84 0.322 338.582 0.315 338.666 C 0.195 339.97 0.365 341.102 0.368 341.438 C 0.419 345.68 0.243 348.392 0.268 352.49 C 0.271 352.98 0.359 351.874 0.362 353.253 C 0.386 362.434 0.362 372.145 0.292 381.233 C 0.281 382.646 0.215 381.637 0.207 381.726 C 0.08 383.175 0.25 384.113 0.257 384.573 C 0.303 388.208 0.16 391.604 0.363 394.073 C 0.293 409.467 0.406 424.79 0.225 440.057 C 0.223 440.251 0.139 439.903 0.135 440.29 C 0.088 444.953 0.218 444.058 0.378 447.143 C 0.418 447.92 0.225 450.284 0.211 450.494 C 0.159 451.256 0.035 450.465 0.025 450.72 C -0.054 452.832 0.358 452.488 0.358 455.337 C 0.357 455.426 0.281 455.052 0.274 455.291 C 0.25 456.034 0.28 456.771 0.254 457.498 C 0.194 459.161 -0.007 459.754 0.11 462.295 C 0.125 462.617 0.359 462.126 0.348 464.669 C 0.343 465.683 0.347 470.172 0.332 471.43 C 0.317 472.686 0.242 471.824 0.238 471.913 C 0.139 475.299 0.097 474.015 -0.05 475.711 C -0.197 477.407 0.153 476.937 0.193 477.628 C 0.232 478.321 0.149 480.803 0.121 481.413 C 0.092 482.023 0.044 481.263 0.028 481.805 C -0.078 485.399 0.202 483.382 0.258 484.567 C 0.39 487.359 0.13 489.534 0.104 492.09 C 0.097 492.782 0.156 492.217 0.162 492.833 C 0.183 495.273 0.102 496.74 0.176 499.515 C 0.188 499.969 0.345 502.213 0.23 503.665 C 0.214 503.871 0.149 503.286 0.134 504.326 C 0.112 505.879 0.098 508.677 0.12 510.347 C 0.136 511.579 0.243 510.167 0.21 511.718 C 0.195 512.407 0.132 511.13 0.11 512.425 C 0.087 513.714 0.09 517.008 0.092 518.262 C 0.094 519.513 0.175 518.828 0.181 518.929 C 0.212 519.541 0.251 521.943 0.251 522.155 C 0.261 532.86 0.124 542.731 0.169 553.154 C 0.173 553.971 0.258 553.427 0.26 553.551 C 0.295 556.352 0.068 554.144 -0.008 556.1 C 0.166 555.817 0.134 556.972 0.153 558.944 C 0.163 559.894 0.23 559.377 0.237 559.464 C 0.338 560.873 0.207 561.855 0.18 562.107 C 0.081 563.041 0.198 564.057 0.132 564.692 C 0.066 565.327 -0.031 563.866 -0.03 565.758 C 0.032 566.288 0.194 564.884 0.22 566.32 C 0.32 571.739 0.192 581.854 0.179 586.211 C 0.166 590.559 0.177 591.963 0.155 594.497 C 0.114 599.074 0.235 597.396 0.29 600.238 C 0.345 603.089 0.049 601.703 -0.015 602.113 C -0.078 602.515 -0.013 602.954 -0.048 603.454 C -0.083 603.953 -0.126 602.873 -0.139 604.046 C -0.152 605.22 -0.039 608.428 0.027 608.844 C 0.168 609.723 0.316 608.277 0.264 611.382 C 0.261 611.561 0.183 610.981 0.176 611.665 C 0.116 617.096 0.112 622.738 0.059 628.162 C 0.052 628.908 -0.035 628.241 -0.04 628.675 C -0.096 633.196 0.05 631.58 0.212 634.058 C -0.003 633.502 -0.135 634.872 -0.137 638.303 C -0.137 640.366 -0.043 640.011 0.023 641.345 C 0.043 641.745 -0.022 643.205 0.023 643.469 C 0.168 644.341 0.33 642.967 0.265 646.504 C 0.262 646.66 0.183 646.165 0.178 646.702 C 0.147 650.168 0.298 650.583 0.316 654.331 C 0.331 657.268 0.239 662.492 0.223 665.836 C -0.019 665.766 0.036 668.925 0.204 670.206 C 0.197 672.377 0.206 674.721 0.183 676.819 C 0.175 677.541 0.105 677.067 0.097 677.158 C -0.022 678.554 0.141 679.497 0.148 679.966 C 0.21 685.043 0.086 689.181 0.207 694.026 C 0.211 694.199 0.38 694.477 0.257 695.773 C 0.248 695.856 0.171 694.256 0.165 696.536 C 0.16 698.815 0.069 703.113 0.147 706.279 C 0.166 707.045 0.303 708.982 0.196 710.537 C 0.181 710.744 0.133 710.517 0.106 710.816 C 0.021 711.783 0.191 712.311 0.046 713.447 C -0.098 714.583 -0.207 716.947 -0.107 720.139 C -0.104 720.24 0.031 720.996 0.029 722 C 0.025 723.602 -0.003 725.877 -0.002 727.551 C -0.002 728.352 0.082 727.839 0.084 727.978 C 0.131 733.365 0.056 737.199 0.024 742.969 C 0.018 744.027 0.132 747.067 0.041 749.115 C -0.057 751.364 -0.469 749.053 -0.371 754.222 C -0.332 756.306 0.19 758.946 -0.08 762.692 C -0.013 769.958 -0.152 776.678 -0.056 783.964 C -0.052 784.292 0.094 785.328 0.092 786.098 C 0.089 787.242 0.021 787.87 0.016 788.686 C -0.004 792.108 0.054 795.239 0.045 798.538 C 0.042 799.79 -0.029 799.352 -0.033 800.846 C -0.036 802.339 0.056 803.335 0.011 805.358 C -0.023 806.886 -0.212 808.413 -0.234 810.441 C -0.047 810.519 -0.051 811.911 -0.002 814.387 C 0.008 814.863 0.073 814.353 0.081 814.578 C 0.114 815.494 0.06 816.342 0.097 817.212 C 0.106 817.424 0.169 817.433 0.18 817.607 C 0.274 819.078 0.131 821.501 0.106 821.917 C 0.011 823.513 0.094 824.258 0.056 825.482 C 0.019 826.704 -0.028 824.877 -0.051 826.304 C -0.097 829.262 -0.087 833.063 -0.09 836.067 C -0.091 837.265 -0.006 836.448 -0.004 836.619 C 0.018 839.098 -0.073 841.604 0.097 842.979 C -0.342 844.697 0.139 844.474 0.052 848.016 C 0.044 848.296 -0.163 848.651 -0.194 847.579 C -0.224 846.508 -0.159 844.883 -0.207 843.396 C -0.218 843.044 -0.412 841.028 -0.424 840.753 C -0.516 838.597 -0.206 838.292 -0.189 838.178 C -0.005 836.885 -0.215 834.421 -0.229 833.772 C -0.295 830.803 -0.252 828.281 -0.299 825.798 C -0.33 824.174 -0.533 824.015 -0.527 822.74 C -0.506 818.5 -0.223 817.021 -0.468 813.026 C -0.521 812.169 -0.743 813.021 -0.568 809.951 C -0.557 809.759 -0.398 807.48 -0.499 806.163 C -0.511 805.998 -0.576 806.003 -0.581 805.785 C -0.617 804.324 -0.565 803.349 -0.59 801.757 C -0.614 800.165 -0.651 798.251 -0.629 796.433 C -0.616 795.338 -0.496 793.932 -0.466 793.408 C -0.381 791.927 -0.52 790.34 -0.418 789.423 C -0.314 788.498 -0.157 790.306 -0.09 787.88 C -0.258 787.791 -0.431 787.584 -0.6 787.44 C -0.594 782.124 -0.539 776.894 -0.547 771.561 C -0.548 770.9 -0.638 771.576 -0.642 770.867 C -0.656 767.876 -0.592 765.264 -0.617 762.163 C -0.638 759.762 -0.733 757.13 -0.757 754.62 C -0.565 753.086 -0.63 749.361 -0.613 746.655 C -0.607 745.707 -0.555 745.771 -0.539 745.097 C -0.477 742.554 -0.647 743.745 -0.673 743.048 C -0.788 740.057 -0.403 739.801 -0.412 736.274 C -0.413 736.088 -0.618 733.804 -0.631 733.489 C -0.714 731.49 -0.559 733.158 -0.544 731.907 C -0.516 729.624 -0.467 728.037 -0.527 725.357 C -0.545 724.576 -0.673 722.702 -0.574 721.184 C -0.561 720.985 -0.493 721.095 -0.489 720.934 C -0.423 718.026 -0.636 717.95 -0.708 716.288 C -0.781 714.626 -0.633 712.059 -0.591 711.537 C -0.481 710.17 -0.544 712.584 -0.533 712.658 C -0.405 713.527 -0.427 711.655 -0.417 710.225 C -0.208 710.017 -0.22 708.017 -0.406 708.742 C -0.427 708.824 -0.407 709.937 -0.417 710.225 C -0.622 708.969 -0.648 706.77 -0.456 704.342 C -0.367 703.205 -0.262 704.28 -0.3 700.827 C -0.317 699.26 -0.461 699.865 -0.501 698.482 C -0.59 695.323 -0.456 691.217 -0.477 687.96 C -0.485 686.777 -0.563 687.929 -0.571 687.121 C -0.593 684.977 -0.534 683.086 -0.564 680.933 C -0.567 680.737 -0.649 681.214 -0.65 680.545 C -0.66 675.468 -0.607 671.048 -0.606 665.747 C -0.605 663.186 -0.65 658.608 -0.641 655.955 C -0.626 651.357 -0.506 645.7 -0.535 641.773 C -0.554 639.211 -0.636 639.773 -0.692 638.675 C -0.801 636.557 -0.606 632.807 -0.576 632.302 C -0.575 632.287 -0.556 634.491 -0.513 633.315 C -0.425 632.631 -0.576 632.327 -0.576 632.302 C -0.556 631.971 -0.538 627.567 -0.553 626.693 C -0.562 626.217 -0.64 626.483 -0.643 626.235 C -0.713 620.347 -0.733 614.448 -0.696 608.475 C -0.695 608.37 -0.608 608.529 -0.605 608.281 C -0.566 604.824 -0.673 602.61 -0.736 599.758 C -0.8 596.907 -0.779 594.646 -0.629 592.958 C -0.647 590.807 -0.581 587.72 -0.541 585.944 C -0.501 584.168 -0.671 583.92 -0.674 583.764 C -0.782 578.89 -0.684 576.072 -0.669 571.015 C -0.662 568.611 -0.686 563.842 -0.705 561.239 C -0.72 559.182 -0.68 557.943 -0.706 556.047 C -0.709 555.791 -0.785 556.05 -0.788 555.971 C -0.878 553.856 -0.693 554.873 -0.66 554.436 C -0.54 552.852 -0.476 551.874 -0.532 549.165 C -0.545 548.54 -0.812 546.72 -0.827 545.581 C -0.847 544.1 -0.752 544.659 -0.775 543.108 C -0.777 542.975 -0.836 543.003 -0.833 542.046 C -0.822 537.603 -0.787 532.76 -0.793 528.143 C -0.794 527.512 -0.887 528.321 -0.89 527.41 C -0.901 523.134 -0.897 518.448 -0.854 514.283 C -0.843 513.258 -0.777 513.9 -0.758 513.678 C -0.64 512.312 -0.811 510.374 -0.814 510.054 C -0.896 502.428 -0.742 496.591 -0.815 488.818 C -0.82 488.395 -1.003 485.138 -0.846 483.685 C -0.835 483.586 -0.675 482.148 -0.784 480.877 C -0.791 480.798 -0.874 481.694 -0.866 480.131 C -0.857 478.567 -0.912 476.052 -0.822 473.903 C -0.793 473.223 -0.633 471.615 -0.76 469.585 C -0.769 469.453 -1.058 466.32 -0.859 465.202 C -0.826 465.021 -0.615 465.211 -0.723 462.788 C -0.744 462.326 -0.791 463.166 -0.821 461.947 C -0.866 460.079 -0.809 457.604 -0.903 455.308 C -0.92 454.907 -1.063 453.203 -0.955 451.835 C -0.938 451.621 -0.867 452.028 -0.859 451.306 C -0.821 447.872 -0.869 444.276 -0.82 440.79 C -0.803 439.555 -0.689 440.186 -0.658 438.899 C -0.628 437.612 -0.599 435.018 -0.651 433.671 C -0.703 432.323 -0.884 433.795 -0.899 431.777 C -0.962 423.001 -0.855 414.309 -0.84 405.546 C -0.837 404.246 -0.902 405.324 -0.903 403.409 C -0.908 396.348 -0.969 384.157 -0.831 378.03 C -0.721 373.121 -0.637 379.299 -0.592 375.547 C -0.57 373.737 -0.781 371.778 -0.788 371.341 C -0.855 367.072 -0.762 364.106 -0.79 360.263 C -0.796 359.47 -0.882 360.248 -0.886 359.573 C -0.901 357.266 -0.863 354.842 -0.87 352.638 C -0.873 351.649 -0.938 351.831 -0.933 350.921 C -0.922 348.744 -0.894 346.819 -0.833 344.697 C -0.828 344.503 -0.746 345.807 -0.743 344.197 C -0.739 341.59 -0.678 338.354 -0.741 335.355 C -0.76 334.465 -0.909 334.43 -0.806 332.517 C -0.784 332.116 -0.605 332.628 -0.76 330.399 C -0.786 330.024 -0.994 326.281 -0.86 324.444 C -0.824 323.959 -0.678 322.723 -0.701 321.652 C -0.704 321.507 -0.785 322.089 -0.792 321.202 C -0.819 318.077 -0.81 314.801 -0.835 311.59 C -0.842 310.733 -0.925 312.01 -0.933 310.732 C -0.953 307.218 -0.932 302.83 -0.906 299.394 C -0.897 298.127 -0.828 299.003 -0.82 298.911 C -0.699 297.428 -0.863 296.552 -0.873 296.06 C -0.93 293 -0.853 290.669 -0.873 287.849 C -0.879 287.07 -0.957 287.622 -0.964 287.467 C -1.032 285.86 -0.892 287.057 -0.876 286.04 C -0.832 283.191 -0.838 280.014 -0.848 277.132 C -0.852 276.074 -0.943 277.264 -0.945 276.314 C -0.961 270.691 -0.952 264.846 -0.902 259.359 C -0.893 258.326 -0.823 258.976 -0.807 258.761 C -0.695 257.277 -0.847 255.102 -0.862 254.601 C -0.928 252.326 -0.866 251.442 -0.878 249.432 C -0.935 239.615 -0.894 227.493 -0.869 218.226 C -0.837 206.15 -0.77 196.78 -0.787 185.264 C -0.788 184.533 -0.881 185.271 -0.883 184.64 C -0.906 176.494 -0.87 168.475 -0.896 160.313 C -0.898 159.643 -0.987 160.609 -0.993 159.534 C -1.006 157.329 -1.001 154.536 -0.973 152.306 C -0.96 151.219 -0.884 152.677 -0.872 151.583 C -0.844 149.034 -0.837 146.302 -0.851 143.684 C -0.858 142.57 -0.948 144.251 -0.949 142.803 C -0.958 132.939 -0.973 123.252 -0.857 113.284 C -0.849 112.601 -0.665 112.001 -0.7 110.548 C -0.751 110.439 -0.811 110.445 -0.866 110.397 C -0.895 96.038 -0.831 81.825 -0.821 67.426 C -0.821 66.819 -0.918 67.868 -0.918 66.693 C -0.916 59.89 -0.943 53.284 -0.847 46.325 C -0.837 45.635 -0.667 45.989 -0.692 43.954 C -0.697 43.595 -0.72 40.531 -0.757 39.739 C -0.763 39.631 -0.842 40.19 -0.845 39.203 C -0.857 33.464 -0.839 27.451 -0.79 21.722 C -0.782 20.798 -0.697 21.782 -0.69 21.124 C -0.645 16.453 -0.71 11.372 -0.633 6.908 C -0.581 3.921 -0.434 5.027 -0.29 3.439 C -0.269 3.215 -0.266 1.365 -0.182 1.269 C 0.029 1.023 0.261 1.92 0.486 1.552 C 0.535 1.474 0.482 -1.004 0.6 0.463 C 0.607 0.566 0.646 2.362 0.686 2.805 C 0.714 3.113 0.799 2.558 0.834 3.186 C 0.869 3.815 0.798 4.505 0.839 5.547 C 0.881 6.589 0.978 6.131 0.99 8.211 Z M -0.361 577.947 C -0.279 576.303 -0.579 576.06 -0.507 577.839 C -0.503 577.925 -0.365 578.032 -0.361 577.947 Z M -0.314 776.924 C -0.182 774.774 -0.376 773.303 -0.478 774.819 C -0.58 776.336 -0.354 777.579 -0.314 776.924 Z M -0.218 799.219 C -0.114 796.706 -0.538 796.31 -0.452 799.001 C -0.447 799.158 -0.224 799.365 -0.218 799.219 Z M -0.249 10.802 C -0.245 10.779 -0.241 9.449 -0.245 9.417 C -0.34 8.709 -0.347 11.368 -0.249 10.802 Z M -0.113 821.342 C -0.055 820.557 -0.122 818.299 -0.193 819.274 C -0.25 820.058 -0.184 822.319 -0.113 821.342 Z M -0.042 492.159 C -0.037 492.133 -0.033 491.18 -0.059 491.199 C -0.14 491.264 -0.117 492.591 -0.042 492.159 Z M -0.108 858.943 C -0.092 853.388 0.258 850.02 0.219 856.069 C 0.212 857.165 0.107 853.708 0.076 855.103 C 0.018 857.654 0.238 859.348 0.12 861.952 C 0.099 862.423 -0.11 859.26 -0.108 858.934 C -0.108 858.937 -0.108 858.94 -0.108 858.943 Z M -0.002 577 C 0.002 576.967 0.006 575.647 0.002 575.616 C -0.093 574.901 -0.101 577.56 -0.002 577 Z M 0.143 436.525 C 0.151 436.452 0.159 433.389 0.152 433.289 C -0.004 431.692 -0.02 437.884 0.143 436.525 Z M 0.217 665.889 C 0.313 667.329 0.324 669.052 0.204 670.2 C 0.21 668.768 0.211 667.328 0.217 665.889 Z" fill="currentColor" fill-rule="nonzero"></path>
</svg>