<svg xmlns="http://www.w3.org/2000/svg" width="369.267" height="1834" viewBox="0 0 369.267 1834" fill="none">
  <path d="M 239.939 1746.025 C 215.815 1666.796 180.676 1619.919 135.61 1557.373 C 115.601 1529.903 93.096 1501.597 73.927 1468.74 C 64.76 1452.252 55.584 1434.49 55.179 1413.615 C 54.301 1392.315 70.553 1374.122 88.427 1365.002 C 162.858 1322.904 206.804 1432.728 273.283 1411.264 L 273.07 1411.321 C 321.301 1395.543 342.417 1341.18 344.758 1297.575 C 345.885 1272.337 341.09 1244.689 323.259 1226.959 C 305.262 1208.75 276.394 1210.339 252.558 1219.662 C 181.301 1247.037 69.985 1248.753 39.67 1163.13 C 38.176 1156.179 38.215 1151.911 38.189 1148.682 C 37.925 1133.79 44.605 1114.581 56.383 1099.02 C 68.408 1081.67 89.408 1073.496 104.183 1071.958 C 165.751 1063.67 269.762 1114.453 318.434 1080.704 C 333.272 1072.24 343.774 1057.968 349.306 1047.961 C 351.198 1044.617 352.607 1041.912 353.594 1040.001 C 357.28 1032.448 358.612 1028.19 359.392 1026.11 C 359.401 1026.086 359.41 1026.062 359.419 1026.038 C 362.207 1019.549 365.981 1002.256 365.861 998.463 C 365.833 997.91 365.745 1001.364 366.041 992.089 C 365.973 991.29 366.38 991.99 365.717 984.211 C 365.616 983.27 364.863 976.154 362.133 968.961 C 359.555 961.721 354.78 954.759 352.42 951.942 C 339.075 928.256 276.085 914.433 245.605 918.5 C 240.775 918.758 238.319 918.983 233.302 919.444 C 230.711 919.682 226.864 920.065 226.12 920.157 C 222.769 920.456 207.731 923.038 213.032 921.745 C 197.602 924.379 202.077 923.895 201.783 924.003 C 185.031 927.294 176.951 929.404 172.677 930.739 C 146.439 937.766 120.788 947.125 95.872 957.982 C 68.53 972.306 31.571 960.327 16.627 933.878 C 0.392 908.54 -4.49 878.075 -2.888 848.837 C -2.924 848.809 -2.96 848.78 -2.996 848.752 C -0.789 823.291 2.126 814.742 6.978 801.013 C 10.039 792.531 13.819 784.32 18.361 776.492 C 25.573 764.217 34.667 752.999 45.376 743.553 C 67.409 724.091 95.716 706.803 127.065 709.493 C 158.437 712.167 183.345 733.864 201.911 756.591 C 240.415 794.713 319.405 780.891 341.561 729.62 C 351.75 708.407 355.5 682.24 338.144 666.062 C 321.607 650.085 297.8 643.088 274.996 636.557 C 228.939 624.132 180.989 616.408 135.778 598.961 C 126.885 595.389 124.657 594.662 110.417 587.647 C 94.847 579.865 73.566 566.43 58.468 548.487 C 53.848 543.089 48.994 536.478 44.653 528.804 C 36.672 514.781 29.134 497.678 27.939 482.522 C 27.48 477.061 27.87 473.379 27.926 472.685 C 28.359 469.077 28.437 469.073 29.291 465.59 C 30.337 461.573 32.34 456.822 35.111 452.871 C 45.716 437.648 64.539 431.644 66.272 430.696 C 76.035 426.962 78.217 426.694 79.058 426.376 C 90.024 423.238 85.969 424.396 88.696 423.66 C 102.99 420.144 113.261 418.463 132.946 414.948 C 132.421 415.103 131.897 415.258 131.372 415.413 C 146.443 412.915 136.464 414.417 139.539 413.868 C 140.823 413.713 173.132 408.06 175.514 407.347 C 184.135 405.523 184.29 405.491 185.053 405.331 C 186.42 405.007 198.345 402.182 208.511 398.521 C 212.113 397.244 215.508 395.839 218.183 394.65 C 230.097 389.058 216.204 395.927 219.161 394.534 C 219.736 394.465 231.951 387.99 233.47 386.892 C 235.288 385.942 224.948 391.946 225.06 391.776 C 225.35 392.037 242.272 381.594 239.052 383.624 C 237.004 385.679 216.496 397.046 208.742 399.169 C 208.148 399.382 207.642 399.561 207.245 399.701 C 206.359 400.012 208.066 399.533 207.281 399.807 C 204.666 402.554 142.713 414.752 139.713 414.722 C 142.959 414.13 146.201 413.538 149.437 412.937 C 145.122 413.67 140.8 414.388 136.467 415.111 C 142.622 414.039 148.749 412.979 154.877 411.867 C 145.713 413.088 118.236 418.056 117.11 418.542 C 116.628 418.701 133.529 415.959 117.866 418.862 C 120.247 418.455 122.661 418.053 125.028 417.666 C 129.928 416.78 134.835 415.921 139.739 415.06 C 136.459 415.586 133.203 416.108 129.919 416.642 C 131.123 416.41 132.321 416.18 133.517 415.952 C 142.689 414.362 151.851 412.812 160.968 411.108 C 165.666 410.265 164.697 410.522 167.912 409.924 C 207.786 401.396 181.975 407.413 207.416 399.924 C 207.893 399.765 208.367 399.605 208.839 399.443 C 211.914 398.389 214.961 397.207 217.964 395.91 C 216.633 396.25 227.619 391.946 239.253 383.812 C 237.891 384.815 236.509 385.793 235.11 386.745 C 253.815 377.074 279.469 343.593 272.18 352.303 C 274.988 348.544 277.598 344.62 279.96 340.576 C 281.894 337.119 283.66 333.561 285.224 329.938 C 287.464 324.943 289.329 319.802 290.766 314.547 C 290.799 314.53 290.832 314.514 290.865 314.497 C 289.728 318.688 288.31 322.829 286.657 326.852 C 287.977 323.861 289.164 320.807 290.205 317.697 C 291.133 314.617 291.918 311.49 292.544 308.335 C 289.384 321.46 293.556 304.138 293.552 299.813 C 294.697 288.537 293.8 281.303 293.309 277.525 C 293.677 275.644 287.386 255.575 290.065 263.373 C 286.749 253.095 281.432 243.355 274.94 234.782 C 272.315 231.256 269.739 228.173 266.784 224.969 C 273.283 231.649 254.772 212.042 268.531 226.369 C 278.218 237.444 279.691 240.96 283.206 246.949 C 286.157 252.459 287.64 255.451 289.92 261.941 C 304.213 306.543 283.485 347.303 250.92 375.47 C 244.291 381.094 237.743 385.571 232.737 388.573 C 227.043 391.889 234.161 387.721 226.853 391.828 C 219.054 395.953 217.257 396.586 215.123 397.53 C 214.174 397.926 211.743 398.878 208.979 399.835 C 207.858 400.224 206.673 400.624 205.506 401.011 C 188.98 406.675 163.608 411.211 161.178 411.666 C 158.457 412.297 109.333 420.335 107.01 421.1 C 105.782 421.361 108.265 420.478 97.58 423.094 C 94.214 423.851 90.867 424.654 87.548 425.522 C 88.083 425.326 88.614 425.132 89.13 424.944 C 69.521 430.75 75.999 428.016 57.876 436.098 C 44.809 442.28 29.486 456.086 29.27 475.321 C 28.671 494.02 36.91 511.751 45.996 528.041 C 56.998 547.608 73.396 562.925 89.377 573.633 C 99.035 579.975 102.903 582.171 115.038 588.205 C 126.228 594.195 157.343 605.215 150.665 602.535 C 177.249 611.484 181.858 611.739 195.341 615.575 C 196.995 615.955 198.649 616.329 200.301 616.7 C 215.028 620.477 219.667 621.363 235.783 625.093 C 242.762 626.715 234.731 624.994 248.746 628.107 C 251.452 628.765 254.132 629.425 256.783 630.089 C 256.156 629.978 255.528 629.867 254.898 629.757 C 270.407 633.531 271.368 633.948 269.66 633.307 C 277.087 635.294 284.382 637.38 291.837 639.82 C 292.761 640.067 293.679 640.315 294.589 640.567 C 292.44 636.112 118.953 601.403 100.344 580.285 C 83.982 571.176 58.683 551.23 46.172 527.941 C 39.216 515.839 34.439 504.286 32.287 496.478 C 30.133 487.535 28.438 482.982 30.275 469.273 C 32.058 454.738 46.564 442.407 52.877 439.141 C 73.263 422.337 186.779 408.496 110.406 420.808 C 112.607 420.442 114.808 420.089 116.988 419.749 C 147.164 414.252 136.27 416.47 161.279 412.053 C 171.863 410.38 196.452 404.368 195.105 404.777 C 176.044 410.028 155.148 413.266 138.127 416.155 C 136.445 416.443 116.271 419.892 105.937 422.001 C 96.597 424.017 102.872 421.95 82.862 427.461 C 67.965 431.385 59.94 435.736 56.309 437.715 C 50.206 441.251 49.403 441.523 43.897 446.126 C 38.006 451.336 35.481 456.303 34.953 457.193 C 31.628 461.477 27.427 478.823 32.016 493.633 C 35.841 508.635 43.132 521.25 43.55 522.293 C 42.487 520.337 41.545 518.539 40.546 516.538 C 44.67 524.918 45.89 526.597 46.538 527.733 C 46.866 528.267 47.135 528.706 47.766 529.76 C 49.204 532.181 50.715 534.535 52.296 536.823 C 51.647 535.932 51.007 535.03 50.379 534.117 C 60.236 547.691 51.898 538.04 68.126 555.528 C 78.9 566.272 92.14 574.799 93.39 575.581 C 93.76 575.813 89.76 573.17 94.999 576.502 C 103.535 582.076 119.487 589.767 121.295 590.582 C 125.839 592.606 125.508 592.321 126.113 592.588 C 128.518 594.572 175.761 610.443 184.58 612.095 C 208.426 618.496 235.449 624.203 261.271 630.604 C 263.975 631.282 262.24 630.907 264.933 631.589 C 269.234 632.551 291.058 638.652 294.226 639.902 C 302.416 642.211 322.6 651.247 325.363 653.428 C 325.791 653.669 319.66 649.984 326.856 654.201 C 334.867 659.405 330.456 656.709 330.921 656.975 C 346.52 667.956 352.034 680.324 352.712 693.084 C 353.042 697.472 352.186 705.229 350.756 710.823 C 350.599 711.478 350.99 710.199 350.837 710.843 C 348.74 719.536 345.583 726.387 343.659 730.582 C 343.571 730.771 343.487 730.951 343.407 731.121 C 339.107 739.665 341.499 735.023 341.301 735.495 C 338.287 741.11 333.448 748.294 326.467 755.014 C 294.589 783.445 250.625 789.676 210.74 767.539 C 205.858 764.458 201.232 759.434 200.736 758.735 C 200.502 758.462 200.312 758.235 200.143 758.033 C 198.986 756.679 198.803 756.42 194.219 751.203 C 182.985 738.663 171.034 728.036 156.048 720.364 C 153.023 718.854 151.732 718.208 149.339 717.221 C 145.365 715.531 136.165 712.587 127.62 711.905 C 119.099 711.065 111.583 712.136 111.344 712.015 C 94.334 714.632 83.658 719.713 71.875 726.615 C 63.986 731.383 55.368 737.77 46.9 745.278 C 24.748 764.149 9.515 794.772 4.197 817.411 C 2.528 824.062 1.92 827.206 1.263 830.967 C -1.109 837.613 -1.227 876.769 0.093 878.73 C 0.807 882.67 -0.866 880.548 4.273 900.57 C 7.718 912.216 7.474 910.71 8.293 913.129 C 14.921 931.8 28.936 945.653 26.271 943.112 C 42.135 960.247 58.985 962.172 68.013 962.356 C 67.937 962.236 78.883 962.408 91.065 957.665 C 85.026 959.979 81.962 960.802 76.855 961.719 C 71.698 962.273 63.476 964.42 48.106 958.771 C 47.632 958.581 48.567 958.865 48.094 958.675 C 43.736 957.098 35.233 952.244 29.615 946.676 C 24.096 941.148 27.211 944.17 25.072 941.86 C 23.177 939.641 23.192 939.851 20.681 936.508 C 12.688 925.574 8.345 914.356 5.954 907.174 C 4.412 902.546 3.147 897.421 2.342 893.745 C -1.402 879.838 -2.737 849.012 0.929 831.036 C 1.609 827.288 1.274 828.836 3.074 820.713 C 3.315 819.772 3.946 816.263 6.067 809.277 C 8.222 802.296 10.376 797.035 12.245 792.743 C 13.867 789.178 13.003 790.564 16.648 783.402 C 18.16 780.194 29.854 759.185 46.61 744.95 C 60.494 732.393 75.618 723.835 77.35 723.023 C 82.566 720.259 85.208 719.23 88.596 717.811 C 89.196 717.567 90.123 717.073 92.222 716.301 C 105.12 711.315 126.956 707.732 148.082 716.228 C 169.246 724.275 187.23 741.46 200.47 757.767 C 208.394 767.348 219.419 772.376 228.301 775.289 C 271.9 788.908 324.939 772.112 343.259 730.399 C 350.973 713.529 356.447 693.414 347.919 676.396 C 339.368 659.486 320.647 650.226 302.534 643.335 C 301.082 642.81 299.607 642.293 298.109 641.786 C 306.493 644.742 314.408 647.976 322.1 652.182 C 322.127 652.249 322.153 652.316 322.179 652.383 C 332.163 658.184 330.784 657.764 330.59 657.395 C 334.036 659.837 337.439 662.709 340.267 665.764 C 341.543 667.033 347.331 673.014 350.145 681.98 C 353.186 690.988 352.273 701.864 350.566 709.15 C 348.934 716.636 345.874 724.597 343.217 730.38 C 342.569 731.802 341.973 733.002 341.487 733.94 C 336.306 743.362 335.897 742.772 335.514 743.525 C 334.886 744.77 325.482 756.704 316.314 762.657 C 302.8 771.086 301.177 772.506 279.879 777.787 C 254.015 782.622 220.039 779.534 200.584 757.674 C 199.719 756.615 198.85 755.57 197.978 754.542 C 202.023 758.919 183.749 737.733 173.256 730.522 C 139.73 699.026 79.878 710.617 46.489 744.813 C 17.821 769.906 2.847 806.853 -0.701 840.627 C -1.775 850.549 -1.875 858.145 -1.732 863.706 C -1.637 866.698 -1.496 868.054 -1.198 872.23 C -1.109 872.97 -1.318 873.456 -0.346 881.255 C 0.869 890.891 4.411 907.675 11.656 922.227 C 18.564 936.954 29.721 948.099 34.773 951.708 C 51.755 965.302 76.234 965.643 95.31 956.693 C 136.64 938.712 179.762 924.602 224.305 918.96 C 225.932 918.797 227.501 918.652 229.15 918.512 C 241.38 916.117 291.026 915.492 313.425 924.799 C 333.113 931.156 354.645 945.273 362.922 967.013 C 371.532 988.555 366.544 1012.069 359.907 1028.951 C 357.052 1036.212 354.2 1041.957 350.51 1048.632 C 350.463 1048.717 350.415 1048.802 350.368 1048.887 C 348.73 1051.832 346.657 1055.288 344.793 1057.944 C 324.748 1093.837 266.588 1098.603 229.776 1090.422 C 199.622 1085.519 170.571 1077.391 140.649 1073.861 C 111.634 1070.081 76.178 1073.168 57.635 1099.942 C 41.719 1120.639 33.362 1150.674 45.791 1176.167 C 87.209 1247.063 184.292 1243.583 251.959 1218.065 C 275.207 1209.036 303.548 1206.79 322.459 1223.859 C 341.136 1240.552 346.879 1267.505 346.676 1292.252 C 345.65 1341.238 322.484 1397.107 273.576 1413.003 L 273.682 1412.975 C 204.078 1433.644 161.499 1324.881 89.253 1366.508 C 76.919 1373.268 65.478 1382.634 60.155 1395.987 C 54.745 1409.307 56.819 1424.241 61.164 1437.203 C 70.287 1463.423 86.417 1486.264 102.008 1508.526 C 104.322 1511.773 104.146 1511.661 105.974 1514.201 C 116.596 1529.05 141.171 1561.555 153.145 1578.283 C 162.787 1591.501 177.352 1613.099 180.462 1617.758 C 149.042 1568.741 108.396 1522.054 76.785 1469.83 C 74.622 1466.091 74.474 1465.612 74.213 1465.153 C 69.544 1456.366 72.12 1462.043 66.019 1449.092 C 65.018 1446.832 60.028 1435.567 58.182 1424.497 C 56.05 1413.554 58.225 1403.47 57.62 1406.168 C 57.168 1400.384 67.471 1376.947 89.396 1366.77 C 107.764 1355.663 130.07 1356.801 136.56 1358.897 C 140.88 1359.927 137.842 1359.12 138.699 1359.325 C 142.396 1360.294 144.019 1360.961 147.19 1362.166 C 155.982 1364.98 175.277 1377.405 178.727 1379.982 C 186.934 1385.648 211.032 1403.164 223.204 1407.854 C 234.18 1412.311 232.164 1411.48 242.074 1413.815 C 250.012 1414.859 241.241 1414.885 259.185 1415.255 C 262.145 1415.15 267.56 1414.709 273.745 1413.245 L 273.656 1413.268 C 285.737 1409.974 298.593 1400.842 302.279 1397.471 C 308.078 1392.571 314.044 1386.515 320.155 1377.948 C 329.782 1366.062 342.117 1334.984 344.164 1319.583 C 344.337 1318.673 344.658 1316.471 345.007 1314.212 C 345.696 1309.551 345.592 1310.963 346.022 1307.445 C 346.209 1305.703 348.205 1289.38 345.748 1272.358 C 343.804 1255.277 335.611 1238.912 332.477 1234.912 C 328.473 1228.993 324.876 1225.613 321.925 1223.085 C 319.56 1221.141 319.349 1220.874 316.741 1219.129 C 315.98 1218.587 308.889 1214.214 300.754 1212.405 C 293.264 1208.761 263.329 1212.893 260.241 1214.91 C 258.092 1215.593 260.529 1214.783 254.07 1216.998 C 253.306 1217.27 252.57 1217.538 251.861 1217.802 C 247.15 1219.548 243.837 1220.609 240.935 1221.564 C 233.114 1224.139 224.291 1226.668 215.792 1228.543 C 191.277 1233.496 192.293 1232.255 190.872 1232.639 C 186.79 1233.09 185.04 1233.31 183.692 1233.429 C 177.977 1234.032 163.811 1234.392 158.607 1234.097 C 152.284 1233.854 149.406 1233.579 142.73 1232.853 C 137.591 1232.268 127.454 1230.967 116.194 1227.866 C 91.028 1221.356 61.97 1204.908 49.021 1181.762 C 45.239 1174.984 45.127 1173.684 44.22 1171.506 C 39.93 1159.724 40.118 1152.495 40.003 1148.954 C 39.59 1134.872 46.302 1115.303 57.931 1100.161 C 67.152 1087.254 80.988 1079.67 91.1 1076.81 C 100.142 1071.821 142.12 1072.506 164.821 1077.982 C 167.431 1078.471 164.974 1078.068 167.886 1078.611 C 174.887 1079.941 174.217 1079.705 177.744 1080.419 C 179.439 1080.766 183.316 1081.633 188.235 1082.672 C 213.803 1088.189 231.45 1091.347 243.246 1092.717 C 283.844 1099.515 331.918 1088.264 350.862 1048.828 C 368.523 1018.359 376.867 976.831 352.849 949.451 C 329.443 922.687 291.677 916.54 258.679 916.313 C 246.912 916.293 232.062 917.227 214.324 919.894 C 213.748 919.945 213.23 919.988 212.685 920.036 C 212.083 920.17 211.48 920.305 210.875 920.441 C 190.74 923.99 183.501 925.764 163.379 931.337 C 161.691 931.814 156.435 933.197 153.231 934.431 C 133.644 940.627 144.429 937.211 129.954 942.337 C 118.1 946.673 106.622 951.265 95.122 956.263 C 92.711 957.312 90.334 958.22 87.992 958.993 C 84.639 959.971 88.849 958.878 95.065 956.133 C 102.752 952.681 112.995 948.489 114.168 948.037 C 117.556 946.691 121.086 945.44 124.3 944.237 C 133.629 940.721 143.272 937.397 145.357 936.817 C 157.752 932.683 142.295 937.751 143.826 937.178 C 152.038 934.473 160.644 931.873 169.079 929.591 C 173.209 927.366 220.841 918.247 217.648 919.143 C 221.532 918.631 225.305 918.202 229.109 917.839 C 245.939 915.965 256.099 915.272 278.491 917.109 C 276.9 916.922 275.29 916.754 273.66 916.604 C 274.137 916.377 293.896 918.795 286.822 918.047 C 306.943 921.303 306.014 921.382 323.113 927.761 C 332.775 932.604 327.632 928.764 343.281 939.935 C 352.26 946.922 361.248 958.514 364.954 970.755 C 365.833 973.566 366.057 974.826 366.602 977.357 C 367.11 979.888 367.423 981.232 367.762 984.305 C 368.538 990.818 367.914 999.434 367.318 1003.367 C 366.799 1007.043 366.101 1012.221 363.487 1020.747 C 352.7 1049.906 354.942 1040.597 353.085 1045.16 C 352.392 1046.455 351.741 1047.661 351.046 1048.93 C 349.143 1052.314 347.347 1055.727 342.689 1061.874 C 342.038 1062.709 343.653 1060.505 341.539 1063.205 C 339.761 1065.286 339.24 1066.63 332.634 1072.937 C 331.448 1074.125 319.992 1084.463 304.996 1089.305 C 290.196 1094.542 273.617 1094.755 269.33 1094.77 C 256.048 1095.343 226.703 1090.994 213.252 1088.123 C 208.052 1087.11 202.47 1086.037 196.951 1084.882 C 178.667 1081.151 149.338 1074.234 125.401 1073.407 C 114.711 1072.97 99.581 1073.598 86.708 1078.559 C 73.695 1083.251 64.357 1092.516 60.838 1097.024 C 59.91 1098.136 59.038 1099.253 58.215 1100.37 C 42.763 1122.521 43.433 1130.57 42.417 1132.314 C 41.006 1138.435 40.533 1141.278 40.413 1149.095 C 47.98 1239.023 180.555 1248.41 251.722 1217.433 C 275.455 1208.172 302.363 1207.015 320.067 1221.054 C 374.221 1275.928 346.085 1386.871 273.764 1413.625 L 273.829 1413.608 C 203.586 1434.214 161.071 1325.617 89.565 1367.079 C 72.773 1375.796 57.536 1391.99 57.577 1411.883 C 57.237 1431.376 65.949 1449.354 75.009 1465.807 C 93.997 1498.898 117.553 1528.414 139.921 1559.037 C 140.305 1559.494 140.689 1559.951 141.073 1560.409 C 125.696 1539.453 107.16 1514.987 92.752 1493.72 C 73.542 1466.767 45.874 1416.587 63.086 1392.003 C 57.285 1401.072 57.704 1418.394 58.112 1418.064 C 55.847 1399.28 67.151 1381.307 82.574 1371.781 C 82.093 1372.029 81.617 1372.28 81.148 1372.532 C 83.74 1370.725 86.577 1368.97 89.671 1367.272 C 103.689 1359.365 120.603 1355.66 136.347 1359.424 C 139.614 1360.199 137.323 1359.568 140.144 1360.327 C 143.28 1361.252 141.138 1360.679 141.725 1360.854 C 149.579 1363.404 151.747 1364.701 152.68 1365.061 C 154.996 1366.2 153.24 1365.244 159.775 1368.765 C 171.737 1375.547 179.658 1381.385 176.918 1379.68 C 180.567 1382.175 184.18 1384.724 187.795 1387.255 C 188.768 1387.857 189.742 1388.458 190.718 1389.057 C 212.798 1404.804 224.47 1409.872 238.729 1413.919 C 243.518 1415.01 248.355 1415.65 253.283 1415.794 C 255.98 1415.971 258.825 1415.991 261.539 1415.861 C 262.067 1415.767 262.595 1415.667 263.124 1415.562 C 266.766 1415.226 270.213 1414.663 273.877 1413.815 L 273.825 1413.829 C 296.287 1407.288 314.431 1389.328 325.595 1370.657 C 334.365 1355.36 335.847 1351.238 340.701 1336.389 C 348.851 1302.542 341.926 1336.398 346.793 1307.866 C 346.555 1309.352 346.296 1310.838 346.015 1312.322 C 346.664 1307.581 347.104 1302.782 347.316 1298.014 C 347.537 1294.72 347.651 1291.318 347.646 1288.013 C 347.074 1273.219 344.864 1263.821 344.45 1261.865 C 343.804 1260.435 343.67 1254.46 335.683 1238.934 C 337.303 1242.186 335.814 1239.153 333.476 1235.469 C 331.119 1231.664 327.541 1227.522 326.942 1226.932 C 326.44 1225.228 310.344 1213.064 301.948 1212.074 C 295.928 1210.166 282.273 1209.405 272.796 1211.325 C 264.708 1212.847 265.405 1213.023 264.828 1213.111 C 254.969 1215.878 261.207 1213.973 253.993 1216.364 C 253.194 1216.648 252.41 1216.935 251.644 1217.224 C 245.594 1219.504 241.089 1221.012 239.72 1221.452 C 238.941 1221.699 241.524 1220.792 237.951 1221.928 C 228.309 1225.098 210.551 1229.479 199.119 1231.049 C 194.99 1231.675 190.003 1232.229 185.369 1232.642 C 178.376 1233.249 175.154 1233.436 171.054 1233.557 C 169.653 1233.579 160.604 1233.761 149.404 1232.879 C 147.295 1232.708 140.934 1232.488 132.842 1230.709 C 132.219 1230.659 131.546 1230.598 130.901 1230.537 C 93.894 1222.826 85.283 1214.832 71.422 1205.804 C 60.702 1197.189 59.838 1194.935 60.373 1195.699 C 60.997 1196.329 63.843 1199.074 62.78 1198.008 C 61.331 1196.748 55.385 1189.984 54.909 1189.151 C 53.854 1187.742 54.07 1187.957 52.966 1186.393 C 43.349 1171.719 43.542 1166.151 42.741 1164.519 C 42.293 1162.692 42.349 1163.825 41.382 1158.344 C 39.206 1145.13 42.422 1133.421 43.167 1130.889 C 44.692 1128.33 39.456 1134.224 41.307 1157.261 C 41.335 1157.257 41.363 1157.253 41.391 1157.25 C 38.086 1145.73 47.267 1117.993 44.526 1127.301 C 43.062 1130.6 38.907 1149.665 42.541 1162.524 C 43.973 1168.94 46.13 1173.612 46.568 1174.592 C 47.146 1175.523 45.353 1173.017 42.935 1163.708 C 41.282 1155.249 39.906 1150.49 42.637 1135.668 C 44.993 1126.047 44.999 1124.374 51.263 1112.449 C 50.095 1114.38 49.082 1116.164 48.017 1118.244 C 50.704 1112.341 54.279 1106.359 58.532 1100.604 C 66.112 1090.009 77.241 1082.692 85.82 1079.414 C 90.099 1077.065 107.295 1073.629 103.342 1074.813 C 111.34 1072.154 149.385 1075.422 156.226 1077.231 C 157.887 1077.564 160.183 1077.401 184.19 1082.449 C 185.847 1082.823 187.506 1083.2 189.167 1083.577 C 167.226 1079.075 205.938 1087.261 195.376 1085.27 C 191.821 1084.418 174.413 1080.72 171.63 1080.161 C 166.833 1079.153 181.171 1081.777 162.931 1078.344 C 151.399 1076.537 184.223 1082.628 179.14 1082.052 C 203.016 1086.872 205.347 1087.517 210.755 1088.595 C 233.833 1093.036 248.581 1095.627 270.791 1095.652 C 276.127 1096.311 236.09 1093.771 231.236 1092.181 C 249.34 1094.661 218.209 1090.059 205.163 1087.242 C 204.082 1086.945 203.003 1086.647 201.923 1086.347 C 218.876 1089.879 235.519 1093.108 252.606 1094.495 C 253.714 1094.616 254.821 1094.728 255.924 1094.832 C 252.13 1094.616 248.205 1094.283 244.434 1093.885 C 258.635 1095.293 250.089 1094.785 269.058 1095.444 C 269.651 1095.357 270.241 1095.267 270.83 1095.174 C 288.933 1094.977 307.394 1091.281 322.679 1081.321 C 326.608 1078.845 335.352 1071.831 341.012 1064.738 C 346.937 1057.566 350.254 1051.52 348.764 1054.289 C 350.671 1051.226 351.435 1049.771 351.699 1049.293 C 351.872 1048.968 351.812 1049.058 351.676 1049.28 C 351.344 1049.823 350.564 1051.136 351.599 1049.238 C 351.991 1048.509 352.649 1047.304 353.635 1045.415 C 356.374 1040.407 360.859 1029.993 361.758 1027.446 C 361.755 1028.69 355.016 1044.042 352.379 1048.608 C 353.157 1047.187 363.375 1029.233 367.124 1010.396 C 371.569 991.49 366.835 973.611 367.758 977.117 C 366.253 971.115 367.384 973.635 363.072 963.243 C 351.031 931.014 298.553 915.657 273.778 915.794 C 303.284 918.839 312.577 921.376 332.833 931.742 C 339.188 934.696 361.675 951.215 366.529 973.17 C 372.037 994.348 366.324 1011.793 368.207 1001.863 C 367.867 1005.041 367.303 1008.47 366.651 1011.546 C 365.895 1014.693 364.91 1018.082 363.897 1021.079 C 366.683 1012.146 368.443 1003.033 368.637 993.663 C 368.749 991.483 368.771 989.245 368.691 987.004 C 368.578 985.98 368.444 984.966 368.289 983.964 C 367.868 980.105 367.119 976.222 366.034 972.478 C 366.394 973.528 366.723 974.576 367.025 975.623 C 365.665 969.736 363.487 964.049 360.529 958.786 C 361.261 960.238 361.935 961.716 362.551 963.217 C 356.207 950.525 352.008 947.616 350.08 945.265 C 347.897 943.109 346.924 941.763 340.691 937 C 330.786 930.59 347.934 940.667 326.161 928.627 C 298.969 918.452 317.543 922.588 280.313 916.525 C 279.782 916.508 279.249 916.493 278.715 916.48 C 270.503 915.669 262.231 915.371 253.896 915.483 C 254.979 915.51 256.02 915.545 257.163 915.585 C 239.99 915.432 216.74 918.7 211.064 919.558 C 228.322 916.996 227.994 917.056 223.587 917.455 C 216.571 916.679 140.428 933.125 94.646 955.172 C 78.181 962.64 63.175 961.755 56.471 960.073 C 22.405 950.671 10.117 921.194 3.062 891.97 C 5.075 902.137 11.506 926.301 27.663 943.268 C 43.404 961.435 68.311 962.515 74.83 961.01 C 76.217 960.734 75.97 961.547 84.652 958.963 C 88.052 957.998 91.222 956.86 94.72 955.342 C 119.022 944.755 147.881 933.861 178.603 926.153 C 177.568 926.5 176.529 926.852 175.488 927.209 C 153.947 932.56 134.809 939.978 137.399 938.684 C 133.17 940.155 129.04 941.649 124.954 943.179 C 124.974 943.231 124.994 943.284 125.013 943.337 C 118.832 945.651 112.484 948.156 106.459 950.645 C 106.437 950.593 106.416 950.541 106.394 950.489 C 102.547 952.078 98.668 953.725 94.759 955.431 C 93.487 955.987 92.224 956.502 90.971 956.979 C 90.448 957.238 89.926 957.49 89.405 957.735 C 81.781 960.899 62.891 963.946 50.328 958.778 C 37.966 953.989 32.006 948.341 42.512 955.103 C 35.654 951.332 29.685 946.116 24.645 940.111 C 24.63 940.157 24.614 940.202 24.599 940.248 C 22.478 937.74 20.408 934.936 18.609 932.182 C 19.242 933.085 19.873 933.948 20.558 934.852 C 11.591 922.296 6.987 908.217 4.348 898.554 C 5.975 904.928 8.088 911.305 10.731 917.42 C 5.11 905.878 0.676 882.589 0.716 880.54 C -0.083 874.138 -0.28 870.815 -0.516 863.872 C -0.641 857.627 -0.624 858.47 -0.63 857.303 C 1.387 823.621 1.39 836.528 3.707 820.97 C 4.14 819.348 4.599 817.728 5.082 816.12 C 5.606 813.955 6.175 811.796 6.791 809.646 C 9.739 800.122 13.586 790.857 18.345 782.097 C 16.696 784.989 15.151 787.932 13.699 790.938 C 20.009 777.339 24.478 771.832 25.201 770.586 C 27.51 767.192 28.581 765.662 29.34 764.641 C 36.718 754.924 42.802 749.272 47.068 745.468 C 64.68 731.002 49.703 742.384 69.772 728.704 C 79.022 722.917 69.455 728.514 68.175 729.263 C 80.446 721.772 84.52 719.386 99.093 714.832 C 102.89 713.754 107.13 713.011 109.633 712.664 C 111.746 712.307 118.572 711.555 123.795 711.856 C 132.501 712.145 144.054 714.677 154.747 719.99 C 163.891 723.466 187.203 741.41 199.935 758.203 C 200.261 758.602 200.593 758.993 200.929 759.375 C 207.037 765.713 205.816 764.064 207.518 765.564 C 208.26 766.211 213.93 770.113 219.154 772.426 C 261.276 791.108 320.315 777.556 342.045 734.567 C 342.701 733.31 343.331 732.024 343.934 730.708 C 350.467 716.256 355.385 700.375 351.717 684.71 C 348.134 669.081 334.927 657.977 321.079 650.739 C 314.716 647.478 318.159 649.185 315.399 647.845 C 314.49 647.48 313.173 646.687 303.19 642.798 C 299.479 641.405 303.795 642.922 300.11 641.574 C 298.219 640.933 297.714 640.667 287.025 637.355 C 267.769 631.639 257.267 629.305 255.563 628.822 C 252.277 628.032 253.232 628.332 248.831 627.284 C 227.488 622.242 209.626 618.321 190.666 613.421 C 181.557 612.111 121.653 591.971 119.073 589.101 C 112.062 585.718 118.596 588.789 109.733 584.321 C 107.275 583.087 104.757 581.763 102.32 580.417 C 106.174 582.645 110.07 584.732 114.026 586.714 C 103.105 581.365 91.197 574.092 84.012 568.669 C 82.566 567.775 70.611 558.081 65.334 552.224 C 67.661 554.616 70.076 556.919 72.572 559.138 C 71.711 558.328 70.861 557.509 70.022 556.679 C 61.202 548.354 53.218 538.48 46.986 527.478 C 45.064 524.096 43.328 520.835 41.773 517.703 C 39.22 512.427 40.04 514.082 37.758 508.824 C 31.346 493.134 30.868 486.196 30.415 480.113 C 30.63 474.215 28.936 466.649 38.617 453.007 C 34.909 457.152 29.267 469.604 30.81 482.129 C 31.848 494.38 36.52 505.082 37.619 507.911 C 38.894 511.611 45.911 525.999 43.58 520.63 C 44.934 523.23 46.165 525.458 47.23 527.34 C 58.421 544.709 45.652 527.938 63.209 549.597 C 62.834 549.114 62.461 548.627 62.093 548.139 C 69.217 556.105 75.279 561.209 80.299 565.314 C 81.687 567.117 112.108 587.091 131.002 593.79 C 157.596 604.754 189.162 612.782 216.82 619.259 C 226.37 621.5 231.754 622.828 232.93 623.104 C 234.663 623.505 239.666 624.586 243.13 625.399 C 256.22 628.204 295.612 638.743 304.916 642.825 C 230.236 616.16 145.584 614.213 80.533 565.141 C 85.813 569.371 58.718 549.362 47.334 527.281 C 40.961 516.189 37.324 506.963 36.796 505.565 C 35.412 501.925 36.646 504.957 36.243 503.878 C 33.353 496.197 31.814 489.12 31.435 486.356 C 31.194 484.373 30.411 480.226 31.024 473.055 C 31.164 471.717 31.156 471.342 31.385 469.951 C 32.885 460.611 38.133 452.155 45.375 446.093 C 45.791 445.73 47.754 444.206 49.665 442.879 C 51.59 441.52 53.649 440.196 54.155 439.901 C 60.62 435.88 72.803 431.292 79.672 429.331 C 82.1 428.608 80.397 429.044 83.062 428.279 C 91.374 426.032 88.601 426.819 98.96 424.417 C 102.398 423.665 102.23 423.585 108.857 422.28 C 113.59 421.371 113.125 421.631 113.879 421.492 C 114.876 421.272 131.269 418.274 136.637 417.503 C 124.969 419.736 149.46 415.367 148.259 415.445 C 154.757 414.368 161.266 413.256 167.715 412.047 C 169.925 411.594 172.131 411.129 174.316 410.651 C 188.084 407.881 198.916 405.111 209.524 401.367 C 218.932 397.988 228.128 393.618 238.422 386.884 C 239.73 386.542 256.985 372.857 256.016 373.301 C 246.365 382.308 235.219 389.516 227.718 393.34 C 219.685 397.726 216.652 398.936 209.579 401.521 C 205.946 402.79 201.119 404.382 193.691 406.377 C 186.494 408.267 185.893 408.397 185.074 408.607 C 156.672 415.36 110.169 421.336 91.13 426.382 C 85.779 427.684 105.075 423.226 97.598 424.977 C 95.675 425.677 69.165 430.2 50.809 442.426 C 31.876 454.663 30.293 474.633 35.3 458.801 C 33.749 461.809 32.645 464.921 31.923 468.283 C 31.639 469.845 30.931 474.935 31.116 479.203 C 31.242 483.708 31.846 487.13 31.583 486.271 C 31.857 487.816 32.228 489.542 32.582 490.944 C 33.251 493.828 34.294 497.683 35.986 502.365 C 37.657 507.037 41.218 515.804 47.66 527.096 C 66.113 567.201 134.593 595.789 138.729 596.392 C 138.879 596.396 139.03 596.4 139.18 596.404 C 103.268 582.691 67.991 562.586 47.787 527.023 C 40.994 514.906 34.902 502.251 32.283 487.932 C 32.548 489.689 32.812 491.132 33.157 492.749 C 25.925 470.699 38.467 445.975 59.935 437.518 C 49.351 442.62 35.494 452.64 32.439 468.412 C 29.251 483.781 34.872 499.471 39.783 510.828 C 41.615 514.916 40.202 511.949 40.622 512.892 C 41.85 515.504 42.859 517.751 47.726 526.459 C 47.809 526.606 47.895 526.757 47.983 526.912 C 52.401 536.023 67.813 553.693 69.702 554.92 C 72.709 557.976 81.562 565.405 87.56 569.519 C 95.429 574.946 90.111 571.376 91.694 572.461 C 98.347 576.894 104.537 580.343 110.075 583.235 C 118.164 587.676 135.927 595.263 142.079 597.169 C 135.901 594.876 129.729 592.386 123.72 589.702 C 156.662 603.915 184.058 610.783 218.456 618.797 C 226.316 620.394 197.925 613.73 221.963 619.287 C 217.571 618.264 213.254 617.25 208.87 616.2 C 207.832 616.004 206.794 615.807 205.754 615.608 C 198.287 613.756 190.772 611.82 183.34 609.776 C 185.455 610.395 187.572 611.004 189.691 611.604 C 163.11 604.953 137.068 595.563 128.452 591.419 C 127.91 591.255 127.369 591.09 126.829 590.924 C 102.917 581.902 72.588 558.312 78.609 562.291 C 77.675 561.544 76.75 560.786 75.835 560.017 C 64.588 549.671 69.385 554.091 65.325 550.029 C 63.549 549.354 46.446 525.102 54.053 535.81 C 51.585 532.224 49.763 529.199 48.341 526.709 C 40.543 512.441 43.176 517.538 40.163 511.271 C 36.367 502.868 32.32 490.441 31.838 481.562 C 31.312 472.681 32.627 467.867 31.892 474.901 C 32.075 472.039 32.466 469.52 33.182 466.802 C 35.233 458.051 40.933 450.63 48.787 444.888 C 51.372 442.95 54.286 441.135 57.137 439.596 C 59.062 438.477 61.059 437.424 63.034 436.461 C 92.425 425.579 83.215 428.983 97.242 425.928 C 95.035 426.471 92.858 427.03 90.718 427.607 C 85.562 428.915 80.462 430.365 75.458 432.05 C 95.774 425.428 117.09 422.12 138.232 418.531 C 165.091 413.991 180.729 412.165 209.718 402.825 C 209.814 402.791 209.91 402.756 210.005 402.721 C 212.593 401.781 215.156 400.755 217.689 399.648 C 215.023 400.848 204.875 405.402 223.833 397.057 C 225.216 396.502 216.63 400.761 210.083 402.94 C 208.832 403.376 207.659 403.763 206.668 404.077 C 205.879 404.331 209.148 403.201 210.048 402.842 C 210.336 402.73 210.398 402.7 210.041 402.82 C 209.438 403.016 207.677 403.664 203.624 404.943 C 194.056 407.635 211.611 403.408 182.706 410.572 C 183.786 410.357 184.852 410.14 185.93 409.915 C 182.817 410.648 179.657 411.345 176.489 412.007 C 173.691 412.526 170.863 413.024 168.025 413.503 C 160.843 414.958 156.768 415.849 140.224 418.595 C 144.71 417.803 138.585 418.691 130.41 420.078 C 130.418 420.124 130.425 420.17 130.433 420.216 C 110.658 423.706 117.433 422.268 101.131 425.698 C 99.487 426.013 97.91 426.324 96.243 426.668 C 87.092 427.998 56.174 439.907 61.863 437.775 C 53.177 441.225 38.071 453.804 35.905 460.882 C 35.719 461.395 35.543 461.912 35.38 462.435 C 33.977 465.873 33.119 469.569 32.773 473.331 C 32.538 475.557 32.473 477.445 32.524 479.641 C 32.673 482.525 32.98 484.886 33.495 487.687 C 33.758 489.433 34.021 490.872 34.365 492.484 C 35.495 496.834 36.851 500.756 38.563 504.993 C 39.558 507.631 40.476 509.859 41.604 512.406 C 41.77 512.646 44.705 519.024 48.923 526.378 C 52.566 532.861 57.196 539.151 59.431 541.96 C 60.837 543.679 62.286 545.356 63.775 546.993 C 64.458 547.832 65.152 548.663 65.859 549.489 C 67.014 550.672 68.191 551.833 69.389 552.971 C 72.062 555.679 74.861 558.283 77.741 560.761 C 89.99 570.408 90.597 570.337 93.51 572.412 C 98.854 576.331 118.849 586.607 122.422 587.949 C 125.825 589.492 127.462 590.28 130.264 591.462 C 177.114 609.199 158.148 601.164 167.622 604.465 C 172.826 606 176.513 607.122 181.147 608.386 C 188.992 610.771 229.46 620.246 231.786 620.734 C 235.17 621.534 227.077 620.022 238.166 622.504 C 238.587 622.373 262.127 628.189 251.145 625.286 C 260.868 627.638 270.467 630.053 280.173 632.831 C 279.134 632.341 291.024 635.615 303.69 640.335 C 312.561 643.623 327.079 649.773 337.281 658.345 C 347.752 666.685 351.85 677.233 351.392 676.418 C 353.389 680.675 354.671 685.38 355.217 689.959 C 356.68 704.658 352.121 718.645 346.203 731.748 C 339.157 747.343 327.092 760.58 312.285 769.227 C 278.282 788.53 228.215 790.971 197.964 759.812 C 181.029 739.063 159.376 720.046 133.016 715.376 C 106.616 710.459 80.526 722.398 60.266 737.874 C 56.864 740.475 57.309 740.048 54.844 742.035 C 53.109 743.45 51.059 745.171 48.672 747.282 C 33.158 759.589 14.671 789.519 9.474 808.784 C 7.25 815.804 6.424 819.293 5.874 821.565 C 4.164 829.294 4.712 827.509 4.051 831.098 C 2.41 836.688 0.634 867.196 2.629 877.632 C 3.208 882.799 4.275 888.878 5.636 894.759 C 5.755 895.273 5.454 894.343 5.555 894.778 C 8.284 905.538 6.71 899.045 7.7 902.633 C 14.884 927.548 32.657 956.094 62.201 959.216 C 69.216 960.209 79.996 958.688 85.919 956.65 C 88.091 955.902 84.13 957.359 91.704 954.523 C 92.601 954.162 93.304 953.873 93.96 953.601 C 95.217 953.08 96.291 952.652 98.241 951.82 C 110.935 946.469 115.132 944.555 126.241 940.606 C 147.471 932.347 185.841 921.428 206.465 918.237 C 211.306 917.397 213.598 917.082 218.346 916.401 C 221.733 915.919 227.279 915.141 232.646 914.635 C 237.818 914.145 246.142 913.546 255.992 913.448 C 266.713 913.239 279.728 914.327 282.055 914.65 C 284.975 914.982 286.304 915.244 289.131 915.661 C 297.82 916.552 320.559 922.501 330.409 928.285 C 341.229 933.97 346.59 939.009 349.689 941.872 C 352.492 944.485 355.515 947.905 356.585 949.299 C 358.256 951.463 358.603 952.04 360.503 954.973 C 363.508 959.806 366.318 965.074 368.555 973.392 C 375.361 1000.022 366.227 1027.275 353.48 1050.285 C 281.903 1166.153 141.269 1021.636 60.311 1101.914 C 51.4 1113.983 44.82 1127.834 43.34 1142.617 C 42.559 1158.266 43.267 1168.665 56.85 1187.952 C 62.881 1195.32 60.237 1192.357 65.497 1197.626 C 67.984 1199.913 67.346 1199.286 70.58 1201.988 C 84.935 1214.117 105.776 1221.865 113.574 1224.015 C 116.586 1224.902 120.281 1225.892 126.659 1227.249 C 164.721 1235.456 210.431 1230.329 250.788 1214.943 C 262.156 1210.693 273.626 1207.92 285.248 1207.714 C 299.63 1207.102 318.967 1212.785 330.955 1227.785 C 343.143 1242.352 348.054 1261.818 349.501 1278.081 C 353.614 1331.635 330.001 1397.871 274.542 1416.212 L 274.442 1416.239 C 237.682 1425.887 205.125 1402.606 179.882 1384.562 C 154.52 1364.968 119.717 1350.949 90.865 1369.45 C 70.559 1379.502 56.172 1400.467 61.032 1422.817 C 64.982 1445.044 76.859 1464.472 88.988 1483.508 C 113.876 1521.278 142.475 1556.488 168.347 1593.881 C 137.332 1545.584 79.454 1487.393 61.758 1425.899 C 55.534 1402.946 69.365 1380.092 90.958 1369.619 C 157.925 1328.678 200.385 1436.251 274.486 1416.429 L 274.599 1416.4 C 325.63 1399.647 348.838 1342.791 350.201 1293.07 C 350.498 1267.897 345.074 1240.367 325.911 1222.208 C 306.421 1203.515 276.46 1205.226 253.408 1213.766 C 252.52 1214.079 251.622 1214.406 250.714 1214.746 C 192.629 1238.231 92.9 1242.912 51.968 1180.206 C 50.337 1177.451 47.201 1171.551 45.418 1164.856 C 44.422 1163.559 42.387 1145.396 44.124 1139.314 C 43.673 1142.148 44.014 1137.656 45.675 1131.609 C 47.245 1125.594 50.611 1118.265 52.36 1115.083 C 54.101 1111.792 56.672 1107.359 60.539 1102.083 C 66.305 1094.046 75.876 1085.429 88.59 1080.976 C 98.061 1077.75 101.75 1077.716 103.008 1077.439 C 104.267 1077.275 103.175 1077.459 103.718 1077.381 C 110.678 1076.475 113.226 1076.305 118.677 1076.188 C 141.435 1071.335 254.832 1106.715 288.764 1096.217 C 297.236 1094.803 297.386 1094.569 299.29 1094.141 C 304.246 1092.853 311.203 1090.518 318.437 1086.612 C 331.773 1079.814 343.308 1066.846 347.826 1059.987 C 349.645 1057.378 351.671 1054.208 353.762 1050.442 C 363.942 1032.92 373.643 1004.808 370.656 983.431 C 369.728 976.345 369.67 976.765 368.96 973.641 C 367.323 966.702 362.314 954.411 353.008 944.749 C 343.956 934.951 331.791 928.254 323.724 924.835 C 297.347 913.604 267.659 911.802 239.137 913.828 C 237.347 913.921 235.541 914.033 233.72 914.163 C 230.864 914.462 227.909 914.814 225.166 915.181 C 179.876 920.656 135.489 935.22 93.847 953.342 C 91.251 954.475 88.704 955.435 86.209 956.229 C 83.621 957.086 75.827 959.274 68.024 959.226 C 60.223 959.371 52.73 957.026 50.726 956.233 C 47.33 954.97 43.951 953.553 39.453 950.537 C 33.367 945.915 38.818 950.618 29.714 942.102 C 27.443 939.641 29.445 942.179 25.119 937.003 C 24.382 936.2 17.377 927.004 12.905 916.339 C 8.214 905.785 5.715 894.412 5.464 893.252 C 4.618 889.447 4.188 885.922 4.027 884.908 C 3.239 879.73 3.186 879.949 2.768 876.41 C 1.478 866.025 1.965 852.296 2.121 850.619 C 2.139 829.949 12.884 792.19 25.635 774.545 C 27.261 772.048 27.158 772.407 27.448 771.972 C 29.358 769.191 30.497 767.448 32.455 764.899 C 36.642 759.467 42.236 753.221 48.812 747.441 C 58.826 738.536 70.277 730.492 79.578 725.63 C 81.304 724.701 85.085 722.747 88.343 721.385 C 107.139 714.403 101.242 717.379 102.261 716.806 C 104.897 716.187 109.483 714.961 116.631 714.531 C 135.627 711.304 168.914 727.99 182.411 743.017 C 193.049 753.562 192.472 753.833 193.2 754.498 C 193.99 755.409 195.525 757.128 197.834 759.918 C 199.709 762.192 202.387 764.937 205.994 767.683 C 222.615 778.586 221.365 776.115 228.856 779.029 C 229.524 779.158 228.327 779.051 237.053 781.029 C 253.874 786.139 293.554 781.568 309.402 771.018 C 315.602 767.52 316.995 766.54 322.755 762.073 C 331.661 756.067 344.71 737.154 346.36 731.821 C 346.598 731.305 346.759 730.949 346.837 730.773 C 347.076 730.226 347.595 728.931 348.872 725.784 C 350.281 722.283 351.376 719.265 352.268 716.316 C 354.654 708.744 356.322 698.097 355.284 689.942 C 354.358 681.989 352.054 677.372 353.582 680.941 C 351.952 676.048 349.347 671.366 346.169 667.37 C 323.549 641.316 289.838 635.533 259.182 627.11 C 252.194 625.392 246.24 623.934 240.323 622.554 C 234.301 621.158 208.117 615.17 203.729 614.039 C 195.828 612.489 151.989 600.028 146.867 597.59 C 136.443 593.91 126.631 589.578 122.581 587.743 C 119.315 586.258 122.272 587.755 116.065 584.802 C 105.253 579.908 88.317 568.829 85.61 566.51 C 84.45 565.512 86.383 567.64 75.391 558.328 C 69.58 553.156 66.831 550.003 64.924 547.937 C 64.462 547.185 64.704 548.704 55.513 536.379 C 52.368 531.923 50.416 528.554 49.129 526.26 C 47.88 524.019 47.261 522.824 46.998 522.341 C 46.153 520.737 44.306 517.645 41.379 511.222 C 34.017 497.671 28.533 467.284 39.395 455.758 C 41.195 453.645 39.759 453.654 48.314 446.328 C 54.781 441.562 53.938 442.577 56.454 441.035 C 60.697 438.652 67.136 435.405 77.464 432.102 C 89.799 425.682 191.178 411.43 196.006 407.717 C 199.498 406.786 203.415 405.587 205.158 405.063 C 203.714 405.571 202.236 406.069 200.816 406.534 C 185.576 410.658 191.767 408.998 187.701 410.072 C 181.86 411.67 159.49 415.954 154.091 416.841 C 152.166 417.183 156.59 416.524 146.243 418.331 C 135.139 420.247 130.177 420.92 125.807 421.892 C 110.065 424.347 95.178 427.768 113.24 424.237 C 120.25 422.082 174.167 416.45 210.436 403.931 C 224.889 398.815 235.698 391.992 240.666 388.676 C 255.287 379.752 278.157 356.403 287.075 337.073 C 293.981 326.436 299.547 296.043 298.697 297.253 C 299.278 286.205 298.61 297.891 298.698 295.57 C 298.859 293.175 299.26 283.245 297.353 273.332 C 295.617 263.334 291.617 253.853 290.205 250.921 C 276.999 220.736 242.678 195.917 215.337 182.977 C 216.632 183.574 217.91 184.176 219.173 184.782 C 225.806 187.367 252.6 204.733 255.265 207.605 C 218.64 178.661 174.038 164.315 129.178 154.224 L 129.29 154.251 C 128.43 154.026 127.576 153.798 126.728 153.568 C 127.085 153.703 113.49 150.257 100.083 144.82 C 86.623 139.609 73.916 131.724 72.967 130.967 C 73.808 131.442 74.663 131.912 75.533 132.378 C 103.363 147.934 101.686 145.271 122.01 152.213 C 127.109 153.683 128.301 153.92 129.313 154.161 L 129.198 154.133 C 129.888 154.263 130.534 154.383 132.279 154.768 C 174.769 165.116 132.918 154.607 165.496 163.57 C 155.859 160.519 182.335 168.315 193.692 173.043 C 196.613 173.572 230.061 189.385 233.493 192.28 C 255.351 203.862 287.657 234.78 294.287 259.879 C 300.246 278.698 300.603 290.182 297.78 307.825 C 294.884 321.127 295.464 317.235 293.556 323.339 C 288.9 335.878 286.658 339.792 282.037 346.943 C 277.277 354.633 271.719 361.806 265.54 368.389 C 265.506 368.357 265.472 368.325 265.438 368.293 C 261.542 372.409 257.407 376.285 253.054 379.912 C 251.805 381.014 250.535 382.096 249.247 383.155 C 234.695 393.73 240.575 389.026 237.762 390.848 C 234.476 392.917 231.113 394.849 227.67 396.639 C 225.051 398.124 222.387 399.522 219.678 400.83 C 216.695 402.145 213.672 403.349 210.615 404.434 C 197.398 409.105 183.753 412.201 170.136 414.867 C 169.037 415.034 167.945 415.197 166.858 415.355 C 166.832 415.408 166.806 415.46 166.779 415.513 C 138.455 420.939 109.731 424.214 82.49 431.98 C 74.986 433.529 119.497 423.293 123.086 423.248 C 142.125 420.283 193.075 410.706 193.08 410.025 C 196.972 408.967 203.52 407.165 210.677 404.611 C 225.511 399.608 241.868 389.227 247.969 384.489 C 236.663 393.029 224.106 399.952 210.714 404.712 C 207.605 405.817 204.314 406.876 201.134 407.818 C 201.685 407.713 202.234 407.606 202.781 407.497 C 181.928 413.197 178.723 413.527 157.091 417.765 C 157.058 417.695 157.025 417.625 156.992 417.554 C 141.89 420.435 115.171 424.466 114.539 425.025 C 106.532 426.497 98.635 428.09 90.814 430.026 C 82.368 432.241 84.791 431.721 81.027 432.864 C 79.134 433.488 75.764 434.426 69.051 437.046 C 62.663 439.902 51.349 443.479 41.462 455.857 C 39.066 459.431 39.199 458.491 36.729 464.474 C 36.34 466.062 31.362 476.796 38.191 497.866 C 39.221 500.993 39.235 501.256 40.55 504.68 C 43.271 512.223 51.478 526.759 47.68 520.222 C 48.672 522.1 49.633 523.844 50.546 525.456 C 63.992 546.637 58.4 536.976 64.168 544.372 C 68.648 549.343 67.657 548.443 71.79 552.534 C 77.33 557.137 72.265 554.934 96.08 571.468 C 93.32 569.711 90.624 567.889 87.999 565.998 C 89.295 566.984 90.61 567.952 91.943 568.904 C 105.883 577.885 104.708 576.839 111.672 580.423 C 122.37 586.018 132.014 590.314 147.674 595.906 C 178.449 605.987 162.563 601.028 198.339 610.845 C 204.173 612.264 210.059 613.64 215.925 614.983 C 225.493 617.324 217.748 615.631 232.127 618.997 C 220.93 616.176 251.229 623.262 256.544 624.408 C 257.072 624.584 257.598 624.761 258.124 624.938 C 261.294 625.715 264.574 626.535 267.806 627.369 C 267.825 627.335 267.845 627.301 267.864 627.267 C 272.149 628.402 276.368 629.561 280.697 630.818 C 283.961 631.707 286.993 632.564 290.333 633.567 C 295.632 635.306 300.746 637.123 305.95 639.202 C 309.129 640.428 312.413 641.787 315.614 643.245 C 314.629 642.737 313.629 642.235 312.615 641.739 C 316.833 643.572 320.716 645.437 324.809 647.709 C 320.077 645.296 323.434 645.915 335.263 654.114 C 339.863 657.606 339.608 657.681 340.578 658.546 C 341.339 659.667 344.609 660.864 351.551 672.068 C 351.976 672.886 352.739 673.921 354.341 677.812 C 355.764 681.571 358.387 688.649 357.392 700.864 C 355.626 715.495 353.426 718.518 353.355 719.426 C 353.095 720.136 353.772 718.03 352.968 720.424 C 352.723 721.142 351.014 726.339 348.134 732.634 C 347.478 734.079 346.771 735.526 346.04 736.921 C 343.885 741.079 341.318 744.77 340.956 745.294 C 339.298 747.68 338.916 748.395 336.378 751.532 C 330.039 759.518 319.199 768.138 310.409 772.711 C 306.451 774.871 302.581 776.59 300.724 777.341 C 297.843 778.527 294.099 779.764 291.089 780.649 C 280.04 784.303 262.403 785.827 257.051 785.146 C 245.797 786.054 223.131 779.478 224.833 779.79 C 217.079 777.017 205.253 771.948 196.303 761.167 C 176.92 734.312 141.564 718.442 142.876 719.955 C 127.977 716.003 129.169 717.012 122.786 716.423 C 115.594 716.403 119.315 716.39 113.603 716.796 C 100.25 718.141 87.934 722.941 76.171 729.8 C 77.939 728.71 79.876 727.587 81.716 726.585 C 69.252 733.545 73.457 731.048 61.509 739.619 C 55.666 744.078 52.277 747.096 50.147 748.951 C 44.756 753.833 48.55 750.272 46.381 752.179 C 46.616 750.919 26.27 775.249 25.401 778.619 C 24.545 780.351 28.133 772.658 19.141 789.925 C 19.649 788.984 20.163 788.057 20.689 787.132 C 16.058 794.776 8.591 817.797 8.074 821.905 C 7.613 823.717 5.103 833.52 4.552 842.773 C 4.396 843.875 4.251 844.977 4.117 846.08 C 3.365 856.315 3.554 866.615 4.729 876.759 C 4.825 878.402 4.947 880.036 5.094 881.66 C 5.546 884.833 6.119 888.101 6.784 891.248 C 6.415 889.137 6.09 887.002 5.81 884.846 C 8.436 904.97 19.755 926.732 22.184 929.954 C 24.532 933.456 27.093 936.734 29.99 939.813 C 31.762 941.861 33.654 943.801 35.676 945.608 C 51.119 956.795 52.506 955.699 65.109 957.376 C 64.603 957.415 64.098 957.447 63.594 957.471 C 70.782 958.187 82.615 956.521 93.131 951.702 C 96.903 950.043 100.599 948.466 104.042 947.035 C 110.432 944.339 122.008 939.977 123.518 939.43 C 124.979 938.805 140.677 932.86 142.447 932.664 C 165.71 924.873 176.212 922.673 185.93 920.345 C 192.344 918.889 194.892 918.26 202.284 916.848 C 212.504 914.906 223.096 913.541 228.992 912.929 C 232.499 912.56 233.134 912.437 235.516 912.227 C 246.631 911.408 240.194 911.821 252.067 911.366 C 253.072 911.345 261.943 910.992 271.713 911.591 C 277.253 911.761 291.454 913.701 292.584 914.02 C 298.134 915.202 293.884 913.334 312.37 918.733 C 311.856 918.534 311.339 918.336 310.818 918.142 C 333.44 925.425 336.218 929.478 340.3 931.729 C 340.825 932.039 345.747 935.432 348.347 937.76 C 352.908 941.762 354.305 943.646 355.243 944.646 C 358.625 947.876 367.725 961.199 370.024 971.418 C 369.805 970.318 372.588 978.573 372.956 988.28 C 373.536 997.969 371.525 1008.938 370.501 1012.601 C 369.178 1018.798 367.396 1024.676 365.155 1030.635 C 364.119 1033.182 362.99 1035.753 361.765 1038.346 C 361.076 1039.981 360.405 1041.509 359.709 1043.034 C 358.333 1045.759 356.854 1048.509 355.27 1051.281 C 352.136 1056.749 348.977 1061.424 345.031 1066.257 C 344.745 1066.778 344.457 1067.294 344.164 1067.806 C 342.538 1069.74 340.797 1071.654 338.938 1073.518 C 337.448 1074.909 335.932 1076.225 334.393 1077.469 C 331.976 1079.616 329.379 1081.66 326.759 1083.479 C 326.139 1083.978 325.518 1084.463 324.862 1084.957 C 317.429 1089.622 315.344 1090.14 311.582 1091.725 C 307.765 1093.044 302.216 1095.956 286.001 1098.469 C 280.949 1099.06 275.874 1099.33 270.815 1099.358 C 265.087 1099.729 254.467 1099.131 245.931 1098.168 C 239.989 1097.496 240.224 1097.646 232.164 1096.448 C 224.075 1095.169 224.387 1095.072 223.762 1094.976 C 217.222 1093.823 212.277 1092.926 207.514 1091.957 C 206.797 1091.809 205.008 1091.354 198.95 1090.09 C 192.899 1088.826 189.217 1088.143 180.238 1086.261 C 175.616 1085.299 174.331 1084.95 170.24 1084.136 C 150.75 1080.209 131.073 1077.939 116.519 1077.903 C 113.228 1077.506 89.6 1080.695 81.346 1086.381 C 68.396 1094.411 73.549 1091.455 68.847 1095.333 C 68.353 1095.888 66.301 1097.508 62.034 1103.183 C 60.63 1105.093 59.045 1107.363 57.373 1110.037 C 56.165 1111.991 56.476 1111.619 56.306 1111.898 C 47.105 1124.524 41.3 1154.861 49.191 1170.196 C 49.806 1171.496 52.3 1178.988 60.61 1189.309 C 72.438 1205.365 107.227 1223.317 133.762 1226.45 C 137.328 1227.061 141.791 1227.69 143.436 1227.866 C 157.343 1228.815 152.317 1229.844 184.027 1228.359 C 181.456 1228.449 188.852 1227.959 199.316 1226.351 C 214.821 1223.678 203.927 1225.882 216.318 1223.257 C 216.308 1223.212 216.297 1223.166 216.287 1223.121 C 232.23 1219.446 240.664 1216.418 250.036 1212.938 C 258.053 1210.029 266.092 1207.087 279.973 1205.76 C 291.225 1204.212 307.859 1208.512 310.203 1209.996 C 311.304 1210.05 322.349 1216.184 323.103 1217.221 C 328.416 1221.382 331.004 1224.309 334.52 1228.821 C 346.59 1244.14 350.152 1266.732 349.188 1262.691 C 350.346 1267.759 351.13 1272.708 351.651 1277.809 C 353.041 1297 350.925 1311.296 350.109 1315.208 C 349.637 1318.603 349.066 1321.958 348.386 1325.322 C 339.698 1364.39 316.441 1405.415 275.154 1418.244 L 274.923 1418.305 C 231.061 1429.882 195.315 1396.335 163.268 1376.046 C 161.893 1375.277 153.939 1370.323 145.581 1367.087 C 137.259 1363.674 128.64 1362.761 127.801 1362.733 C 120.152 1362.559 128.198 1361.363 112.559 1363.328 C 110.812 1363.752 109.179 1364.233 107.514 1364.793 C 89.887 1371.078 96.801 1369.056 91.848 1371.242 C 91.458 1371.451 91.002 1371.699 90.469 1371.997 C 87.463 1373.77 88.381 1373.241 84.654 1375.692 C 74.476 1382.103 60.887 1396.636 62.436 1415.697 C 63.403 1434.42 73.082 1452.325 79.738 1464.313 C 82.472 1469.087 82.049 1468.418 82.931 1469.918 C 85.466 1474.196 90.407 1481.945 95.803 1489.909 C 129.358 1538.976 183.218 1605.041 211.673 1658.792 C 213.645 1662.405 213.816 1662.892 215.118 1665.345 C 216.936 1668.74 220.891 1676.36 222.647 1680.025 C 224.31 1683.463 225.308 1685.697 227.006 1689.409 C 234.864 1706.371 243.775 1730.005 248.305 1749.596 C 248.896 1751.192 252.748 1771.873 252.61 1772.382 C 252.789 1775.165 250.297 1756.698 254.049 1787.098 C 250.01 1760.008 252.64 1768.363 254.602 1803.819 C 254.043 1786.046 251.431 1768.299 247.194 1751.04 C 247.158 1751.023 247.122 1751.005 247.086 1750.988 C 250.63 1766.743 253.739 1782.669 254.272 1807.276 C 254.232 1806.506 254.188 1805.738 254.14 1804.97 C 253.683 1783.223 248.726 1757.316 243.924 1741.534 C 250.32 1764.875 253.828 1789.072 253.406 1813.313 C 253.397 1812.097 253.378 1810.882 253.35 1809.668 C 253.594 1798.018 250.706 1772.857 248.487 1763.457 C 240.89 1727.534 254.134 1795.089 251.398 1784.076 C 247.05 1745.488 233.569 1708.465 216.003 1674.01 C 215.526 1673.423 233.158 1706.19 242.825 1741.91 C 253.353 1777.495 252.537 1814.798 252.284 1813.968 C 252.432 1801.754 251.604 1789.656 249.9 1777.616 C 250.579 1782.98 251.087 1788.381 251.41 1793.791 C 251.279 1792.312 251.133 1790.816 250.975 1789.333 C 249.054 1768.949 244.518 1748.851 238.103 1729.413 C 256.877 1789.088 251.406 1819.341 250.075 1833.87 C 250.235 1832.177 250.374 1830.488 250.495 1828.802 C 253.967 1815.529 248.254 1751.479 234.473 1720.15 C 237.078 1726.552 245.323 1755.136 246.122 1761.401 C 246.468 1763.146 245.128 1757.088 245.938 1761.13 C 249.275 1771.583 251.675 1817.365 250.832 1810.745 C 253.455 1806.225 241.288 1733.307 233.799 1720.392 C 245.188 1752.116 251.838 1786.868 250.116 1820.543 C 250.393 1799.357 250.062 1780.153 240.019 1742.595 C 238.252 1736.93 243.565 1753.778 246.514 1772.863 C 249.745 1791.902 249.549 1812.94 249.433 1813.899 C 249.557 1799.662 248.329 1785.53 245.929 1771.554 C 247.918 1783.37 249.071 1795.344 249.272 1807.322 C 249.25 1807.357 249.227 1807.393 249.204 1807.428 C 248.459 1776.404 242.461 1748.16 229.882 1714.809 C 230.292 1715.891 237.474 1735.975 239.939 1746.025 Z M 288.555 245.977 C 288.376 245.16 294.495 257.543 296.294 265.076 C 296.003 263.965 295.69 262.854 295.354 261.743 C 301.918 277.38 298.745 308.567 297.919 309.459 C 295.299 320.907 296.218 315.771 295.204 319.408 C 294.899 320.849 289.955 335.403 283.298 345.642 C 281.804 348.111 280.217 350.542 278.569 352.896 C 278.303 353.39 278.033 353.883 277.76 354.375 C 275.339 357.604 272.787 360.706 270.103 363.698 C 297.879 332.825 309.882 283.981 288.584 246.031 C 288.574 246.013 288.565 245.995 288.555 245.977 Z M 34.868 484.163 C 36.167 498.454 46.731 518.57 44.855 514.481 C 40.76 506.042 37.44 497.534 35.677 488.804 C 35.342 487.21 35.073 485.664 34.868 484.163 Z M 346.018 1064.733 C 337.944 1074.498 329.364 1083.874 310.845 1091.686 C 310.883 1091.711 310.922 1091.736 310.96 1091.76 C 318.754 1089.187 337.424 1077.151 346.018 1064.733 Z M 66.539 36.789 C 68.754 35.075 70.772 33.626 73.06 32.082 C 64.401 38.538 62.477 39.609 54.167 48.494 C 53.683 49.047 53.887 48.885 53.72 49.078 C 51.828 51.265 50.034 53.518 48.579 55.681 C 45.811 60.028 43.422 63.597 41.085 72.265 C 39.637 79.041 39.945 79.137 39.79 81.557 C 39.784 82.571 39.69 88.298 41.953 95.024 C 44.09 101.772 48.787 109.086 53.219 114.132 C 63.249 123.232 42.629 110.32 39.85 85.292 C 37.178 59.3 64.058 38.62 66.539 36.789 Z M 137.351 4.85 C 134.85 5.51 132.349 6.201 129.775 6.951 C 137.407 4.667 121.91 8.851 111.106 12.998 C 111.188 12.583 134.728 4.83 145.67 2.548 C 142.838 3.291 140.065 4.059 137.351 4.85 Z M 198.557 175.552 C 188.794 171.636 190.341 172.18 190.821 172.282 C 194.029 173.503 197.156 174.75 200.202 176.02 C 199.656 175.863 199.108 175.707 198.557 175.552 Z M 123.515 153.023 C 124.322 153.222 126.367 153.778 129.223 154.505 L 129.122 154.48 C 137.704 156.261 151.021 159.559 159.059 161.886 C 159.498 162.02 156.69 161.244 163.943 163.367 C 165.96 163.789 187.568 170.836 182.724 169.491 C 164.891 163.246 147.656 158.6 129.108 154.544 L 129.207 154.568 C 127.288 154.069 125.4 153.556 123.544 153.032 C 123.534 153.029 123.524 153.026 123.515 153.023 Z M 102.23 145.855 C 106.223 147.371 110.074 148.7 114.105 149.98 C 116.172 150.708 118.282 151.419 120.28 152.067 C 115.814 150.753 111.054 149.205 106.719 147.64 C 105.195 147.054 103.699 146.459 102.23 145.855 Z M 122.255 1361.199 C 123.21 1361.24 124.156 1361.307 125.093 1361.396 C 128.815 1360.827 146.16 1365.405 140.705 1363.86 C 134.703 1362.041 128.476 1361.072 122.255 1361.199 Z M 62.749 1400.688 C 61.663 1404.131 61.04 1407.901 60.869 1411.476 C 60.783 1415.709 61.258 1419.988 62.11 1424.164 C 57.443 1405.258 69.347 1387.906 67.363 1390.8 C 69.491 1387.4 72.482 1383.927 75.41 1381.215 C 73.146 1383.798 72.774 1383.138 81.822 1376.24 C 82.814 1375.423 85.924 1373.114 91.266 1370.18 C 95.456 1367.883 100.475 1365.544 106.161 1363.812 C 100.999 1365.368 96.15 1367.485 91.254 1370.158 C 87.215 1372.37 83.676 1374.64 80.48 1377.062 C 80.463 1377.04 80.446 1377.018 80.429 1376.995 C 98.407 1365.509 74.051 1378.284 67.345 1390.722 C 66.762 1391.57 66.168 1392.508 65.622 1393.458 C 64.413 1395.81 63.466 1398.207 62.749 1400.688 Z M 51.097 955.85 C 53.549 956.761 56.097 957.476 58.654 957.974 C 69.001 958.931 47.285 957.862 36.139 947.116 C 38.006 948.681 34.374 946.161 30.683 942.442 C 26.937 938.765 23.4 933.876 23.013 933.317 C 24.505 935.541 26.023 937.594 27.729 939.65 C 34.148 946.868 42.111 952.727 51.097 955.85 Z M 123.991 940.781 C 114.847 943.786 159.145 927.792 174.64 924.485 C 178.321 923.526 184.973 922.027 187.727 921.404 C 189.368 920.994 191 920.597 192.624 920.213 C 194.396 919.712 224.905 914.09 237.127 913.476 C 238.268 913.432 239.402 913.396 240.529 913.366 C 244.9 913.049 249.508 912.828 253.846 912.732 C 253.297 912.789 252.748 912.847 252.196 912.907 C 255.458 912.77 258.934 912.695 262.299 912.695 C 275.321 913.049 267.397 912.956 277.263 913.558 C 288.112 914.48 270.342 912.693 270.544 912.755 C 261.713 912.083 241.124 912.769 232.226 913.823 C 226.95 914.474 232.916 913.146 210.653 916.666 C 205.892 917.394 200.906 918.265 196.109 919.196 C 187.405 921.047 178.561 923.242 169.897 925.67 C 168.246 926.05 166.569 926.447 164.918 926.846 C 164.124 926.942 144.003 933.318 145.244 933.059 C 137.29 935.509 120.778 941.259 104.035 948.252 C 102.432 948.956 100.823 949.671 99.21 950.395 C 115.445 943.535 104.402 948.265 109.257 946.338 C 111.921 945.28 120.859 941.868 123.991 940.781 Z M 229.761 1414.414 C 202.184 1402.531 218.554 1410.765 191.516 1393.505 C 193.308 1394.843 195.113 1396.173 196.934 1397.485 C 209.721 1406.887 234.436 1416.708 229.791 1414.425 C 229.781 1414.421 229.771 1414.418 229.761 1414.414 Z M 100.833 1499.448 C 91.213 1485.481 95.686 1492.713 84.287 1474.857 C 84.282 1474.849 84.277 1474.84 84.272 1474.832 C 89.936 1484.035 96.153 1493.232 102.534 1502.313 C 101.967 1501.361 101.432 1500.452 100.833 1499.448 Z M 74.506 1089.064 C 87.678 1081.006 85.205 1082.416 98.857 1078.866 C 119.831 1075.607 102.062 1078.054 102.021 1077.989 C 97.204 1078.836 92.516 1080.08 88.04 1081.817 C 77.266 1086.28 87.361 1081.767 87.403 1081.83 C 87.394 1081.834 87.385 1081.837 87.376 1081.841 C 87.373 1081.825 87.67 1081.566 83.562 1083.385 C 80.354 1085.011 77.35 1086.889 74.506 1089.064 Z M 139.477 1077.815 C 133.953 1077.387 131.556 1077.052 145.855 1078.889 C 145.865 1078.891 145.875 1078.892 145.885 1078.893 C 147.077 1078.772 160.82 1081.125 167 1082.36 C 168.64 1082.649 170.294 1082.947 171.939 1083.249 C 161.135 1081.061 150.31 1079.076 139.477 1077.815 Z M 359.639 1039.276 C 359.871 1039.278 354.693 1050.582 362.19 1034.725 C 363.513 1031.604 364.715 1028.494 365.842 1025.196 C 366.524 1023.043 367.127 1020.95 367.684 1018.805 C 373.98 997.779 371.142 983.128 371.279 983.778 C 370.552 983.948 375.918 1000.655 362.009 1034.648 C 362.005 1034.657 362.002 1034.667 361.998 1034.677 C 361.246 1036.203 360.46 1037.736 359.639 1039.276 Z M 307.241 1091.853 C 306.765 1092.156 306.285 1092.455 305.801 1092.75 C 296.621 1095.517 284.324 1098.527 265.708 1098.033 C 264.035 1098.044 262.353 1098.03 260.663 1097.994 C 253.341 1099.384 186.882 1086.476 201.274 1089.338 C 207.505 1090.748 221.233 1093.254 222.419 1093.428 C 226.4 1094.143 231.655 1095.16 238.478 1096.086 C 242.435 1096.627 250.81 1097.538 258.94 1097.949 C 276.782 1099.644 312.432 1096.143 331.08 1078.867 C 332.497 1077.771 333.845 1076.654 335.142 1075.513 C 347.713 1062.542 343.814 1066.81 352.987 1053.004 C 355.497 1047.666 347.994 1063.146 336.03 1074.318 C 324.303 1085.834 309.125 1091.37 316.65 1087.788 C 316.641 1087.793 316.631 1087.798 316.622 1087.802 C 313.578 1089.346 310.438 1090.695 307.241 1091.853 Z M 174.274 1230.274 C 175.362 1230.568 195.45 1228.495 190.746 1229.175 C 197.275 1228.33 203.773 1227.205 210.256 1225.811 C 210.202 1225.798 210.147 1225.784 210.093 1225.771 C 203.64 1227.084 197.172 1228.131 190.684 1228.9 C 190.655 1228.865 190.626 1228.831 190.597 1228.797 C 180.951 1231.193 140.147 1229.599 141.529 1228.75 C 139.346 1228.536 137.187 1228.286 135.053 1228.001 C 115.993 1224.611 99.557 1219.841 81.685 1208.761 C 80.317 1207.958 78.877 1207.067 77.523 1206.186 C 76.672 1205.552 75.838 1204.909 75.02 1204.259 C 68.851 1199.693 63.31 1194.537 58.546 1188.585 C 51.273 1178.631 54.25 1183.654 60.361 1191.116 C 66.496 1198.659 77.557 1206.672 80.138 1208.173 C 80.829 1208.594 80.691 1208.489 84.904 1210.96 C 91.59 1217.353 138.699 1231.297 154.296 1230.146 C 154.421 1230.217 154.546 1230.288 154.671 1230.359 C 161.146 1230.643 167.724 1230.61 174.274 1230.274 Z M 356.078 947.553 C 355.39 946.62 354.674 945.701 353.932 944.795 C 340.051 930.31 327.542 926.205 332.22 928.432 C 332.229 928.437 332.239 928.442 332.248 928.447 C 341.228 933.303 349.506 939.636 356.078 947.553 Z M 72.885 434.303 C 72.385 434.443 63.607 436.974 53.746 443.169 C 54.24 442.902 54.744 442.639 55.249 442.382 C 60.336 439.365 67.15 435.63 85.329 430.505 C 85.312 430.442 85.295 430.379 85.277 430.316 C 81.152 431.49 76.932 432.822 72.885 434.303 Z M 365.245 962.085 C 368.261 967.49 371.856 984.216 369.426 973.28 C 367.255 964.868 363.787 959.145 365.245 962.085 Z M 139.816 1553.008 C 137.218 1549.472 134.668 1546.011 132.086 1542.507 C 130.669 1540.691 129.26 1538.885 127.859 1537.089 C 127.865 1537.098 127.871 1537.106 127.878 1537.114 C 131.904 1542.474 135.827 1547.684 139.816 1553.008 Z M 45.938 1133.255 C 48.696 1122.171 54.16 1111.803 61.043 1102.454 C 62.796 1100.072 64.637 1097.894 66.562 1095.903 C 66.632 1095.779 66.7 1095.657 66.774 1095.53 C 64.437 1097.959 62.56 1100.286 60.995 1102.418 C 56.161 1109.086 54.345 1112.45 53.078 1114.711 C 53.085 1114.698 53.092 1114.685 53.099 1114.672 C 47.944 1124.169 44.71 1134.113 43.904 1144.217 C 44.273 1140.465 44.942 1136.924 45.938 1133.255 Z M 52.553 1180.38 C 52.199 1177.972 47.614 1176.15 44.112 1154.5 C 44.16 1155.356 44.23 1156.234 44.317 1157.096 C 46.006 1168.354 49.587 1174.214 48.505 1172.467 C 49.679 1175.207 51.019 1177.816 52.553 1180.38 Z M 194.697 1087.839 C 192.034 1087.18 170.846 1082.872 172.012 1083.191 C 172.424 1083.225 199.875 1089.086 194.697 1087.839 Z M 231.816 393.833 C 227.411 396.32 222.846 398.58 218.184 400.566 C 224.367 397.875 230.344 394.715 236.064 391.15 C 234.664 392.069 233.248 392.964 231.816 393.833 Z M 273.378 357.465 C 275.457 354.51 269.141 364.452 281.365 346.615 C 273.006 359.975 262.259 371.744 249.961 381.525 C 255.709 376.912 261.107 371.86 266.073 366.423 C 265.154 367.321 264.222 368.207 263.279 369.08 C 266.85 365.403 270.24 361.511 273.378 357.465 Z M 283.004 343.617 C 280.686 347.173 285.687 339.594 289.82 329.802 C 294.135 320.075 296.624 308.018 296.887 305.966 C 297.071 305.058 297.817 300.701 297.974 299.075 C 297.323 305.814 295.95 312.483 293.969 318.931 C 294.673 316.78 295.306 314.617 295.872 312.416 C 294.057 320.126 291.352 327.612 287.936 334.741 C 289.356 331.694 290.665 328.542 291.812 325.377 C 289.414 331.704 286.44 337.807 283.004 343.617 Z M 130.544 420.868 C 136.005 419.944 141.479 419.041 146.949 418.118 C 145.845 418.239 144.741 418.359 143.638 418.478 C 140.368 419.029 137.082 419.578 133.82 420.128 C 132.732 420.373 131.639 420.62 130.544 420.868 Z M 238.952 389.201 C 232.329 394.131 212.126 403.715 235.145 391.459 C 237.411 390.116 239.581 388.75 238.952 389.201 Z M 298.284 289.266 C 298.015 280.463 297.256 277.092 297.525 277.941 C 297.685 278.808 298.639 283.9 298.388 292.261 C 298.36 293.097 298.321 290.59 298.284 289.266 Z M 224.569 188.417 C 223.191 187.739 221.464 186.306 209.08 180.708 C 206.985 179.73 205.015 178.839 203.042 177.97 C 208.386 179.054 246.904 200.944 241.361 198.441 C 235.512 194.583 230.888 191.86 224.569 188.417 Z M 259.624 213.176 C 264.691 217.648 269.367 222.368 273.658 227.458 C 272.302 225.766 270.878 224.084 269.386 222.412 C 271.688 224.855 273.794 227.269 275.849 229.822 C 279.38 234.404 282.395 238.96 285.16 243.968 C 277.92 231.323 268.086 220.38 256.955 211.003 C 257.796 211.669 258.737 212.436 259.624 213.176 Z M 261.796 369.548 C 270.776 360.458 281.174 348.156 289.436 328.895 C 289.44 328.885 289.444 328.876 289.448 328.866 C 289.847 327.903 290.639 326.229 291.768 323.072 C 292.285 321.768 297.217 307.557 297.538 293.514 C 298.231 279.492 294.528 266.746 295.181 268.893 C 299.846 290.428 296.949 298.863 296.823 304.038 C 296.609 305.088 296.378 306.131 296.13 307.17 C 291.57 327.731 288.049 333.001 282.528 343.373 C 282.515 343.311 282.502 343.25 282.489 343.189 C 278.492 349.986 273.857 356.392 268.726 362.348 C 269.472 361.524 270.207 360.692 270.932 359.852 C 269.169 362.003 267.326 364.117 265.441 366.153 C 260.747 371.054 254.401 376.849 261.796 369.548 Z M 235.285 195.221 C 230.766 190.884 176.054 165.949 149.082 160.585 C 163.355 164.033 184.025 170.732 198.692 176.912 C 226.325 189.11 207.274 180.568 211.984 182.599 C 214.313 183.527 229.642 191.663 235.285 195.221 Z M 223.93 396.868 C 237.459 390.022 244.406 384.965 254.47 376.584 C 253.658 377.323 252.835 378.055 252.006 378.775 C 249.254 382.692 217.408 400.898 223.93 396.868 Z M 110.595 150.171 C 122.47 154.191 126.643 155.042 128.921 155.66 L 128.867 155.647 C 131.856 156.279 130.995 155.994 139.417 158.116 C 135.962 157.29 132.441 156.487 128.854 155.706 L 128.905 155.719 C 122.568 154.066 116.67 152.32 110.568 150.25 C 110.577 150.224 110.586 150.197 110.595 150.171 Z M 370.298 995.377 C 369.9 1007.808 365.882 1021.089 363.337 1028.067 C 366.314 1020.1 368.496 1012.171 369.67 1003.715 C 370.002 1000.979 370.22 998.195 370.298 995.377 Z M 71.526 961.023 C 74.347 961.139 85.1 958.718 86.246 958.14 C 88.239 957.508 87.711 957.709 87.742 957.715 C 97.582 954.091 93.371 955.426 94.551 954.954 C 94.958 954.758 96.017 954.277 98.513 953.199 C 100.157 952.38 122.985 943.128 132.315 939.944 C 146.888 934.668 161.589 930.341 167.056 928.839 C 176.572 926.138 193.718 921.756 209.639 919.142 C 215.935 918.109 218.522 917.808 224.96 917.006 C 245.722 914.487 278.073 912.629 307.937 921.065 C 338.255 928.406 361.981 952.136 366.289 970.81 C 369.111 979.695 369.404 988.767 369.283 993.601 C 369.244 997.481 368.926 1001.359 368.379 1005.191 C 365.975 1016.85 365.081 1020.814 360.388 1032.766 C 357.166 1040.425 355.273 1043.554 354.779 1044.579 C 353.812 1046.452 352.943 1048.065 352.132 1049.534 C 350.112 1053.169 348.549 1055.726 346.311 1058.968 C 342.653 1064.442 336.407 1071.059 334.658 1072.616 C 334.151 1073.097 334.739 1072.611 333.188 1074.083 C 331.604 1075.382 328.096 1079.434 317.134 1085.445 C 294.388 1097.43 267.977 1097.359 242.597 1094.271 C 251.061 1095.683 258.564 1096.123 269.06 1096.117 C 271.909 1096.087 270.107 1096.176 272.576 1096.12 C 279.491 1096.112 292.822 1094.314 298.33 1092.708 C 304.339 1091.047 302.388 1091.933 309.761 1089.094 C 310.13 1088.939 308.939 1089.364 310.653 1088.646 C 327.274 1080.556 333.232 1076.931 347.227 1058.067 C 348.343 1056.42 350.178 1053.637 352.383 1049.674 C 359.503 1037.166 370.15 1013.291 369.594 990.986 C 369.757 968.384 357.352 952.397 356.648 951.501 C 350.769 944.801 367.722 960.271 369.513 985.359 C 372.058 1010.174 359.416 1036.417 356.884 1041.464 C 355.077 1045.084 356.926 1041.25 355.235 1044.556 C 354.977 1045.048 354.035 1046.927 352.496 1049.737 C 349.637 1055 344.744 1062.755 338.532 1069.396 C 327.984 1083.783 294.774 1096.525 278.317 1095.998 C 239.587 1098.147 202.212 1086.744 164.765 1079.917 C 128.861 1073.176 83.002 1067.963 59.469 1101.294 C 40.464 1125.195 35.11 1161.318 54.347 1186.373 C 72.537 1211.464 103.091 1224.472 133.224 1229.626 C 136.058 1230.074 140.033 1230.761 149.509 1231.562 C 183.817 1234.267 218.635 1228.108 251.153 1215.915 C 274.486 1206.866 303.698 1204.217 323.63 1221.861 C 343.207 1239.136 349.048 1266.658 348.934 1291.815 C 347.973 1341.562 324.788 1398.561 274.216 1415.129 L 274.185 1415.137 C 224.539 1428.155 189.32 1383.005 148.582 1364.787 C 129.957 1356.305 107.902 1358.234 90.336 1368.484 C 73.434 1377.282 58.652 1393.339 59.14 1413.143 C 59.169 1418.189 59.842 1422.829 61.02 1427.807 C 59.509 1421.537 58.604 1412.673 60.046 1405.218 C 61.356 1397.729 64.631 1392.327 65.165 1391.387 C 65.55 1390.807 67.717 1386.487 73.157 1381.112 C 81.17 1373.567 85.375 1371.832 86.14 1371.196 C 88.563 1369.735 86.919 1370.636 89.317 1369.258 C 89.683 1369.052 90.052 1368.846 90.423 1368.643 C 107.153 1359.495 123.121 1357.067 140.082 1361.986 C 159.447 1368.332 167.628 1375.436 180.063 1383.557 C 181.42 1384.558 182.777 1385.566 184.138 1386.577 C 191.434 1392.191 242.318 1427.925 274.224 1415.305 L 274.266 1415.294 C 276.838 1414.521 279.147 1413.68 281.173 1412.855 C 289.025 1409.448 287.61 1409.934 290.164 1408.613 C 291.471 1407.332 292.141 1409.345 308.848 1394.435 C 316.821 1386.434 318.436 1383.916 321.805 1379.403 C 323.562 1376.893 323.241 1377.281 325.64 1373.561 C 338.975 1351.877 345.378 1331.418 348.289 1306.731 C 348.974 1299.732 348.921 1299.661 349.028 1298.1 C 349.249 1292.33 349.64 1282.205 347.171 1267.707 C 345.161 1255.946 339.753 1237.71 327.175 1224.972 C 314.855 1211.779 296.593 1208.356 286.92 1208.551 C 283.836 1208.529 281.652 1208.592 279.48 1208.782 C 276.241 1209.088 274.914 1209.408 274.331 1209.487 C 263.888 1211.372 270.216 1210.06 262.981 1211.825 C 260.034 1212.644 257.007 1213.546 251.098 1215.769 C 249.815 1216.257 248.401 1216.782 246.829 1217.344 C 235.616 1221.239 237.768 1220.282 233.002 1221.775 C 232.501 1221.917 232.362 1222.076 227.692 1223.376 C 209.98 1228.545 183.074 1232.387 165.623 1232.079 C 160.52 1232.056 156.899 1231.944 149.826 1231.419 C 142.881 1230.964 119.045 1228.427 98.144 1219.321 C 76.889 1210.862 61.272 1195.011 59.429 1192.419 C 59.026 1191.874 63.603 1197.255 56.408 1188.573 C 54.341 1185.971 52.495 1183.319 50.796 1180.468 C 48.119 1175.676 46.02 1170.57 44.632 1165.273 C 44.535 1165.431 42.194 1157.639 42.197 1149.61 C 42.009 1141.587 44.037 1133.76 44.126 1133.94 C 44.931 1130.529 46.01 1127.124 47.291 1123.851 C 49.871 1117.168 51.773 1112.559 59.622 1101.407 C 59.802 1101.159 59.986 1100.909 60.173 1100.658 C 61.594 1098.875 63.065 1097.213 64.584 1095.665 C 64.929 1095.24 65.275 1094.824 65.631 1094.408 C 70.925 1088.761 81.639 1082.511 83.128 1082.064 C 88.42 1079.62 92.649 1078.53 95.308 1077.849 C 105.117 1074.77 127.478 1074.539 139.373 1076.248 C 139.923 1076.314 139.422 1076.329 142.757 1076.744 C 148.811 1077.552 149.503 1077.503 157.539 1078.988 C 159.178 1079.23 160.86 1079.489 162.477 1079.745 C 164.193 1080.076 165.916 1080.418 167.645 1080.768 C 177.867 1082.714 188.036 1084.898 198.234 1087.014 C 188.944 1085.209 199.569 1087.567 209.709 1089.476 C 213.137 1090.115 210.12 1089.427 211.263 1089.639 C 212.728 1090.458 259.048 1097.456 262.279 1096.54 C 264.509 1096.59 266.688 1096.6 268.923 1096.566 C 270.057 1096.619 271.187 1096.66 272.315 1096.688 C 273.543 1096.638 274.766 1096.573 275.983 1096.492 C 288.448 1097.442 319.068 1087.049 323.211 1082.513 C 325.666 1080.646 324.079 1083.196 335.168 1073.372 C 335.493 1072.972 335.815 1072.568 336.134 1072.159 C 338.571 1069.738 340.796 1067.235 342.888 1064.617 C 347.085 1059.56 351.736 1051.943 351.994 1051.581 C 352.289 1051.042 352.582 1050.497 352.872 1049.946 C 353.536 1048.686 354.178 1047.432 354.798 1046.184 C 357.806 1042.023 368.766 1015.338 369.267 1003.769 C 369.758 1000.522 370.088 997.123 370.206 993.788 C 370.252 989.399 369.923 984.755 369.174 980.36 C 367.203 970.105 369.409 980.902 368.983 978.723 C 368.621 976.407 366.987 969.368 364.296 963.559 C 361.705 957.697 358.401 953.135 358.947 953.723 C 357.095 950.979 355.1 948.454 352.867 946.004 C 351.678 944.784 350.492 943.656 349.232 942.533 C 345.244 938.701 337.928 931.503 319.578 924.081 C 318.021 923.522 316.434 922.989 314.817 922.482 C 309.114 920.459 303.078 918.81 297.161 917.554 C 295.907 917.377 294.641 917.212 293.363 917.06 C 290.739 916.606 288.193 916.228 285.526 915.89 C 280.064 914.954 270.437 914.433 265.56 914.264 C 258.465 914.086 263.761 913.679 277.302 914.705 C 276.229 913.685 236.507 913.791 227.315 915.679 C 227.905 915.636 228.504 915.593 229.13 915.55 C 238.582 914.522 247.944 913.936 257.248 913.875 C 265.097 914.082 239.726 914.176 227.985 915.88 C 226.991 916.017 220.946 916.68 209.348 918.594 C 204.839 919.229 187.447 922.646 184.06 923.542 C 157.607 930.235 176.929 925.156 151.228 932.588 C 156.611 931.096 141.891 935.374 126.814 941.023 C 124.27 941.841 102.777 950.537 101.389 951.243 C 94.029 954.397 99.174 952.096 94.23 954.22 C 93.095 954.709 91.437 955.419 89.034 956.29 C 87.463 956.889 86.022 957.397 84.323 957.919 C 81.094 958.829 78.141 959.454 74.797 959.884 C 55.233 961.102 50.886 957.235 44.609 954.754 C 42.147 953.401 45.223 955.264 39.055 951.422 C 36.797 949.843 34.14 948.27 28.925 942.985 C 13.736 925.413 11.38 916.998 5.169 896.658 C 4.408 893.387 3.796 890.245 3.262 886.954 C 2.815 884.736 2.431 882.599 2.083 880.391 C 0.44 863.459 1.1 869.513 0.759 863.412 C -0.633 847.044 6.114 814.267 7.713 811.725 C 11.219 798.097 19.166 783.199 22.08 778.536 C 23.706 775.701 25.436 772.914 27.272 770.186 C 29.481 767.048 31.843 763.979 34.323 761.038 C 32.692 762.093 46.229 747.873 48.169 746.714 C 48.182 746.702 48.194 746.692 48.205 746.682 C 49.583 744.843 73.886 725.806 84.769 721.803 C 94.939 716.337 114.64 713.127 116.411 713.53 C 118.311 713.047 138.112 713.284 151.83 720.274 C 159.447 722.59 184.884 740.771 198.696 759.215 C 209.296 771.635 221.809 774.973 219.675 774.363 C 214.906 772.254 208.348 768.486 203.571 764.09 C 202.344 762.978 200.642 761.344 198.823 759.111 C 189.094 747.369 166.184 720.356 133.771 714.341 C 101.125 707.928 72.09 727.762 61.708 735.345 C 56.945 738.83 52.448 742.486 47.945 746.46 C 6.942 782.423 -7.556 844.021 4.791 896.059 C 5.638 899.48 5.711 900.009 6.542 902.869 C 7.733 907.367 11.968 918.078 14.141 922.076 C 21.103 937.463 36.576 951.947 44.968 955.281 C 63.247 963.926 78.418 960.857 92.34 955.481 C 92.824 955.284 93.52 954.997 94.401 954.61 C 101.612 951.38 120.802 943.397 134.777 938.599 C 137.652 937.608 140.507 936.651 143.342 935.728 C 135.24 938.335 114.055 946.321 104.692 950.349 C 100.832 951.957 97.441 953.409 94.445 954.711 C 86.378 958.174 81.108 959.228 77.1 959.925 C 74.692 960.328 67.453 961.398 59.475 960.099 C 51.492 958.967 43.325 955.067 38.807 951.928 C 35.959 949.974 35.475 949.465 33.225 947.585 C 20.693 937.359 10.92 918.007 6.96 904.732 C 7.922 910.291 0.146 875.827 1.006 873.775 C 0.741 870.631 0.369 867.141 0.291 860.672 C 0.473 848.174 0.336 849.738 2.129 834.227 C 2.743 830.421 3.494 826.603 4.37 822.856 C 2.728 822.185 19.497 775.946 29.759 765.777 C 29.871 765.586 20.163 778.225 13.655 793.436 C 6.83 808.497 3.428 825.501 3.004 828.058 C -3.81 858.779 1.64 907.507 19.889 932.752 C 22.419 936.624 28.202 944.212 35.101 949.548 C 41.869 955.018 49.285 957.766 50.289 958.1 C 53.619 959.23 50.632 958.146 52.075 958.619 C 67.142 962.686 71.35 960.5 71.766 960.9 C 72.284 960.905 69.496 961.126 71.526 961.023 Z M 282.117 343.13 C 277.258 351.362 271.491 358.986 264.998 365.973 C 265.433 365.435 265.864 364.894 266.291 364.35 C 269.233 361.11 271.995 357.766 274.616 354.253 C 276.591 351.535 278.449 348.762 280.211 345.892 C 280.859 344.98 281.494 344.059 282.117 343.13 Z M 291.784 321.753 C 294.331 313.88 294.28 313.449 294.776 311.602 C 296.064 306.044 296.74 301.145 297.093 295.613 C 297.176 302.037 294.375 315.441 291.784 321.753 Z M 159.799 414.516 C 161.636 414.17 173.838 412.372 187.5 408.848 C 195.025 407.086 202.623 405.018 209.92 402.482 C 212.535 401.573 215.126 400.576 217.69 399.495 C 215.243 400.529 212.634 401.549 209.928 402.503 C 194.323 408.059 175.481 411.803 168.171 413.218 C 164.922 413.838 164.282 413.875 161.668 414.353 C 146.6 417.066 131.976 419.588 130.395 419.626 C 144.654 417.309 157.486 414.943 159.799 414.516 Z M 245.853 382.963 C 247.855 381.532 249.821 380.048 251.749 378.514 C 244.907 384.206 237.536 389.265 229.745 393.578 C 231.823 392.366 233.871 391.098 235.886 389.779 C 239.301 387.651 242.628 385.375 245.853 382.963 Z M 353.172 707.943 C 354.283 702.259 354.733 697.092 354.29 691.396 C 354.363 691.63 354.513 698.203 354.195 700.312 C 354.195 700.302 354.196 700.292 354.197 700.282 C 353.906 702.832 354.08 701.673 353.281 706.47 C 353.248 706.973 353.202 707.51 353.172 707.943 Z M 62.528 1434.1 C 61.524 1444.822 108.49 1515.188 104.997 1508.602 C 102.963 1505.827 86.349 1481.852 82.259 1474.705 C 75.632 1465.096 62.908 1437.245 62.528 1434.1 Z M 142.267 1559.568 C 143.23 1560.559 111.78 1518.225 108.908 1514.09 C 109.558 1515.023 110.485 1516.379 111.323 1517.549 C 115.39 1523.322 135.507 1550.309 142.267 1559.568 Z M 105.457 714.399 C 109.603 713.634 113.838 713.193 118.037 713.119 C 116.913 713.065 115.821 713.034 114.699 713.029 C 111.57 713.301 108.489 713.765 105.457 714.399 Z M 146.535 934.627 C 211.774 914.798 292.878 896.227 350.095 943.823 C 345.617 939.427 340.523 935.617 335.241 932.456 C 280.217 901.944 210.078 915.706 154.952 932.1 C 152.166 932.909 149.21 933.801 146.535 934.627 Z M 140.068 417.483 C 122.195 420.53 107.18 422.877 88.088 427.602 C 106.248 422.959 115.542 421.703 133.505 418.443 C 133.515 418.442 133.525 418.44 133.535 418.438 C 135.708 418.119 137.887 417.801 140.068 417.483 Z M 234.637 622.751 C 229.288 621.576 223.884 620.393 218.488 619.193 C 224.991 620.72 231.362 622.189 237.885 623.708 C 236.806 623.389 235.723 623.07 234.637 622.751 Z M 81.185 1082.287 C 75.088 1085.293 66.044 1091.572 59.173 1101.075 C 46.149 1117.395 40.485 1140.803 41.675 1150.679 C 41.691 1151.178 41.667 1149.134 41.713 1148.817 C 41.829 1148.492 41.505 1149.956 42.438 1157.247 C 40.935 1146.184 42.769 1138.288 42.714 1137.513 C 43.328 1134.248 44.174 1131.051 45.224 1127.916 C 46.89 1122.653 49.143 1117.558 51.734 1112.814 C 51.576 1113.456 51.613 1112.786 56.059 1105.753 C 57.086 1104.229 58.169 1102.703 59.311 1101.177 C 60.551 1099.518 61.834 1097.954 63.159 1096.482 C 64.2 1095.239 65.232 1094.088 66.415 1092.879 C 68.905 1090.568 71.428 1088.586 74.254 1086.723 C 85.229 1079.92 78.491 1083.952 81.185 1082.287 Z M 146.246 1076.476 C 144.846 1076.298 121.986 1072.864 104.763 1075.438 C 87.575 1078.095 76.771 1083.664 95.622 1077.372 C 105.718 1074.904 116.093 1074.43 126.442 1074.865 C 117.874 1073.908 146.113 1076.215 148.334 1076.993 C 159.32 1078.577 173.265 1081.29 181.16 1082.932 C 187.948 1084.343 191.984 1085.269 196.755 1086.264 C 213.014 1089.862 238.911 1094.205 242.597 1094.271 C 229.751 1092.684 216.823 1090.23 203.656 1087.533 C 189.731 1084.784 177.569 1081.453 151.249 1077.343 C 144.667 1076.345 147.04 1076.601 146.246 1076.476 Z M 202.354 615.31 C 203.009 615.461 170.546 606.932 170.378 606.731 C 170.297 606.768 180.816 609.75 182.325 610.146 C 182.334 610.149 182.344 610.151 182.354 610.154 C 182.981 610.328 179.778 609.526 184.732 610.877 C 190.579 612.416 196.481 613.891 202.354 615.31 Z M 139.802 1361.368 C 138.29 1360.432 112.589 1354.294 90.141 1368.13 C 77.442 1374.875 66.538 1385.188 62.344 1395.57 C 57.987 1405.837 58.904 1413.989 58.8 1414.724 C 58.832 1415.556 58.841 1414.394 58.87 1414.722 C 57.003 1396.878 72.135 1376.904 90.194 1368.226 C 97.189 1364.393 104.194 1361.776 110.528 1360.421 C 116.823 1359.208 114.903 1359.627 115.268 1359.527 C 115.282 1359.525 115.297 1359.523 115.312 1359.521 C 118.921 1358.421 135.233 1359.623 139.802 1361.368 Z M 51.156 1181.989 C 48.89 1178.198 47 1174.234 45.528 1170.105 C 45.107 1169.081 44.708 1168.032 44.339 1166.98 C 44.342 1166.99 44.345 1166.999 44.348 1167.009 C 45.973 1172.265 48.279 1177.279 51.156 1181.989 Z M 187.557 1231.555 C 186.474 1231.631 185.395 1231.699 184.32 1231.758 C 173.366 1232.702 162.116 1232.845 151.114 1232.052 C 152.231 1232.113 153.389 1232.167 154.482 1232.207 C 137.793 1231.093 130.841 1229.618 122.229 1227.69 C 122.239 1227.693 122.249 1227.695 122.259 1227.698 C 121.315 1227.466 120.166 1227.146 116.727 1226.211 C 108.631 1224.571 87.113 1215.104 84.848 1213.312 C 82.214 1211.821 91.047 1217.372 102.422 1221.672 C 113.769 1226.159 127.482 1229.016 131.893 1229.734 C 135.778 1230.437 140.517 1231.134 142.973 1231.406 C 145.56 1231.692 149.189 1232.025 155.65 1232.353 C 157.489 1232.671 178.524 1232.788 187.557 1231.555 Z M 346.992 1269.782 C 346.595 1266.42 344.941 1259.399 344.171 1256.894 C 343.998 1256.283 345.422 1261.015 343.775 1255.261 C 343.243 1253.662 342.674 1252.092 342.068 1250.553 C 344.335 1256.738 345.943 1263.248 346.992 1269.782 Z M 148.184 599.779 C 149.034 600.195 166.211 605.723 167.055 605.878 C 177.379 609.006 141.83 597.715 148.184 599.779 Z M 265.407 363.881 C 262.285 366.814 279.068 350.83 288.453 327.711 C 298.933 304.784 295.973 276.812 294.513 272.447 C 295.384 272.771 296.76 296.175 296.218 283.928 C 298.498 295.802 290.314 327.567 285.838 333.951 C 283.793 338.088 283.072 339.035 282.744 339.651 C 281.927 342.347 267.871 362.109 265.407 363.881 Z M 249.77 206.829 C 257.165 212.494 264.058 218.704 270.348 225.801 C 262.913 217.488 254.727 210.423 245.586 203.88 C 246.923 204.79 248.407 205.838 249.77 206.829 Z M 240.178 200.084 C 240.429 199.798 213.358 184.168 205.124 181.192 C 214.101 184.913 227.85 191.898 240.178 200.084 Z M 51.306 533.586 C 59.538 545.638 63.984 550.177 53.149 536.105 C 52.831 535.674 50.972 533.078 51.306 533.586 Z M 76.979 1084.004 C 75.5 1084.612 64.346 1092.345 58.673 1100.707 C 55.27 1105.302 53.162 1108.893 52.795 1109.536 C 51.097 1112.737 54.338 1106.769 58.795 1100.797 C 61.382 1097.276 64.181 1094.286 66.064 1092.516 C 70.179 1088.769 69.296 1089.799 69.825 1089.349 C 70.478 1089.176 71.965 1086.405 84.117 1080.637 C 83.123 1081.111 82.143 1081.61 81.177 1082.134 C 95.582 1075.92 90.985 1078.193 93.614 1077.144 C 94.391 1076.766 104.144 1074.87 105.863 1074.797 C 116.968 1073.769 109.818 1073.868 99.851 1075.593 C 89.757 1077.103 77.828 1083.241 76.979 1084.004 Z M 353.447 698.098 C 352.524 710.117 350.482 714.406 349.386 718.298 C 348.229 721.695 347.584 723.883 344.427 730.934 C 343.131 733.757 341.393 737.248 338.581 741.586 C 338.38 741.896 341.468 737.522 344.473 730.955 C 350.551 719.103 353.94 700.407 353.447 698.098 Z M 345.186 1059.878 C 327.699 1084.697 301.777 1094.537 274.082 1095.495 C 274.751 1095.487 298.382 1095.507 317.366 1084.913 C 336.725 1074.808 347.31 1056.46 345.186 1059.878 Z M 179.683 1614.335 C 154.547 1575.824 124.094 1537.779 95.62 1496.842 C 81.734 1476.269 67.495 1454.961 60.735 1430.534 C 52.194 1405.663 66.609 1378.645 89.961 1367.802 C 114.071 1352.729 145.166 1358.406 166.958 1373.677 C 178.404 1381.01 179.304 1382.037 183.356 1384.795 C 186 1386.639 185.576 1386.26 189.082 1388.711 C 213.576 1406.62 243.577 1422.528 274.013 1414.397 L 273.997 1414.402 C 324.783 1397.626 347.396 1340.382 348.126 1291.117 C 348.123 1266.168 342.126 1239.054 322.83 1222.278 C 303.24 1205.168 274.628 1207.736 251.45 1216.709 C 234.595 1223.029 217.148 1227.729 199.338 1230.433 C 190.198 1233.065 144.552 1233.476 135.038 1230.776 C 127.69 1230.171 160.166 1233.909 165.714 1233.153 C 169.763 1233.135 169.948 1233.196 172.682 1233.118 C 175.596 1233.009 173.18 1233.056 176.578 1232.896 C 190.793 1232.209 206.178 1229.829 218.699 1226.843 C 229.932 1224.195 240.712 1220.879 251.497 1216.834 C 275.052 1207.664 304.105 1205.379 323.474 1222.995 C 342.537 1240.202 348.185 1267.427 347.988 1292.319 C 346.87 1341.537 323.936 1397.842 273.947 1414.234 L 273.973 1414.227 C 262.681 1416.894 250.889 1417.031 239.593 1414.42 C 225.015 1410.498 228.213 1410.68 227.442 1410.601 C 227.433 1410.598 227.423 1410.594 227.414 1410.591 C 184.993 1395.138 142.662 1335.236 89.867 1367.629 C 73.959 1375.989 59.325 1390.819 58.362 1409.455 C 57.103 1427.67 64.753 1445.005 72.823 1460.483 C 102.638 1513.62 143.371 1559.28 176.724 1609.985 C 177.714 1611.431 178.7 1612.88 179.683 1614.335 Z M 139.704 1075.353 C 132.17 1074.8 130.411 1072.688 103.32 1075.182 C 101.111 1075.551 98.922 1075.998 96.787 1076.527 C 110.849 1073.355 125.478 1073.805 139.75 1075.358 C 139.735 1075.356 139.719 1075.354 139.704 1075.353 Z M 52.677 1185.29 C 53.716 1187.313 63.387 1201.116 80.038 1211.232 C 96.311 1221.693 117.862 1227.935 131.366 1230.224 C 136.157 1231.674 97.35 1222.183 89.475 1216.422 C 85.273 1214.597 62.927 1201.564 52.56 1185.056 C 52.599 1185.134 52.638 1185.212 52.677 1185.29 Z M 175.818 410.054 C 171.525 410.96 167.153 411.816 162.826 412.623 C 173.707 410.652 184.548 408.461 195.216 405.59 C 178.206 410.188 160.765 413.138 143.369 416.057 C 146.6 415.443 149.826 414.825 153.058 414.194 C 160.647 412.925 168.283 411.579 175.818 410.054 Z M 119.456 420.109 C 149.95 414.833 118.12 420.384 110.542 421.839 C 105.988 422.665 116.358 420.642 119.456 420.109 Z M 44.24 446.671 C 54.75 435.816 83.457 427.653 73.536 431.041 C 59.357 436.705 47.291 439.014 34.891 458.554 C 36.378 455.583 38.31 452.761 40.487 450.261 C 40.497 450.249 40.507 450.238 40.517 450.226 C 41.678 448.985 42.975 447.752 44.24 446.671 Z M 133.355 417.557 C 153.33 414.223 95.555 424.336 113.71 421.009 C 114.523 420.804 132.568 417.659 133.355 417.557 Z M 103.832 1509.434 C 105.293 1511.367 96.313 1498.73 93.401 1494.362 C 80.937 1475.879 64.894 1451.024 59.671 1428.082 C 60.053 1429.878 60.44 1431.455 60.909 1433.171 C 69.72 1461.475 87.168 1485.626 103.832 1509.434 Z M 89.896 1367.333 C 104.027 1359.416 120.894 1355.787 136.761 1359.69 C 138.254 1359.952 145.041 1361.954 140.003 1360.432 C 123.25 1355.389 104.926 1358.807 89.896 1367.333 Z M 239.394 1092.981 C 227.21 1091.471 262.309 1095.334 260.766 1094.933 C 253.614 1094.628 246.491 1093.924 239.394 1092.981 Z M 342.777 1062.289 C 338.161 1068.302 332.797 1073.769 326.593 1078.398 C 326.568 1078.382 326.544 1078.365 326.519 1078.348 C 332.743 1073.743 338.132 1068.293 342.777 1062.289 Z M 141.204 1560.351 C 136.384 1553.625 124.742 1538.019 117.563 1528.269 C 122.44 1535.047 134.359 1550.98 141.204 1560.351 Z M 62.289 1095.792 C 62.46 1095.641 60.785 1097.432 58.478 1100.564 C 50.176 1110.104 41.481 1134.753 45.977 1122.447 C 49.192 1114.489 53.344 1107.45 58.442 1100.537 C 59.68 1098.864 60.963 1097.283 62.289 1095.792 Z M 53.919 1188.067 C 47.567 1179.515 44.913 1171.542 45.775 1173.586 C 47.963 1178.785 50.794 1183.663 54.136 1188.196 C 54.064 1188.153 53.992 1188.11 53.919 1188.067 Z M 33.578 497.873 C 36.774 508.225 41.424 517.846 46.906 527.524 C 50.383 533.629 54.267 539.257 58.683 544.654 C 58.244 544.162 57.808 543.665 57.376 543.165 C 53.442 538.2 49.988 533.102 46.834 527.565 C 41.34 517.867 36.677 508.22 33.479 497.836 C 33.512 497.849 33.545 497.861 33.578 497.873 Z M 146.885 1568.519 C 154.118 1578.387 161.17 1588.18 168.088 1598.135 C 161.194 1588.15 154.166 1578.326 146.957 1568.428 C 146.927 1568.45 146.896 1568.473 146.866 1568.495 C 146.872 1568.503 146.878 1568.511 146.885 1568.519 Z M 222.745 394.697 C 216.722 397.623 212.197 399.307 209.171 400.374 C 201.447 402.962 203.228 402.336 209.137 400.28 C 219.814 397.11 241.183 384.473 247.136 379.255 C 247.148 379.245 247.16 379.236 247.172 379.227 C 248.154 378.474 246.149 380.159 247.788 378.909 C 243.491 382.27 238.996 385.384 234.342 388.218 C 230.132 390.875 225.787 393.302 221.31 395.481 C 219.822 396.168 218.332 396.823 216.813 397.456 C 218.822 396.582 220.787 395.667 222.745 394.697 Z M 261.088 218.044 C 222.592 187.787 264.719 216.059 277.663 236.848 C 277.906 236.534 264.537 220.623 261.088 218.044 Z M 284.784 333.258 C 281.485 340.152 277.492 346.728 272.971 352.887 C 272.371 353.66 271.761 354.427 271.143 355.188 C 274.724 350.518 277.983 345.622 280.867 340.525 C 282.253 338.154 283.568 335.717 284.784 333.258 Z M 63.714 433.675 C 57.957 436.053 51.748 439.876 51.331 440.264 C 51.025 440.842 55.657 436.243 74.764 429.676 C 74.736 429.656 74.708 429.636 74.68 429.615 C 73.227 430.078 68.687 431.76 68.488 431.854 C 67.785 432.137 68.621 431.622 63.714 433.675 Z M 183.014 174.426 C 181.705 174.019 181.014 173.848 167.241 169.156 C 163.176 167.914 158.999 166.706 154.708 165.535 C 153.618 165.165 152.52 164.797 151.413 164.431 C 168.051 169.075 169.204 169.6 170.518 169.953 C 176.018 171.722 171.942 170.465 175.45 171.626 C 184.352 174.398 204.096 182.46 195.073 178.999 C 191.778 177.714 184.257 174.839 183.014 174.426 Z M 213.348 187.304 C 211.545 186.389 217.42 189.19 216.061 188.494 C 215.046 187.742 196.385 179.322 201.498 181.45 C 204.412 182.708 207.625 184.156 210.653 185.596 C 211.668 186.12 212.671 186.646 213.662 187.175 C 216.603 188.572 219.232 189.871 222.273 191.461 C 227.178 194.176 236.856 200.053 225.036 193.323 C 229.498 195.797 233.623 198.258 237.993 201.103 C 240.219 202.503 242.374 203.92 244.459 205.354 C 243.339 204.641 242.2 203.934 241.043 203.231 C 232.158 197.167 222.737 191.876 213.348 187.304 Z M 65.726 131.939 C 66.26 132.274 66.8 132.608 67.345 132.939 C 50.322 123.351 35.445 96.149 44.581 110.741 C 59.902 132.269 84.062 144.068 107.919 152.604 C 109.484 153.182 111.076 153.749 112.694 154.306 C 94.803 147.904 100.045 150.463 85.053 143.401 C 82.599 142.01 89.661 145.977 74.248 137.415 C 74.771 137.773 75.3 138.13 75.835 138.485 C 72.313 136.42 69.052 134.324 65.726 131.939 Z M 103.099 10.993 C 73.625 24.121 105.823 9.083 111.715 7.604 C 111.706 7.607 111.696 7.611 111.687 7.614 C 127.061 2.385 94.239 14.195 92.39 15.785 C 89.969 17.062 83.729 19.694 70.541 28.02 C 80.755 21.107 91.758 15.608 103.099 10.993 Z M 35.009 84.959 C 34.872 82.148 35.002 83.702 34.974 82.487 C 34.974 82.477 34.974 82.466 34.974 82.455 C 34.468 73.414 39.335 58.46 48.028 48.245 C 56.258 37.961 66.069 31.275 67.762 30.114 C 62.616 33.797 48.091 44.812 40.591 60.012 C 32.327 75.195 35.902 91.967 36.414 93.371 C 35.694 90.633 35.215 87.801 35.009 84.959 Z M 124.987 158.076 C 135.309 161.006 112.052 154.737 106.372 152.325 C 105.202 151.885 114.511 155.124 124.987 158.076 Z M 182.469 612.77 C 204.93 618.617 175.461 610.783 185.695 613.371 C 181.408 612.245 177.129 611.08 172.857 609.864 C 176.056 610.859 179.259 611.826 182.469 612.77 Z M 267.134 917.632 C 272.43 917.879 269.953 917.712 270.403 917.727 C 273.973 917.917 277.222 918.258 278.536 918.378 C 303.139 921.391 286.819 919.245 286.595 919.133 C 286.076 919.001 292.582 919.798 283.587 918.517 C 278.064 917.871 272.665 917.485 267.117 917.294 C 264.44 917.154 261.713 917.062 258.939 917.018 C 247.902 917.174 262.377 917.06 263.955 917.292 C 264.572 917.349 254.349 917.165 267.134 917.632 Z M 222.773 622.965 C 226.484 623.71 235.432 625.632 226.686 623.481 C 226.676 623.478 226.666 623.476 226.656 623.474 C 225.047 623.079 218.356 621.506 216.362 621.003 C 201.817 617.698 207.337 619.221 222.773 622.965 Z M 169.53 930.998 C 160.993 933.316 152.259 935.969 143.96 938.719 C 144.081 938.605 144.201 938.49 144.321 938.375 C 148.752 936.916 153.427 935.445 157.997 934.083 C 159.589 933.568 161.175 933.063 162.754 932.57 C 157.162 934.112 151.194 935.888 145.701 937.621 C 139.041 939.849 132.057 942.348 125.537 944.822 C 128.631 943.704 131.582 942.666 134.796 941.565 C 118.515 947.529 121.816 946.148 108.493 951.42 C 104.199 953.247 99.867 955.148 95.497 957.123 C 95.255 957.232 95.012 957.341 94.77 957.447 C 87.804 960.329 80.802 962.271 73.239 962.937 C 60.725 963.589 59.6 962.804 68.066 963.355 C 61.821 963.484 54.888 962.343 47.852 959.579 C 47.273 959.351 48.333 959.859 47.821 959.657 C 29.767 951.717 24.838 942.737 21.554 939.151 C 18.503 935.092 18.041 934.162 16.398 931.6 C 13.711 928.066 6.599 912.501 6.68 912.106 C 6.537 912.01 9.801 920.211 10.663 921.945 C 11.94 923.532 7.19 919.769 0.689 892.501 C 5.356 921.55 27.467 948.134 15.258 930.222 C 17.522 934.135 24.581 944.783 34.077 951.879 C 43.408 959.302 54.512 961.95 55.735 962.162 C 59.484 962.924 58.157 962.868 62.961 963.392 C 65.603 963.171 73.93 965.748 94.836 957.603 C 95.079 957.496 95.322 957.387 95.565 957.277 C 97.883 956.229 100.19 955.201 102.486 954.194 C 104.879 953.217 107.259 952.262 109.627 951.329 C 105.024 953.32 100.377 955.396 95.687 957.557 C 95.463 957.66 95.24 957.761 95.017 957.861 C 95.242 957.764 95.466 957.666 95.691 957.567 C 114.783 949.116 130.645 943.514 142.733 939.234 C 152.972 935.819 158.429 934.272 153.828 935.775 C 157.021 934.778 160.185 933.824 163.322 932.914 C 165.351 932.271 167.405 931.636 169.53 930.998 Z M 288.588 639.466 C 298.954 642.854 302.698 644.195 301.107 643.552 C 292.145 640.175 283.077 637.743 288.588 639.466 Z M 247.379 917.584 C 235.317 918.053 223.376 919.321 211.366 921.218 C 211.378 921.292 211.39 921.365 211.402 921.439 C 223.392 919.47 235.32 918.128 247.379 917.584 Z M 179.147 612.039 C 178.08 611.687 177.014 611.332 175.948 610.975 C 163.006 607.587 150.478 603.124 144.234 600.913 C 142.872 600.435 145.581 601.526 148.161 602.44 C 149.679 603.219 176.817 611.607 179.147 612.039 Z M 292.601 305.012 C 291.84 309.784 290.709 314.51 289.25 319.136 C 289.273 318.861 289.294 318.586 289.315 318.311 C 290.024 316.024 290.648 313.73 291.192 311.397 C 291.734 309.283 292.204 307.154 292.601 305.012 Z M 269.998 354.834 C 264.663 361.68 258.622 368.026 252.069 373.739 C 275.647 350.435 256.747 369.942 269.854 354.721 C 269.902 354.759 269.95 354.796 269.998 354.834 Z M 197.902 402.676 C 198.922 402.342 199.934 402.003 200.935 401.658 C 203.586 400.849 206.19 399.994 208.716 399.096 C 214.312 397.106 219.789 394.701 225.078 391.941 C 220.146 394.367 215.076 396.482 209.909 398.248 C 209.468 398.41 209.027 398.57 208.585 398.727 C 206.074 399.62 203.486 400.469 200.849 401.274 C 199.878 401.746 198.896 402.214 197.902 402.676 Z M 327.792 1074.843 C 324.138 1078.613 308.113 1086.858 308.672 1086.246 C 315.644 1083.479 322.16 1079.728 328.009 1075.064 C 327.989 1074.984 327.969 1074.904 327.949 1074.824 C 328.793 1074.189 329.67 1073.495 330.453 1072.855 C 333.529 1070.12 336.655 1066.831 339.24 1063.668 C 340.651 1062.075 342.034 1060.395 343.388 1058.624 C 344.596 1056.814 345.68 1055.062 346.778 1053.17 C 335.073 1070.156 334.307 1068.604 331.509 1071.753 C 329.946 1073.181 328.841 1074.029 328.226 1074.505 C 328.082 1074.618 327.937 1074.731 327.792 1074.843 Z M 239.092 918.551 C 263.942 916.936 278.59 917.827 296.238 921.293 C 285.257 915.31 209.607 918.661 183.912 927.137 C 181.214 927.84 178.645 928.539 175.98 929.288 C 189.934 925.631 199.792 923.854 206.821 922.616 C 212.319 921.674 211.711 921.747 212.133 921.672 C 212.153 921.668 212.172 921.665 212.192 921.662 C 225.261 919.668 229.208 919.357 239.092 918.551 Z M 160.918 606.991 C 167.408 609.149 178.954 612.37 179.117 612.265 C 172.704 610.46 166.316 608.559 159.969 606.523 C 161.269 606.966 159.803 606.626 160.918 606.991 Z M 187.963 404.949 C 182.837 406.227 170.64 408.777 175.915 407.793 C 176.914 407.649 188.939 404.818 181.924 406.631 C 193.707 403.865 190.861 404.221 187.963 404.949 Z M 40.878 748.75 C 42.49 747.165 44.151 745.614 45.86 744.101 C 47.602 742.558 49.337 741.071 51.062 739.64 C 51.808 738.954 52.641 738.207 53.432 737.506 C 50.774 739.681 48.374 741.753 45.818 744.054 C 44.122 745.584 42.476 747.15 40.878 748.75 Z M 107.186 585.429 C 101.959 582.377 92.846 577.546 83.825 570.681 C 80.451 568.215 77.142 565.599 73.977 562.871 C 73.969 562.864 73.961 562.858 73.953 562.851 C 73.822 562.83 73.69 562.809 73.558 562.787 C 83.852 571.696 95.219 579.089 107.186 585.429 Z M 91.736 959.079 C 89.045 960.064 86.452 960.873 83.577 961.585 C 78.719 962.885 73.556 963.69 68.458 963.789 C 71.3 963.776 73.937 963.579 76.762 963.183 C 81.863 962.386 87.019 960.912 91.736 959.079 Z M 51.312 538.351 C 60.087 550.198 63.902 554.225 52.291 539.403 C 47.761 532.951 42.923 525.382 51.312 538.351 Z M 63.23 1091.961 C 66.938 1088.222 70.934 1085.073 75.371 1082.391 C 76.838 1081.443 78.35 1080.553 79.902 1079.724 C 73.725 1082.843 68.127 1086.937 63.23 1091.961 Z M 248.069 376.522 C 247.658 376.916 247.244 377.309 246.828 377.699 C 243.435 380.378 239.914 382.903 236.288 385.252 C 237.173 384.62 238.05 383.978 238.92 383.326 C 242.061 381.184 245.114 378.913 248.069 376.522 Z M 92.927 1074.914 C 96.84 1073.856 100.912 1073.094 104.895 1072.598 C 107.559 1072.236 110.335 1071.974 113.023 1071.812 C 109.235 1071.987 105.451 1072.339 101.706 1072.92 C 98.714 1073.44 95.825 1074.088 92.927 1074.914 Z M 77.46 427.305 C 71.996 428.571 51.114 437.636 70.048 429.976 C 82.276 425.801 78.307 427.119 77.46 427.305 Z M 106.772 420.058 C 85.963 424.454 101.596 421.126 126.458 416.536 C 101.429 421.012 107.993 419.892 106.772 420.058 Z M 271.246 351.817 C 271.544 351.394 271.909 351.123 274.255 347.716 C 282.978 335.538 290.162 316.958 291.733 306.468 C 294.627 294.167 294.114 267.073 281.495 246.397 C 269.585 225.321 251.346 212.031 247.893 209.144 C 246.369 207.923 250.021 210.534 249.392 210.048 C 247.572 208.431 236.765 201.067 238.79 202.367 C 249.521 209.494 259.74 217.879 268.323 227.523 C 266.161 225.204 263.82 222.884 261.566 220.806 C 283.374 244.372 275.263 237.157 280.86 244.596 C 283.541 249.233 285.908 254.242 287.728 259.222 C 291.977 270.18 293.958 281.994 293.504 293.753 C 293.571 291.092 293.518 288.415 293.341 285.757 C 293.278 303.435 293.005 298.546 291.682 308.13 C 291.632 308.14 291.582 308.15 291.533 308.16 C 287.775 324.894 285.214 327.636 283.874 331.109 C 280.278 337.72 277.703 348.327 256.407 368.974 C 247.428 377.616 247.105 376.808 241.436 381.422 C 223.745 393.025 257.931 371.298 268.7 355.216 C 268.706 355.209 268.712 355.201 268.718 355.193 C 269.591 354.065 268.195 355.855 271.246 351.817 Z M 180.735 406.574 C 193.406 403.853 143.147 413.678 159.862 410.815 C 162.358 410.375 164.843 409.926 167.311 409.463 C 171.844 408.552 176.28 407.607 180.764 406.567 C 180.755 406.569 180.745 406.571 180.735 406.574 Z M 269.383 634.717 C 314.904 647.892 289.05 639.918 273.608 635.74 C 270.553 634.94 268.853 634.539 269.383 634.717 Z M 274.835 918.608 C 275.521 918.63 276.204 918.656 276.883 918.686 C 261.199 916.81 230.643 919.094 231.034 919.473 C 245.505 917.989 260.338 917.52 274.835 918.608 Z M 151.619 936.786 C 154.976 935.671 168.205 931.84 166.573 932.26 C 160.878 933.815 155.048 935.526 149.199 937.362 C 146.583 938.242 143.95 939.15 141.299 940.089 C 145.039 938.815 150.645 937.086 151.619 936.786 Z" fill="currentColor" fill-rule="nonzero"></path>
</svg>